<?xml version="1.0" standalone="no"?>
<!DOCTYPE svg PUBLIC "-//W3C//DTD SVG 20010904//EN"
 "http://www.w3.org/TR/2001/REC-SVG-20010904/DTD/svg10.dtd">
<svg version="1.0" xmlns="http://www.w3.org/2000/svg"
 width="435.000000pt" height="297.000000pt" viewBox="0 0 435.000000 297.000000"
 preserveAspectRatio="xMidYMid meet">
<metadata>
Created by potrace 1.16, written by Peter Selinger 2001-2019
</metadata>
<g transform="translate(0.000000,297.000000) scale(0.100000,-0.100000)"
fill="#000000" stroke="none">
<path d="M2060 2930 c-45 -45 -9 -130 54 -130 34 0 76 41 76 75 0 61 -87 98
-130 55z"/>
<path d="M2494 2686 c-17 -8 -44 -31 -60 -51 -26 -35 -29 -46 -32 -141 l-4
-104 151 0 151 0 0 -169 0 -170 -249 -3 c-287 -3 -287 -3 -331 -96 l-25 -52
-405 0 -405 0 -380 -323 -380 -323 -3 -498 -2 -498 -35 31 c-29 25 -44 31 -83
31 -98 0 -142 -57 -142 -184 l0 -76 -114 6 c-73 5 -115 3 -119 -3 -7 -11 539
-16 3131 -29 881 -5 1192 -4 1192 5 0 8 -61 11 -210 11 l-210 0 0 83 c0 102
-19 139 -88 169 -39 18 -53 19 -86 10 -38 -10 -42 -9 -78 23 -50 46 -122 57
-191 30 -16 -7 -17 3 -15 156 l3 164 340 5 c379 6 376 5 425 78 l25 36 3 891
2 891 -22 34 c-13 19 -38 43 -57 54 -32 19 -59 19 -850 23 -692 3 -821 2 -847
-11z m133 -26 c52 -31 65 -61 71 -159 l5 -89 -131 -7 c-72 -4 -135 -4 -141 0
-20 12 -13 161 8 204 34 66 123 91 188 51z m1569 -7 c17 -13 40 -40 49 -60 17
-36 18 -86 12 -906 -7 -933 -5 -894 -59 -944 -12 -12 -36 -26 -51 -32 -32 -12
-1070 -15 -1350 -4 -163 6 -165 6 -143 24 56 44 54 10 57 969 1 487 -2 894 -6
905 -4 11 -19 32 -34 48 l-25 27 759 -2 760 -3 31 -22z m-1506 -1232 l0 -608
-23 -34 c-46 -70 -131 -86 -198 -39 -61 44 -60 36 -53 625 7 493 6 537 -10
579 -10 25 -29 55 -43 66 l-26 20 177 0 176 0 0 -609z m-419 570 c28 -29 29
-32 29 -130 l0 -101 -90 0 -90 0 0 73 c0 81 23 144 61 171 34 23 57 20 90 -13z
m-600 -434 l374 -322 3 -135 c2 -74 0 -339 -3 -587 l-7 -453 -749 0 -749 0 0
593 0 592 373 317 c204 174 375 317 378 317 3 1 174 -144 380 -322z m729 -552
c4 -195 7 -223 24 -248 42 -62 35 -62 554 -67 l473 -5 0 -215 c0 -118 0 -261
-1 -317 l0 -103 -528 0 c-291 0 -604 3 -695 7 l-167 6 0 366 c0 201 3 464 7
584 l6 217 161 -2 161 -3 5 -220z m1230 -657 c25 -13 55 -38 67 -57 20 -30 23
-47 23 -137 l0 -104 -125 0 -125 0 0 143 c0 139 1 144 23 155 57 28 82 28 137
0z m-3146 -77 c29 -29 31 -37 35 -116 l3 -85 -121 0 -121 0 0 76 c0 53 5 84
17 105 39 66 131 75 187 20z m3371 9 c43 -26 65 -83 65 -165 l0 -65 -90 0 -90
0 0 89 c0 49 -5 102 -10 117 -8 21 -8 29 2 36 24 15 90 8 123 -12z"/>
<path d="M2934 2086 c-3 -8 -4 -23 -2 -33 3 -17 32 -18 538 -23 294 -3 543 -1
553 3 23 10 22 44 -2 57 -13 6 -204 10 -551 10 -453 0 -531 -2 -536 -14z
m1082 -17 c3 -6 2 -15 -4 -21 -6 -6 -196 -7 -536 -2 -430 6 -526 10 -526 21 0
11 92 13 529 13 371 0 532 -3 537 -11z"/>
<path d="M2934 1936 c-3 -8 -4 -23 -2 -33 3 -17 32 -18 547 -21 546 -2 560 -1
561 30 0 4 -7 14 -16 22 -14 14 -77 16 -550 16 -456 0 -535 -2 -540 -14z
m1081 -26 c0 -13 -64 -15 -530 -11 -291 2 -533 6 -538 8 -34 19 56 23 536 21
465 -3 532 -5 532 -18z"/>
<path d="M2934 1786 c-3 -8 -4 -23 -2 -33 3 -17 32 -18 547 -21 546 -2 560 -1
561 30 0 4 -7 14 -16 22 -14 14 -77 16 -550 16 -456 0 -535 -2 -540 -14z
m1081 -17 c4 -6 4 -13 0 -17 -7 -8 -1055 -3 -1068 5 -32 19 56 23 533 23 364
0 531 -3 535 -11z"/>
<path d="M2930 1631 c-7 -15 -6 -23 6 -35 14 -14 52 -16 306 -14 259 3 292 5
301 20 8 12 7 21 -2 32 -12 14 -51 16 -307 16 -280 0 -294 -1 -304 -19z m600
-16 c0 -13 -39 -15 -289 -15 -263 0 -314 4 -294 24 3 3 136 6 295 6 249 0 288
-2 288 -15z"/>
<path d="M1110 771 l0 -191 185 0 185 0 0 185 0 185 -93 0 c-52 0 -135 3 -185
6 l-92 7 0 -192z"/>
<path d="M210 2267 c-30 -15 -45 -54 -36 -91 13 -54 110 -65 136 -16 36 67
-33 142 -100 107z"/>
</g>
</svg>
