<?xml version="1.0" standalone="no"?>
<!DOCTYPE svg PUBLIC "-//W3C//DTD SVG 20010904//EN"
 "http://www.w3.org/TR/2001/REC-SVG-20010904/DTD/svg10.dtd">
<svg version="1.0" xmlns="http://www.w3.org/2000/svg"
 width="227.000000pt" height="222.000000pt" viewBox="0 0 227.000000 222.000000"
 preserveAspectRatio="xMidYMid meet">
<metadata>
Created by potrace 1.16, written by Peter Selinger 2001-2019
</metadata>
<g transform="translate(0.000000,222.000000) scale(0.100000,-0.100000)"
fill="#000000" stroke="none">
<path d="M925 1679 c-22 -5 -55 -11 -74 -13 -18 -3 -38 -9 -44 -15 -6 -6 -25
-11 -43 -11 -25 0 -39 -8 -62 -37 -48 -62 -53 -77 -48 -153 4 -60 2 -70 -12
-71 -14 0 -13 -2 3 -8 11 -5 23 -7 26 -5 4 2 10 -7 13 -21 11 -43 72 -109 94
-100 7 2 10 1 7 -5 -10 -15 32 -30 71 -25 21 2 42 11 46 19 5 8 14 21 21 28 7
7 18 27 24 43 6 17 14 39 19 50 12 34 14 55 5 55 -10 0 -26 -57 -22 -77 1 -7
-2 -13 -7 -13 -6 0 -13 -11 -16 -25 -4 -14 -11 -23 -17 -20 -7 5 -7 11 0 19 8
9 7 13 -3 13 -9 0 -13 -11 -10 -33 3 -31 1 -34 -33 -40 -36 -7 -70 5 -66 23 1
5 -8 9 -20 9 -15 -1 -22 5 -21 16 1 10 -2 16 -6 13 -10 -6 -46 36 -53 63 -4
18 -1 22 16 22 46 0 291 50 301 61 8 8 5 10 -11 4 -14 -4 -23 -2 -23 4 0 6 6
11 14 11 17 0 46 27 46 42 0 5 -7 8 -15 4 -11 -4 -15 2 -15 25 0 21 -6 32 -18
36 -10 2 -22 14 -27 26 -6 13 -21 23 -35 25 -14 2 -31 11 -38 22 -12 20 -18
17 78 36 26 5 30 2 35 -23 3 -15 10 -41 15 -58 8 -24 8 -21 4 19 -9 83 -12 84
-99 65z"/>
<path d="M1003 1136 c-12 -20 -146 -86 -176 -86 -14 0 -27 -4 -29 -9 -2 -7
-49 -15 -135 -23 -20 -2 -15 -28 5 -28 33 1 441 76 448 83 10 9 -25 59 -37 52
-5 -4 -8 -1 -7 6 4 18 -59 22 -69 5z"/>
<path d="M1405 1076 c-57 -26 -95 -85 -95 -147 0 -25 -4 -29 -27 -30 l-28 -1
27 -9 c17 -7 25 -15 21 -25 -7 -18 4 -18 22 0 11 11 29 10 112 -5 110 -21 147
-34 138 -49 -3 -6 -1 -10 4 -10 6 0 11 7 11 15 0 10 11 15 33 16 25 1 27 3 9
6 -23 4 -23 7 -17 62 8 72 -14 132 -59 160 -43 26 -113 35 -151 17z m40 -122
c27 -8 69 -14 92 -14 l43 0 0 -44 0 -44 -62 13 c-35 7 -84 16 -110 20 -27 3
-48 10 -48 15 0 5 -7 7 -15 4 -19 -8 -19 0 1 43 12 25 21 32 33 27 9 -4 38
-13 66 -20z"/>
<path d="M1235 629 c-33 -5 -71 -17 -85 -27 -28 -21 -54 -65 -41 -70 5 -2 67
-14 137 -27 84 -15 130 -20 133 -13 2 7 6 6 11 -1 7 -12 270 -64 278 -56 11
10 -11 74 -31 92 -41 37 -118 74 -160 78 -86 8 -137 17 -143 26 -6 10 -15 10
-99 -2z"/>
</g>
</svg>
