<?xml version="1.0" standalone="no"?>
<!DOCTYPE svg PUBLIC "-//W3C//DTD SVG 20010904//EN"
 "http://www.w3.org/TR/2001/REC-SVG-20010904/DTD/svg10.dtd">
<svg version="1.0" xmlns="http://www.w3.org/2000/svg"
 width="334.000000pt" height="151.000000pt" viewBox="0 0 334.000000 151.000000"
 preserveAspectRatio="xMidYMid meet">
<metadata>
Created by potrace 1.16, written by Peter Selinger 2001-2019
</metadata>
<g transform="translate(0.000000,151.000000) scale(0.100000,-0.100000)"
fill="#000000" stroke="none">
<path d="M1973 1499 c-68 -20 -107 -106 -78 -175 8 -20 14 -39 12 -41 -2 -2
-156 -5 -343 -8 -429 -7 -685 -13 -689 -17 -1 -2 -5 -207 -8 -455 l-7 -453 41
0 41 0 -4 40 -4 40 83 1 c46 1 88 2 95 3 7 1 16 -18 21 -42 7 -38 11 -42 37
-42 27 0 28 2 23 33 l-5 32 59 12 c32 7 70 15 84 19 25 6 26 4 33 -46 l7 -51
189 3 c181 3 190 2 190 -16 0 -39 -24 -96 -51 -122 -27 -26 -34 -27 -154 -32
l-125 -5 0 27 c0 22 -4 26 -27 25 -16 0 -50 -6 -76 -12 -47 -12 -48 -12 -31
-35 12 -17 19 -21 27 -13 6 6 17 11 24 11 10 0 10 -5 2 -24 -7 -14 -9 -43 -5
-69 l7 -44 91 -7 c228 -16 395 -2 437 37 14 13 40 28 56 31 28 7 75 42 75 56
0 4 -15 15 -34 25 -19 10 -33 23 -31 29 2 6 11 37 20 68 32 116 63 50 72 -153
l6 -129 29 0 c15 0 28 5 28 12 0 9 3 9 12 0 7 -7 21 -12 31 -12 17 0 19 5 14
46 -3 29 -1 41 4 33 6 -10 9 -8 9 9 0 23 26 113 60 207 23 64 93 147 149 175
37 19 54 22 110 17 36 -3 88 -14 115 -23 66 -23 151 -109 199 -201 35 -67 39
-72 58 -60 11 6 25 28 31 49 37 123 -165 512 -304 584 -16 8 -60 18 -98 21
-68 6 -69 5 -111 -30 -63 -55 -113 -67 -254 -64 -126 2 -205 -14 -249 -52 -27
-23 -64 -106 -77 -173 l-12 -58 -433 0 -434 0 0 374 0 373 118 7 c64 3 300 9
523 12 l407 7 16 35 17 35 32 -53 c46 -77 133 -116 167 -75 7 8 23 15 36 15
30 0 42 -40 25 -86 -10 -28 -10 -38 3 -56 19 -27 21 -59 4 -77 -11 -10 -5 -11
27 -5 135 24 204 130 193 299 -6 87 -36 149 -88 179 -30 18 -50 21 -145 19
-73 -2 -127 3 -159 12 -56 17 -67 17 -113 4z"/>
<path d="M1441 695 c-28 -13 -31 -18 -21 -30 41 -50 320 -45 320 5 0 6 5 8 10
5 6 -3 10 -2 10 3 0 17 -88 36 -104 23 -18 -15 -134 -17 -149 -2 -14 14 -25
13 -66 -4z"/>
</g>
</svg>
