<?xml version="1.0" standalone="no"?>
<!DOCTYPE svg PUBLIC "-//W3C//DTD SVG 20010904//EN"
 "http://www.w3.org/TR/2001/REC-SVG-20010904/DTD/svg10.dtd">
<svg version="1.0" xmlns="http://www.w3.org/2000/svg"
 width="800.000000pt" height="94.000000pt" viewBox="0 0 800.000000 94.000000"
 preserveAspectRatio="xMidYMid meet">
<metadata>
Created by potrace 1.16, written by Peter Selinger 2001-2019
</metadata>
<g transform="translate(0.000000,94.000000) scale(0.100000,-0.100000)"
fill="#000000" stroke="none">
<path d="M630 785 c0 -42 -2 -45 -19 -35 -56 29 -111 -11 -111 -80 0 -69 55
-109 111 -80 13 7 19 7 19 0 0 -5 7 -10 15 -10 13 0 15 21 15 125 0 104 -2
125 -15 125 -11 0 -15 -12 -15 -45z"/>
<path d="M213 753 c-26 -10 -12 -24 17 -18 33 7 60 -7 60 -31 0 -9 -11 -14
-30 -14 -68 0 -104 -42 -74 -87 16 -25 52 -30 84 -13 13 7 21 7 25 0 16 -26
25 -4 25 58 0 83 -17 112 -63 111 -18 0 -38 -3 -44 -6z"/>
</g>
</svg>
