<?xml version="1.0" encoding="utf-8"?>
<!-- Generator: Adobe Illustrator 25.1.0, SVG Export Plug-In . SVG Version: 6.00 Build 0)  -->
<svg version="1.1" id="Layer_1" xmlns="http://www.w3.org/2000/svg" xmlns:xlink="http://www.w3.org/1999/xlink" x="0px" y="0px"
	 viewBox="0 0 147 45.1" style="enable-background:new 0 0 147 45.1;" xml:space="preserve">
<style type="text/css">
	.st0{fill:#686767;}
	.st1{fill:#676767;}
	.st2{fill:#686868;}
	.st3{fill:#DB353A;}
	.st4{fill:#FFFEFE;}
</style>
<path class="st0" d="M143.1,27.7c-0.1,0-0.1,0-0.1,0c-0.6,1-1.5,1.5-2.6,1.7c-1.9,0.4-3.7,0-5.3-1.2c-1.3-1-2-2.3-2.2-3.9
	c-0.2-1.6,0-3.3,0.7-4.7c1-2.1,2.7-3.4,5.1-3.9c0.9-0.2,1.9-0.3,2.9-0.1c2.4,0.3,4,1.6,4.9,3.8c0.3,0.8,0.5,1.6,0.5,2.4
	c0,2.4,0.1,4.8,0.1,7.2c0,0.9-0.1,1.9-0.5,2.8c-0.8,2-2.2,3.4-4.2,4.1c-1.7,0.6-3.4,0.6-5.1,0.1c-0.6-0.2-1.2-0.4-1.7-0.8
	c-0.9-0.6-1.4-1.5-1.3-2.6c0-0.4,0-0.8,0-1.2c0-0.1,0-0.2,0.1-0.2c0.1,0,0.2,0,0.2,0.1c0.4,0.3,0.8,0.6,1.2,0.8
	c0.6,0.3,1.3,0.5,1.9,0.6c0.7,0.1,1.4,0.2,2.1,0.1c0.6,0,1.1-0.1,1.6-0.3c1-0.4,1.6-1.2,1.8-2.2c0.1-0.5,0.1-1.1,0.1-1.6
	C143.2,28.3,143.1,28,143.1,27.7z M143.1,22.6c0-0.9-0.1-1.5-0.4-2.1c-0.5-1.1-1.5-1.7-2.7-1.6s-2.1,0.7-2.7,1.7
	c-0.7,1.1-0.8,2.5-0.3,3.7c0.5,1.3,1.7,2.3,3.5,1.9c1.1-0.2,1.8-1,2.2-2C143,23.7,143.1,23.2,143.1,22.6L143.1,22.6z"/>
<path class="st0" d="M60.1,16.7c-0.1,0-0.2-0.1-0.3-0.2c-1-1-2.3-1.4-3.7-1.6c-0.8-0.1-1.7-0.1-2.5,0c-0.6,0.1-1.1,0.2-1.6,0.4
	c-0.8,0.4-1.2,1.1-1.2,2.1c0,0.4,0.2,0.9,0.5,1.1c0.3,0.2,0.6,0.4,0.9,0.5c0.7,0.3,1.4,0.5,2.2,0.7c0.6,0.2,1.3,0.3,1.9,0.5
	c0.9,0.2,1.7,0.6,2.4,1.1c1,0.8,1.7,1.7,1.9,3c0.3,2.8-0.8,5.5-3.9,6.7c-1.4,0.5-2.9,0.6-4.3,0.5c-0.7,0-1.5-0.2-2.2-0.4
	c-0.5-0.2-0.9-0.4-1.4-0.6c-1-0.7-1.5-1.6-1.5-2.8c0-0.5,0-1.1,0-1.6c0-0.1,0.1-0.2,0.2-0.1c0.1,0.1,0.2,0.2,0.4,0.3
	c1.8,1.4,3.8,1.9,6.1,1.7c0.5,0,1-0.2,1.4-0.3c0.5-0.2,0.9-0.5,1.1-1c0.3-0.6,0.3-1.2,0.1-1.9c-0.1-0.3-0.3-0.6-0.6-0.8
	c-0.3-0.2-0.6-0.4-0.9-0.5c-0.9-0.3-1.8-0.6-2.7-0.7c-0.7-0.1-1.4-0.3-2-0.6c-0.7-0.3-1.4-0.6-2-1.1c-1.2-1-1.7-2.3-1.5-3.8
	c0.2-2.6,1.7-4.4,4-5.4c0.8-0.4,1.7-0.6,2.6-0.6c1.1,0,2.2,0,3.3,0.2c0.6,0.1,1.2,0.4,1.7,0.7c0.5,0.3,1,0.8,1.3,1.3
	c0.2,0.3,0.3,0.6,0.3,1c0,0.7,0,1.3,0,2C60.2,16.6,60.2,16.7,60.1,16.7z"/>
<path class="st0" d="M79.6,25.2c-0.7,0-1.4,0-2.1,0c-0.2,0-0.3,0.1-0.2,0.3c0.1,0.5,0.3,1,0.7,1.4c0.6,0.7,1.4,1.1,2.3,1.4
	c0.8,0.2,1.5,0.1,2.3,0.1c0.6,0,1.2-0.2,1.7-0.3c0.7-0.2,1.3-0.5,1.8-1c0.1-0.1,0.2,0,0.2,0.1c0,0.5,0,1.1-0.1,1.6
	c-0.1,0.8-0.5,1.5-1.2,1.9c-0.5,0.4-1.2,0.6-1.8,0.7c-1.1,0.2-2.3,0.3-3.5,0.2c-2.8-0.4-5.5-2.4-6.3-5.5c-0.3-1-0.3-2-0.3-3
	c0.1-0.9,0.2-1.8,0.5-2.6c0.6-1.6,1.5-2.9,3-3.9c1-0.6,2-0.9,3.2-1.1c1.2-0.2,2.4,0,3.5,0.5c1.8,0.8,3,2.2,3.4,4.1
	c0.2,0.7,0.2,1.4,0.1,2.1c-0.1,0.8-0.6,1.5-1.3,1.9c-0.5,0.3-1.1,0.5-1.7,0.7c-0.9,0.2-1.8,0.3-2.7,0.3
	C80.7,25.2,80.2,25.2,79.6,25.2L79.6,25.2z M79.2,22.5c0.8,0,1.6,0,2.4-0.1c0.4,0,0.8-0.1,1.1-0.3c0.4-0.2,0.7-0.6,0.7-1
	c0-0.9-0.3-1.6-1.2-2c-0.8-0.4-1.7-0.4-2.5-0.2c-1,0.3-1.7,0.9-2.1,1.9c-0.2,0.5-0.3,0.9-0.3,1.4c0,0.3,0,0.3,0.3,0.3
	C78.1,22.5,78.6,22.5,79.2,22.5L79.2,22.5z"/>
<path class="st1" d="M130.4,26.2c0,1.4,0,2.9,0,4.3c0,0.1,0,0.2,0,0.3c0,0.4,0,0.4-0.4,0.4c-0.5,0-0.9,0-1.3-0.1
	c-1-0.2-1.7-0.8-1.9-1.8c-0.1-0.3-0.1-0.6-0.1-0.9c0-1.9,0-3.8,0-5.7c0-0.6-0.1-1.2-0.2-1.7c-0.1-0.3-0.2-0.6-0.4-0.9
	c-0.3-0.5-0.7-0.9-1.3-1.1c-0.7-0.3-1.4-0.3-2.1-0.1c-0.6,0.1-1.1,0.5-1.4,1c-0.3,0.4-0.5,0.9-0.5,1.5c-0.1,0.4-0.1,0.8-0.1,1.2
	c0,2.6,0,5.3,0,7.9c0,0.7,0,0.6-0.6,0.6c-0.4,0-0.8,0-1.1-0.1c-1.2-0.2-1.9-1-2-2.2c0-0.2,0-0.4,0-0.6c0-2,0-4,0-6
	c0-0.8,0.1-1.6,0.3-2.4c0.7-2,2-3.4,4-4c1.5-0.5,3.1-0.6,4.6-0.1c2.4,0.7,3.9,2.3,4.4,4.8c0.1,0.6,0.2,1.3,0.2,1.9
	C130.4,23.8,130.4,25,130.4,26.2z"/>
<path class="st2" d="M63.3,21.1c0-1.6,0-3.1,0-4.7c0-0.3,0-0.6,0-0.9c0.2-1.3,0.9-2.1,1.9-2.9c0.5-0.3,1.1-0.3,1.6-0.3
	c0.1,0,0.2,0.1,0.2,0.2c0,0.1,0,0.3,0,0.4c0,0.8,0,1.5,0,2.3c0,0.1,0,0.3,0,0.4c0,0.1,0.1,0.2,0.2,0.2c0,0,0,0,0,0
	c0.2,0,0.3,0,0.5,0h4c0.1,0,0.2,0,0.3,0c0.4,0,0.4,0,0.4,0.4c0,0.3,0,0.6,0,1c0,1.1-0.7,1.9-1.7,2c-0.3,0-0.6,0.1-0.8,0.1
	c-0.7,0-1.4,0-2.1,0c-0.1,0-0.3,0-0.4,0c-0.2,0-0.2,0.1-0.3,0.2c0,0.1,0,0.2,0,0.3c0,1.8,0,3.6,0,5.4c0,0.4,0,0.9,0.1,1.3
	c0.3,0.9,0.8,1.4,1.8,1.5c1.1,0.1,2.1,0,3.1-0.4c0.2-0.1,0.3-0.1,0.3,0.2c0,0.4,0,0.8,0,1.2c0,1-0.5,1.7-1.4,2.1
	c-0.3,0.2-0.7,0.3-1.1,0.3c-1.1,0.1-2.1,0.1-3.1-0.3c-1.7-0.5-2.8-1.7-3.2-3.4c-0.2-0.6-0.2-1.3-0.2-1.9
	C63.3,24.3,63.3,22.7,63.3,21.1L63.3,21.1z"/>
<path class="st2" d="M99.7,19.2c0-2.6,0-5.3,0-7.9c0-0.5,0-0.5,0.5-0.5c0.3,0,0.6,0,0.8,0c0.3,0,0.6,0.1,0.9,0.2
	c0.8,0.3,1.2,0.8,1.4,1.6c0.1,0.3,0.1,0.7,0.1,1c0,4.1,0,8.2,0,12.3c0,0.3,0,0.5,0,0.8c0.1,0.8,0.5,1.3,1.2,1.5
	c0.3,0.1,0.7,0.1,1,0.1c0.4,0,0.8,0,1.1,0c0.1,0,0.2,0,0.2,0.2c0,0.5,0,1-0.1,1.5c-0.1,0.6-0.6,1-1.1,1.2c-0.3,0.1-0.5,0.2-0.8,0.2
	c-0.8,0.1-1.7,0-2.5-0.3c-1.5-0.5-2.4-1.6-2.8-3.1c-0.1-0.5-0.1-1-0.1-1.5C99.7,24.1,99.7,21.6,99.7,19.2z"/>
<path class="st2" d="M93.1,26.4c0,1.5,0,2.9,0,4.4c0,0.5,0,0.5-0.5,0.5s-1,0-1.5-0.1c-0.9-0.2-1.5-0.6-1.8-1.5
	c-0.1-0.3-0.1-0.6-0.1-0.9c0-2.4,0-4.7,0-7.1c0-1,0.2-2,0.6-2.9c0.8-1.7,2.1-2.6,3.9-2.9c0.7-0.1,1.5-0.1,2.2,0
	c0.4,0.1,0.7,0.2,1,0.4c0.7,0.4,1.1,1.1,1.1,2c0,0.4,0,0.8,0,1.1c0,0.3-0.1,0.3-0.4,0.2c-0.1,0-0.2-0.1-0.4-0.1
	c-0.7-0.2-1.5-0.3-2.2-0.2c-0.9,0.1-1.5,0.6-1.8,1.4c-0.1,0.3-0.2,0.7-0.2,1.1c0,0.4,0,0.9,0,1.3C93.1,24.1,93.1,25.3,93.1,26.4z"/>
<path class="st2" d="M108.6,21.9c0-1.7,0-3.5,0-5.2c0-0.5,0-0.5,0.5-0.5c0.5,0,0.9,0,1.3,0.1c1,0.2,1.6,0.8,1.9,1.8
	c0.1,0.4,0.1,0.7,0.1,1.1c0,2.3,0,4.5,0,6.8c0,0.2,0,0.5,0,0.7c0.1,0.7,0.4,1.3,1.3,1.5c0.4,0.1,0.8,0.1,1.2,0.1
	c0.5,0,0.5,0,0.5,0.5c0,0.4,0,0.8-0.1,1.2c-0.2,0.7-0.6,1.2-1.3,1.3c-0.2,0.1-0.5,0.1-0.7,0.1c-0.6,0-1.2,0-1.8-0.2
	c-1.4-0.4-2.3-1.3-2.7-2.7c-0.2-0.6-0.2-1.2-0.2-1.8C108.6,25.1,108.6,23.5,108.6,21.9L108.6,21.9z"/>
<path class="st2" d="M108.2,12.6c0-1.2,1-2.2,2.2-2.2c1.2,0,2.3,1,2.3,2.3c0,1.2-1,2.2-2.2,2.2C109.3,14.8,108.3,13.8,108.2,12.6
	C108.2,12.6,108.2,12.6,108.2,12.6z"/>
<g>
	<path class="st3" d="M40.7,21.7c0,10.8-8.7,20-20,20c-11,0-20-8.8-20-20c0-11.3,9.2-20,20-20C31.9,1.8,40.8,10.8,40.7,21.7z
		 M21.5,13.8c0,3.2,2.7,5.8,5.8,5.8c3,0,5.8-2.4,5.8-5.8c0-3.4-2.8-5.9-5.8-5.9C24.3,8,21.5,10.6,21.5,13.8z"/>
	<path class="st4" d="M21.5,13.8c0-3.3,2.8-5.9,5.9-5.9c3,0,5.8,2.4,5.8,5.9c0,3.4-2.8,5.8-5.8,5.8C24.2,19.7,21.5,17.1,21.5,13.8z"
		/>
</g>
</svg>
