<?xml version="1.0" standalone="no"?>
<!DOCTYPE svg PUBLIC "-//W3C//DTD SVG 20010904//EN"
 "http://www.w3.org/TR/2001/REC-SVG-20010904/DTD/svg10.dtd">
<svg version="1.0" xmlns="http://www.w3.org/2000/svg"
 width="323.000000pt" height="324.000000pt" viewBox="0 0 323.000000 324.000000"
 preserveAspectRatio="xMidYMid meet">
<metadata>
Created by potrace 1.16, written by Peter Selinger 2001-2019
</metadata>
<g transform="translate(0.000000,324.000000) scale(0.100000,-0.100000)"
fill="#000000" stroke="none">
<path d="M827 3224 c-391 -71 -695 -355 -800 -748 -22 -80 -22 -92 -22 -856
l0 -775 23 -85 c29 -105 97 -252 156 -334 63 -88 209 -223 302 -279 93 -55
236 -109 344 -128 59 -11 228 -14 790 -14 790 0 780 -1 964 66 162 58 339 192
453 343 60 79 136 238 165 346 l23 85 0 775 c0 764 0 776 -22 856 -106 397
-411 680 -808 749 -123 21 -1448 21 -1568 -1z m637 -975 c65 -22 139 -65 193
-113 l33 -28 -26 -32 c-15 -17 -49 -55 -75 -85 l-48 -54 -38 33 c-20 18 -61
44 -91 58 -45 20 -65 24 -127 20 -78 -4 -109 -18 -147 -69 -27 -35 -27 -102
-2 -136 31 -43 110 -85 235 -127 204 -69 273 -119 328 -235 22 -49 26 -69 26
-156 0 -88 -3 -107 -27 -157 -47 -100 -151 -182 -273 -214 -27 -8 -91 -14
-140 -14 -152 0 -253 37 -360 132 -87 78 -87 75 8 156 l83 69 34 -29 c63 -54
147 -88 219 -88 118 0 189 39 209 114 27 95 -52 164 -273 236 -131 43 -188 72
-239 123 -70 70 -91 125 -91 237 0 83 3 102 28 151 53 109 188 205 317 228 73
13 169 5 244 -20z m828 -6 c54 -22 132 -110 149 -170 45 -156 -35 -305 -189
-349 -184 -54 -347 76 -347 276 0 83 15 121 69 178 77 83 208 109 318 65z m3
-732 c119 -53 181 -206 141 -345 -23 -78 -91 -148 -167 -170 -146 -44 -275 7
-336 132 -24 48 -28 70 -28 137 0 71 3 86 31 135 17 30 49 67 70 82 81 57 199
69 289 29z"/>
</g>
</svg>
