<svg width="68" height="63" viewBox="0 0 68 63" fill="none" xmlns="http://www.w3.org/2000/svg">
<path fill-rule="evenodd" clip-rule="evenodd" d="M7.96963 7.72589C7.05625 7.72589 6.31311 6.98594 6.31311 6.07649C6.31311 5.16703 7.05625 4.42708 7.96963 4.42708C8.883 4.42708 9.62605 5.16703 9.62605 6.07649C9.62605 6.98594 8.883 7.72589 7.96963 7.72589ZM13.4209 7.72589C12.5075 7.72589 11.7644 6.98594 11.7644 6.07649C11.7644 5.16703 12.5075 4.42708 13.4209 4.42708C14.3343 4.42708 15.0774 5.16703 15.0774 6.07649C15.0774 6.98594 14.3343 7.72589 13.4209 7.72589ZM18.8716 7.72589C17.9582 7.72589 17.2151 6.98594 17.2151 6.07649C17.2151 5.16703 17.9582 4.42708 18.8716 4.42708C19.785 4.42708 20.528 5.16703 20.528 6.07649C20.528 6.98594 19.785 7.72589 18.8716 7.72589ZM32.0779 41.9062C31.8049 41.9062 31.5481 41.8003 31.3548 41.608L27.4277 37.6977C27.2345 37.5053 27.1281 37.2496 27.1281 36.9776C27.1281 36.7057 27.2345 36.4499 27.4277 36.2576C27.6208 36.0653 27.8775 35.9593 28.1507 35.9593C28.4239 35.9593 28.6807 36.0652 28.8738 36.2576L31.9962 39.3664L38.7861 30.9805C38.9814 30.7395 39.2718 30.6014 39.5832 30.6014C39.8187 30.6014 40.0404 30.6794 40.2242 30.8269C40.4369 30.9976 40.57 31.2405 40.5992 31.511C40.6283 31.7815 40.5499 32.047 40.3785 32.2587L32.8742 41.527C32.6924 41.7516 32.4221 41.8893 32.1326 41.9048C32.1143 41.9058 32.0961 41.9062 32.0779 41.9062ZM33.867 22.9378C26.493 22.9378 20.4938 28.9114 20.4938 36.2537C20.4938 43.5963 26.493 49.5697 33.867 49.5697C41.2411 49.5697 47.2403 43.5963 47.2403 36.2537C47.2403 28.9114 41.2411 22.9378 33.867 22.9378ZM33.8669 51.6063C25.365 51.6063 18.4483 44.7191 18.4483 36.2537C18.4483 27.7883 25.365 20.9012 33.8669 20.9012C42.3688 20.9012 49.2855 27.7883 49.2855 36.2537C49.2855 44.7191 42.3688 51.6063 33.8669 51.6063ZM4.10756 2.03661C2.97048 2.03661 2.04543 2.95768 2.04543 4.08979V9.98458H65.688V4.08979C65.688 2.95768 64.763 2.03661 63.626 2.03661H4.10756ZM2.04543 58.4333C2.04543 59.5654 2.97048 60.4865 4.10756 60.4865H63.626C64.763 60.4865 65.688 59.5654 65.688 58.4333V12.0211H2.04543V58.4333ZM4.10749 62.5231C1.84256 62.5231 0 60.6883 0 58.4333V4.08976C0 1.83465 1.84256 0 4.10749 0H63.6259C65.8908 0 67.7333 1.83465 67.7333 4.08976V58.4333C67.7333 60.6883 65.8908 62.5231 63.6259 62.5231H4.10749Z" fill="url(#paint0_radial)"/>
<defs>
<radialGradient id="paint0_radial" cx="0" cy="0" r="1" gradientUnits="userSpaceOnUse" gradientTransform="translate(-16.4231 54.8323) rotate(-56.2025) scale(57.5883 59.5317)">
<stop stop-color="#50E3C2"/>
<stop offset="1" stop-color="#0045D8"/>
</radialGradient>
</defs>
</svg>
