<?xml version="1.0" encoding="UTF-8"?>
<!DOCTYPE svg PUBLIC "-//W3C//DTD SVG 1.1//EN" "http://www.w3.org/Graphics/SVG/1.1/DTD/svg11.dtd">
<!-- Creator: CorelDRAW X7 -->
<svg xmlns="http://www.w3.org/2000/svg" xml:space="preserve" width="8.8283in" height="5.27748in" version="1.1" style="shape-rendering:geometricPrecision; text-rendering:geometricPrecision; image-rendering:optimizeQuality; fill-rule:evenodd; clip-rule:evenodd"
viewBox="0 0 8828 5277"
 xmlns:xlink="http://www.w3.org/1999/xlink">
 <defs>
  <style type="text/css">
   <![CDATA[
    .fil5 {fill:#655F58}
    .fil20 {fill:#2D2D2F}
    .fil19 {fill:#322D30}
    .fil6 {fill:#33CC99}
    .fil17 {fill:#371408}
    .fil22 {fill:#CE6653}
    .fil18 {fill:#D99C77}
    .fil21 {fill:#E4B48C}
    .fil23 {fill:#FFD9B2}
    .fil11 {fill:#FEFEFE;fill-rule:nonzero}
    .fil8 {fill:#FDDECB;fill-rule:nonzero}
    .fil25 {fill:#F8A886;fill-rule:nonzero}
    .fil0 {fill:#ECEDEE;fill-rule:nonzero}
    .fil12 {fill:#ECDDDE;fill-rule:nonzero}
    .fil24 {fill:#E37069;fill-rule:nonzero}
    .fil4 {fill:#DDDDDC;fill-rule:nonzero}
    .fil1 {fill:#D7D5D5;fill-rule:nonzero}
    .fil9 {fill:#D57774;fill-rule:nonzero}
    .fil10 {fill:#A4A9A9;fill-rule:nonzero}
    .fil2 {fill:#655F58;fill-rule:nonzero}
    .fil7 {fill:#655F58;fill-rule:nonzero}
    .fil13 {fill:#19B79B;fill-rule:nonzero}
    .fil15 {fill:#14AA91;fill-rule:nonzero}
    .fil16 {fill:#1AA291;fill-rule:nonzero}
    .fil26 {fill:#323742;fill-rule:nonzero}
    .fil27 {fill:#31363F;fill-rule:nonzero}
    .fil14 {fill:#384155;fill-rule:nonzero}
    .fil28 {fill:#373D50;fill-rule:nonzero}
    .fil3 {fill:#29634F;fill-rule:nonzero}
    .fil30 {fill:#E6E6E6;fill-rule:nonzero}
    .fil29 {fill:white;fill-rule:nonzero}
   ]]>
  </style>
 </defs>
 <g id="Layer_x0020_1">
  <metadata id="CorelCorpID_0Corel-Layer"/>
  <g id="_2529583622256">
   <polygon class="fil0" points="7244,4548 1517,4548 2292,3415 6469,3415 "/>
   <polygon class="fil1" points="1517,4668 7244,4668 7244,4548 1517,4548 "/>
   <polygon class="fil2" points="2292,3415 6469,3415 6469,1030 2292,1030 "/>
   <polygon class="fil3" points="2471,3236 6290,3236 6290,1209 2471,1209 "/>
   <polygon class="fil4" points="3724,4089 5037,4089 5132,4411 3629,4411 "/>
   <polygon class="fil2" points="2860,3637 2503,3637 2561,3540 2907,3540 "/>
   <polygon class="fil2" points="3426,3637 3069,3637 3110,3540 3456,3540 "/>
   <polygon class="fil2" points="3993,3637 3636,3637 3659,3540 4005,3540 "/>
   <polygon class="fil2" points="4559,3637 4202,3637 4207,3540 4553,3540 "/>
   <polygon class="fil2" points="5125,3637 4768,3637 4756,3540 5102,3540 "/>
   <polygon class="fil2" points="5692,3637 5335,3637 5305,3540 5651,3540 "/>
   <polygon class="fil2" points="6258,3637 5901,3637 5854,3540 6200,3540 "/>
   <polygon class="fil2" points="2783,3795 2408,3795 2472,3688 2835,3688 "/>
   <polygon class="fil2" points="3378,3795 3003,3795 3048,3688 3411,3688 "/>
   <polygon class="fil2" points="3973,3795 3598,3795 3623,3688 3986,3688 "/>
   <polygon class="fil2" points="4568,3795 4193,3795 4199,3688 4562,3688 "/>
   <polygon class="fil2" points="5163,3795 4788,3795 4775,3688 5137,3688 "/>
   <polygon class="fil2" points="5758,3795 5383,3795 5350,3688 5713,3688 "/>
   <polygon class="fil2" points="6352,3795 5977,3795 5926,3688 6289,3688 "/>
   <polygon class="fil2" points="2699,3970 2304,3970 2375,3851 2756,3851 "/>
   <polygon class="fil2" points="3325,3970 2930,3970 2980,3851 3361,3851 "/>
   <polygon class="fil2" points="3952,3970 3557,3970 3585,3851 3966,3851 "/>
   <polygon class="fil2" points="5204,3970 3557,3970 3585,3851 5176,3851 "/>
   <polygon class="fil2" points="5204,3970 4809,3970 4795,3851 5176,3851 "/>
   <polygon class="fil2" points="5830,3970 5436,3970 5400,3851 5781,3851 "/>
   <polygon class="fil2" points="6457,3970 6062,3970 6005,3851 6386,3851 "/>
  </g>
  <g id="_2529583627664">
   <circle class="fil5" cx="7560" cy="4009" r="1268"/>
   <circle class="fil6" cx="7560" cy="4009" r="1178"/>
   <polygon class="fil7" points="7210,3243 7244,3156 7222,3156 7199,3220 7177,3156 7153,3156 7187,3243 "/>
   <polygon id="1" class="fil7" points="7352,3173 7352,3156 7284,3156 7284,3243 7354,3243 7354,3226 7306,3226 7306,3208 7348,3208 7348,3191 7306,3191 7306,3173 "/>
   <path id="2" class="fil7" d="M7452 3243l25 0 -18 -28c10,-6 16,-15 16,-29 0,-19 -14,-30 -37,-30l-39 0 0 87 22 0 0 -24 17 0 1 0 13 24zm-31 -42l0 -28 17 0c10,0 15,5 15,14 0,9 -5,14 -15,14l-17 0z"/>
   <polygon id="3" class="fil7" points="7543,3243 7543,3156 7520,3156 7520,3243 "/>
   <polygon id="4" class="fil7" points="7656,3173 7656,3156 7591,3156 7591,3243 7613,3243 7613,3211 7653,3211 7653,3194 7613,3194 7613,3173 "/>
   <polygon id="5" class="fil7" points="7720,3243 7720,3156 7698,3156 7698,3243 "/>
   <polygon id="6" class="fil7" points="7837,3173 7837,3156 7768,3156 7768,3243 7838,3243 7838,3226 7790,3226 7790,3208 7832,3208 7832,3191 7790,3191 7790,3173 "/>
   <path id="7" class="fil7" d="M7883 3156l0 87 37 0c28,0 47,-17 47,-43 0,-26 -19,-44 -46,-44l-38 0zm23 18l14 0c15,0 25,10 25,26 0,15 -10,26 -24,26l-15 0 0 -52z"/>
   <path class="fil8" d="M6697 4262c0,0 -19,17 -20,81 -1,64 20,81 20,81 0,0 17,-97 0,-162z"/>
   <path class="fil9" d="M6791 3737c-11,-28 -42,-54 -42,-54 13,12 25,28 42,54z"/>
   <path class="fil9" d="M6918 3969c0,0 -51,117 -195,167l-15 -10c0,0 147,-131 194,-195 0,0 11,24 16,38z"/>
   <path class="fil10" d="M8484 3542c-7,-8 -17,-13 -28,-13l-1791 0c-20,0 -37,16 -37,36l0 1092c0,12 5,22 13,28 7,6 15,9 24,9l1791 0c20,0 37,-17 37,-37l0 -1092c0,-9 -4,-17 -9,-23z"/>
   <path class="fil11" d="M6750 4579l1424 -874 -1546 0 0 912c0,12 5,22 13,28l104 -63 5 -3z"/>
   <path class="fil12" d="M8174 3705l-33 20 -37 23 -1354 831 -18 11 -91 55c7,5 15,8 24,8l1791 0c20,0 37,-16 37,-36l0 -912 -319 0z"/>
   <path class="fil13" d="M8456 3501l-1791 0c-20,0 -37,17 -37,36l0 168 1546 0 310 -190c-7,-8 -17,-14 -28,-14z"/>
   <polygon class="fil14" points="6807,4514 6824,4514 6824,4394 6807,4394 "/>
   <polygon class="fil14" points="6830,4514 6856,4514 6856,4394 6830,4394 "/>
   <polygon class="fil14" points="6862,4514 6869,4514 6869,4394 6862,4394 "/>
   <polygon class="fil14" points="6878,4514 6886,4514 6886,4394 6878,4394 "/>
   <polygon class="fil14" points="6894,4514 6911,4514 6911,4394 6894,4394 "/>
   <polygon class="fil14" points="6918,4514 6944,4514 6944,4394 6918,4394 "/>
   <polygon class="fil14" points="6949,4514 6957,4514 6957,4394 6949,4394 "/>
   <polygon class="fil14" points="6966,4514 6974,4514 6974,4394 6966,4394 "/>
   <polygon class="fil14" points="7046,4514 7062,4514 7062,4394 7046,4394 "/>
   <polygon class="fil14" points="7013,4514 7039,4514 7039,4394 7013,4394 "/>
   <polygon class="fil14" points="7000,4514 7007,4514 7007,4394 7000,4394 "/>
   <polygon class="fil14" points="6983,4514 6991,4514 6991,4394 6983,4394 "/>
   <polygon class="fil14" points="7071,4514 7088,4514 7088,4394 7071,4394 "/>
   <polygon class="fil14" points="7094,4514 7120,4514 7120,4394 7094,4394 "/>
   <polygon class="fil14" points="7126,4514 7133,4514 7133,4394 7126,4394 "/>
   <polygon class="fil14" points="7142,4514 7150,4514 7150,4394 7142,4394 "/>
   <polygon class="fil14" points="7159,4514 7175,4514 7175,4394 7159,4394 "/>
   <polygon class="fil14" points="7182,4514 7208,4514 7208,4394 7182,4394 "/>
   <polygon class="fil14" points="7213,4514 7221,4514 7221,4394 7213,4394 "/>
   <polygon class="fil14" points="7230,4514 7238,4514 7238,4394 7230,4394 "/>
   <polygon class="fil14" points="7264,4514 7272,4514 7272,4394 7264,4394 "/>
   <polygon class="fil14" points="7247,4514 7255,4514 7255,4394 7247,4394 "/>
   <path class="fil12" d="M7292 4063c0,143 -116,258 -258,258 -143,0 -258,-115 -258,-258 0,-142 115,-258 258,-258 142,0 258,116 258,258z"/>
   <polygon class="fil11" points="6628,3583 6628,3617 8317,3617 8373,3583 "/>
   <path class="fil15" d="M6869 3705l-151 0c23,-8 50,-13 81,-13 0,0 1,0 1,0 24,0 47,4 69,13z"/>
   <rect class="fil14" x="7409" y="3822" width="937.183" height="51.9195"/>
   <rect class="fil14" x="7409" y="3960" width="717.152" height="24.3294"/>
   <rect class="fil14" x="7409" y="4061" width="717.152" height="24.3294"/>
   <rect class="fil14" x="7409" y="4107" width="717.152" height="24.3294"/>
   <rect class="fil14" x="7409" y="4190" width="717.152" height="24.3294"/>
   <rect class="fil14" x="7409" y="4236" width="717.152" height="24.3294"/>
   <rect class="fil14" x="7409" y="4282" width="717.152" height="24.3294"/>
   <rect class="fil14" x="7409" y="4394" width="423.067" height="24.3294"/>
   <rect class="fil14" x="7409" y="4449" width="423.067" height="48.6634"/>
   <rect class="fil14" x="7923" y="4394" width="423.067" height="24.3294"/>
   <rect class="fil14" x="7923" y="4449" width="423.067" height="48.6634"/>
   <path class="fil16" d="M8484 3515l-111 68 120 0 0 -46c0,-8 -4,-16 -9,-22z"/>
   <polygon class="fil16" points="8174,3705 8493,3705 8493,3617 8317,3617 "/>
   <polygon class="fil12" points="8317,3617 8493,3617 8493,3583 8373,3583 "/>
   <g>
    <path class="fil17" d="M6961 4157c19,2 14,-4 12,-29 -4,-45 -38,-64 -34,-93l29 -47 67 9 63 -6c3,3 5,15 9,21 23,40 31,-9 -6,82 -10,22 -24,56 -1,62 18,6 4,0 11,9l3 6c0,-1 0,2 0,3 41,-15 57,-24 48,-77 -9,-60 -12,-234 -139,-225 -97,6 -123,173 -125,236 -1,50 18,48 52,65l5 -8c0,-1 1,-2 1,-3 3,-4 -5,0 5,-5z"/>
    <path class="fil18" d="M7035 3997c-7,43 1,141 -5,155 -19,4 -22,-1 -37,-9l-7 12c-10,12 2,6 -14,9 -3,9 -2,9 -6,17 8,11 1,-2 7,13 2,7 2,9 4,15 3,11 4,17 8,28 57,9 38,16 99,-4l11 -54c2,-17 -1,-12 5,-23 -23,-6 -9,-40 1,-62 37,-91 29,-42 6,-82 -4,-6 -6,-18 -9,-21l-63 6z"/>
    <path class="fil19" d="M7005 4320l-20 -83c-4,-11 -5,-17 -8,-28 -2,-6 -2,-8 -4,-15 -6,-15 1,-2 -7,-13l-121 40 0 18c41,44 98,74 160,81z"/>
    <path class="fil20" d="M7084 4233c-3,43 -16,54 -22,87 63,-7 119,-37 160,-81l0 -16 -127 -44 -11 54z"/>
    <path class="fil21" d="M6961 4157c12,16 4,9 11,7 16,-3 4,3 14,-9l7 -12c15,8 18,13 37,9 6,-14 -2,-112 5,-155l-67 -9 -29 47c-4,29 30,48 34,93 2,25 7,31 -12,29z"/>
    <path class="fil22" d="M7025 4321l24 0c4,0 9,-1 13,-1 6,-33 19,-44 22,-87 -61,20 -42,13 -99,4l20 83c7,0 13,1 20,1z"/>
   </g>
   <polygon class="fil5" points="7488,4891 7408,4825 7360,4876 7497,5002 7760,4656 7703,4610 "/>
  </g>
  <g id="_2493644014912">
   <circle class="fil5" cx="1268" cy="4009" r="1268"/>
   <circle class="fil23" cx="1268" cy="4009" r="1178"/>
   <path class="fil8" d="M405 4174c0,0 -19,17 -20,81 -1,64 20,81 20,81 0,0 17,-97 0,-162z"/>
   <path class="fil9" d="M499 3649c-11,-28 -42,-54 -42,-54 13,12 25,27 42,54z"/>
   <path class="fil10" d="M2192 3454c-7,-8 -17,-14 -29,-14l-1790 0c-21,0 -37,17 -37,37l0 1092c0,11 5,22 13,28 7,5 15,9 24,9l1790 0c21,0 37,-17 37,-37l0 -1092c0,-9 -3,-17 -8,-23z"/>
   <path class="fil11" d="M457 4491l1425 -874 -1546 0 0 912c0,11 5,21 13,28l104 -63 4 -3z"/>
   <path class="fil12" d="M1882 3617l-33 20 -38 23 -1354 831 -18 11 -90 55c7,5 15,8 24,8l1790 0c21,0 37,-16 37,-36l0 -912 -318 0z"/>
   <path class="fil13" d="M2163 3413l-1790 0c-21,0 -37,16 -37,36l0 168 1546 0 310 -191c-7,-8 -17,-13 -29,-13z"/>
   <polygon class="fil14" points="515,4426 531,4426 531,4306 515,4306 "/>
   <polygon class="fil14" points="538,4426 564,4426 564,4306 538,4306 "/>
   <polygon class="fil14" points="569,4426 577,4426 577,4306 569,4306 "/>
   <polygon class="fil14" points="586,4426 594,4426 594,4306 586,4306 "/>
   <polygon class="fil14" points="602,4426 619,4426 619,4306 602,4306 "/>
   <polygon class="fil14" points="626,4426 651,4426 651,4306 626,4306 "/>
   <polygon class="fil14" points="657,4426 665,4426 665,4306 657,4306 "/>
   <polygon class="fil14" points="674,4426 681,4426 681,4306 674,4306 "/>
   <polygon class="fil14" points="753,4426 770,4426 770,4306 753,4306 "/>
   <polygon class="fil14" points="721,4426 747,4426 747,4306 721,4306 "/>
   <polygon class="fil14" points="708,4426 715,4426 715,4306 708,4306 "/>
   <polygon class="fil14" points="691,4426 699,4426 699,4306 691,4306 "/>
   <polygon class="fil14" points="779,4426 795,4426 795,4306 779,4306 "/>
   <polygon class="fil14" points="802,4426 828,4426 828,4306 802,4306 "/>
   <polygon class="fil14" points="834,4426 841,4426 841,4306 834,4306 "/>
   <polygon class="fil14" points="850,4426 858,4426 858,4306 850,4306 "/>
   <polygon class="fil14" points="866,4426 883,4426 883,4306 866,4306 "/>
   <polygon class="fil14" points="890,4426 915,4426 915,4306 890,4306 "/>
   <polygon class="fil14" points="921,4426 929,4426 929,4306 921,4306 "/>
   <polygon class="fil14" points="938,4426 945,4426 945,4306 938,4306 "/>
   <polygon class="fil14" points="972,4426 979,4426 979,4306 972,4306 "/>
   <polygon class="fil14" points="955,4426 963,4426 963,4306 955,4306 "/>
   <path class="fil12" d="M1000 3975c0,143 -116,258 -258,258 -143,0 -258,-115 -258,-258 0,-142 115,-258 258,-258 142,0 258,116 258,258z"/>
   <polygon class="fil24" points="710,4156 773,4156 773,4093 710,4093 "/>
   <path class="fil25" d="M839 3948c0,0 11,-15 35,-8 23,8 9,85 -35,91l0 -83z"/>
   <path class="fil24" d="M849 3968c0,0 5,-14 17,-13 12,0 8,34 -17,53l0 -40z"/>
   <path class="fil25" d="M639 3948c0,0 -11,-15 -35,-8 -23,8 -9,85 35,91l0 -83z"/>
   <path class="fil24" d="M629 3968c0,0 -6,-14 -17,-13 -12,0 -8,34 17,53l0 -40z"/>
   <path class="fil25" d="M742 3786c-36,0 -68,16 -90,42 0,0 -18,119 -2,192 12,58 60,90 85,93 2,0 4,0 7,0 63,0 115,-52 115,-115l0 -97c0,-63 -52,-115 -115,-115z"/>
   <path class="fil24" d="M626 3998c0,61 49,112 109,115 -25,-3 -73,-35 -85,-93 -16,-73 2,-192 2,-192 -16,20 -26,46 -26,73l0 97z"/>
   <path class="fil24" d="M672 3857c0,0 82,55 155,12 0,0 -152,-52 -153,-34 0,18 -2,22 -2,22z"/>
   <path class="fil13" d="M641 4213c12,-11 20,-17 20,-17l-15 -23 -16 -22c-2,1 -18,12 -39,33 15,12 32,21 50,29z"/>
   <path class="fil13" d="M893 4184c-22,-21 -38,-33 -39,-34l-16 23 -16 23c0,0 8,6 20,17 18,-8 35,-17 51,-29z"/>
   <path class="fil26" d="M855 3850l-7 3c-11,-17 -39,-13 -39,-13 -2,22 25,40 25,40l2 42 21 34 0 -1 1 1c35,-83 -3,-106 -3,-106z"/>
   <path class="fil26" d="M629 3850l8 3c10,-17 38,-13 38,-13 3,22 -24,40 -24,40l-2 42 -22 34 0 -1 0 1c-35,-83 2,-106 2,-106z"/>
   <path class="fil14" d="M651 3808c-3,7 3,15 11,14 6,-1 14,-1 23,1 23,5 51,41 121,29 21,-4 38,-12 52,-23 2,-27 -6,-73 -76,-83 -25,0 -54,2 -79,7 -1,1 -18,5 -38,15 0,1 0,2 -1,3 -2,9 -9,24 -13,37z"/>
   <path class="fil26" d="M806 3852c-70,12 -98,-24 -121,-29 -9,-2 -17,-2 -23,-1 -8,1 -14,-7 -11,-14 4,-13 11,-28 13,-37 1,-1 1,-2 1,-3 -5,2 -10,6 -15,10 -3,2 -7,5 -10,9 -9,9 -14,20 -14,36 1,78 14,25 48,20 0,0 44,43 124,31 22,-3 41,-12 57,-24 0,0 3,-9 3,-21 -14,11 -31,19 -52,23z"/>
   <path class="fil13" d="M843 4147l-70 0c0,0 -4,19 -31,19 -26,0 -32,-19 -32,-19l-69 0c-12,0 -19,8 -19,19l0 38c36,19 77,29 120,29 43,0 83,-10 119,-29l0 -38c0,-11 -7,-19 -18,-19z"/>
   <path class="fil24" d="M742 4166c27,0 31,-19 31,-19l-63 0c0,0 6,19 32,19z"/>
   <polygon class="fil11" points="336,3495 336,3529 2025,3529 2081,3495 "/>
   <path class="fil27" d="M612 3883c3,-19 11,-28 15,-32 1,4 2,7 2,9 -5,8 -11,16 -17,23z"/>
   <path class="fil28" d="M655 3820c-2,-1 -3,-3 -4,-5 0,0 0,0 0,0l0 0c-1,-2 -1,-5 0,-7 4,-13 11,-28 13,-37 0,0 0,0 0,0 1,-1 1,-2 1,-3l0 0c2,-1 5,-3 7,-4 0,1 0,2 0,3 0,15 -7,33 -17,53z"/>
   <path class="fil27" d="M629 3860c0,-2 -1,-5 -2,-9 0,-6 -1,-16 -1,-28 0,-16 5,-27 14,-36 3,-4 7,-7 10,-9 5,-4 10,-8 15,-10l0 0c0,1 0,2 -1,3 0,0 0,0 0,0 -2,9 -9,24 -13,37 -1,2 -1,5 0,7l0 0c0,0 0,0 0,0 1,2 2,4 4,5 -7,13 -16,26 -26,40z"/>
   <rect class="fil14" x="1117" y="3734" width="937.183" height="51.9195"/>
   <rect class="fil14" x="1117" y="3872" width="717.152" height="24.3294"/>
   <rect class="fil14" x="1117" y="3973" width="717.152" height="24.3294"/>
   <rect class="fil14" x="1117" y="4019" width="717.152" height="24.3294"/>
   <rect class="fil14" x="1117" y="4102" width="717.152" height="24.3294"/>
   <rect class="fil14" x="1117" y="4148" width="717.152" height="24.3294"/>
   <rect class="fil14" x="1117" y="4194" width="717.152" height="24.3294"/>
   <rect class="fil14" x="1117" y="4306" width="423.067" height="24.3294"/>
   <rect class="fil14" x="1117" y="4361" width="423.067" height="48.6634"/>
   <rect class="fil14" x="1631" y="4306" width="423.067" height="24.3294"/>
   <rect class="fil14" x="1631" y="4361" width="423.067" height="48.6634"/>
   <path class="fil16" d="M2192 3426l-111 69 119 0 0 -46c0,-8 -3,-16 -8,-23z"/>
   <polygon class="fil16" points="1882,3617 2200,3617 2200,3529 2025,3529 "/>
   <polygon class="fil12" points="2025,3529 2200,3529 2200,3495 2081,3495 "/>
   <path class="fil7" d="M817 3156l-22 0 0 51c0,12 -7,19 -17,19 -11,0 -19,-7 -19,-19l0 -51 -22 0 0 51c0,23 16,37 41,37 24,0 39,-14 39,-37l0 -51z"/>
   <polygon id="1" class="fil7" points="945,3243 945,3156 924,3156 924,3210 884,3156 864,3156 864,3243 885,3243 885,3190 925,3243 "/>
   <polygon id="2" class="fil7" points="1042,3243 1076,3156 1053,3156 1031,3220 1008,3156 985,3156 1019,3243 "/>
   <polygon id="3" class="fil7" points="1184,3173 1184,3156 1115,3156 1115,3243 1185,3243 1185,3226 1138,3226 1138,3208 1179,3208 1179,3191 1138,3191 1138,3173 "/>
   <path id="4" class="fil7" d="M1283 3243l26 0 -19 -28c10,-6 16,-15 16,-29 0,-19 -13,-30 -36,-30l-39 0 0 87 22 0 0 -24 17 0 0 0 13 24zm-30 -42l0 -28 17 0c9,0 15,5 15,14 0,9 -6,14 -15,14l-17 0z"/>
   <polygon id="5" class="fil7" points="1374,3243 1374,3156 1352,3156 1352,3243 "/>
   <polygon id="6" class="fil7" points="1488,3173 1488,3156 1423,3156 1423,3243 1445,3243 1445,3211 1484,3211 1484,3194 1445,3194 1445,3173 "/>
   <polygon id="7" class="fil7" points="1551,3243 1551,3156 1529,3156 1529,3243 "/>
   <polygon id="8" class="fil7" points="1668,3173 1668,3156 1600,3156 1600,3243 1670,3243 1670,3226 1622,3226 1622,3208 1664,3208 1664,3191 1622,3191 1622,3173 "/>
   <path id="9" class="fil7" d="M1715 3156l0 87 37 0c28,0 47,-17 47,-43 0,-26 -19,-44 -47,-44l-37 0zm22 18l15 0c14,0 24,10 24,26 0,15 -9,26 -23,26l-16 0 0 -52z"/>
   <polygon class="fil5" points="1115,4948 1167,5002 1268,4906 1369,5002 1421,4948 1322,4854 1421,4759 1372,4705 1268,4803 1164,4705 1115,4759 1214,4854 "/>
  </g>
  <path class="fil3" d="M5035 2376l-644 517 -645 -517c-245,-196 -387,-494 -387,-808l0 -897c289,-58 497,-313 497,-609l1069 0c0,296 208,551 498,609l0 897c0,314 -143,612 -388,808z"/>
  <path class="fil29" d="M3421 720l0 848c0,297 132,574 364,759l606 486 606 -486c231,-185 364,-462 364,-759l0 -848c-272,-77 -469,-315 -495,-596l-950 0c-26,281 -224,519 -495,596zm970 2252l-684 -548c-261,-209 -410,-521 -410,-856l0 -948 50 -10c259,-52 448,-283 448,-548l0 -62 1192 0 0 62c0,265 188,496 448,548l50 10 0 948c0,335 -150,647 -411,856l-683 548z"/>
  <path class="fil29" d="M4767 2019l-722 0c-57,0 -103,-46 -103,-103l0 -624c0,-15 11,-26 26,-26l877 0c14,0 26,11 26,26l0 624c0,57 -47,103 -104,103z"/>
  <path class="fil3" d="M4489 1549c0,-47 -38,-84 -84,-84 -47,0 -84,37 -84,84 0,27 13,51 33,67l-16 192 134 0 -17 -192c20,-16 34,-40 34,-67z"/>
  <path class="fil30" d="M4819 1266l-165 0 0 -195c0,-111 -111,-201 -248,-201 -136,0 -247,90 -247,201l0 195 -166 0 0 -195c0,-206 186,-373 413,-373 228,0 413,167 413,373l0 195z"/>
 </g>
</svg>
