<?xml version="1.0" encoding="UTF-8"?>
<!DOCTYPE svg PUBLIC "-//W3C//DTD SVG 1.1//EN" "http://www.w3.org/Graphics/SVG/1.1/DTD/svg11.dtd">
<!-- Creator: CorelDRAW X7 -->
<svg xmlns="http://www.w3.org/2000/svg" xml:space="preserve" width="8.73489in" height="6.0627in" version="1.1" style="shape-rendering:geometricPrecision; text-rendering:geometricPrecision; image-rendering:optimizeQuality; fill-rule:evenodd; clip-rule:evenodd"
viewBox="0 0 8648 6003"
 xmlns:xlink="http://www.w3.org/1999/xlink">
 <defs>
  <style type="text/css">
   <![CDATA[
    .fil2 {fill:#FEFEFE;fill-rule:nonzero}
    .fil0 {fill:#55565B;fill-rule:nonzero}
    .fil3 {fill:#424347;fill-rule:nonzero}
    .fil5 {fill:#48B753;fill-rule:nonzero}
    .fil6 {fill:#1E483A;fill-rule:nonzero}
    .fil1 {fill:#29634F;fill-rule:nonzero}
    .fil4 {fill:#33CC99;fill-rule:nonzero}
    .fil8 {fill:#DFB880;fill-rule:nonzero}
    .fil7 {fill:white;fill-rule:nonzero}
    .fil9 {fill:white;fill-rule:nonzero}
   ]]>
  </style>
 </defs>
 <g id="Layer_x0020_1">
  <metadata id="CorelCorpID_0Corel-Layer"/>
  <path class="fil0" d="M6815 3986l-5974 0c-35,0 -64,-29 -64,-65l0 -3857c0,-35 29,-64 64,-64l5974 0c35,0 64,29 64,64l0 3857c0,36 -29,65 -64,65z"/>
  <path class="fil1" d="M1049 3700l0 -3415c0,-7 6,-13 13,-13l5532 0c7,0 13,6 13,13l0 3415c0,8 -6,14 -13,14l-5532 0c-7,0 -13,-6 -13,-14z"/>
  <path class="fil2" d="M7623 4204l-7623 0 0 -195c0,-13 10,-23 23,-23l7576 0c13,0 24,10 24,23l0 195z"/>
  <polygon class="fil3" points="7240,4204 0,4204 349,4316 7240,4316 7623,4204 "/>
  <path class="fil4" d="M4863 2412l-2070 0c-181,0 -328,147 -328,328l0 0c0,181 147,328 328,328l2070 0c181,0 328,-147 328,-328l0 0c0,-181 -147,-328 -328,-328z"/>
  <polygon class="fil5" points="3496,1970 2982,1422 3087,1322 3499,1761 4571,679 4674,781 "/>
  <path class="fil3" d="M8478 6003l-1766 0c-94,0 -170,-77 -170,-171l0 -3488c0,-94 76,-170 170,-170l1766 0c94,0 170,76 170,170l0 3488c0,94 -76,171 -170,171z"/>
  <polygon class="fil1" points="6642,5632 8548,5632 8548,2465 6642,2465 "/>
  <path class="fil0" d="M7926 5883l-662 0c-37,0 -66,-29 -66,-66 0,-36 29,-66 66,-66l662 0c37,0 67,30 67,66 0,37 -30,66 -67,66z"/>
  <path class="fil0" d="M7628 2313c0,18 -15,33 -33,33 -18,0 -33,-15 -33,-33 0,-18 15,-33 33,-33 18,0 33,15 33,33z"/>
  <path class="fil4" d="M7852 4972l-506 0c-83,0 -151,-68 -151,-151 0,-83 68,-151 151,-151l506 0c84,0 152,68 152,151 0,83 -68,151 -152,151z"/>
  <polygon class="fil6" points="6642,2616 8548,2616 8548,2465 6642,2465 "/>
  <path class="fil7" d="M8488 2503l-173 0 0 16 -25 0 0 44 25 0 0 16 173 0 0 -76zm-8 9l0 58 -156 0 0 -16 -26 0 0 -26 26 0 0 -16 156 0z"/>
  <polygon class="fil7" points="8389,2559 8468,2559 8468,2523 8389,2523 "/>
  <polygon class="fil8" points="6795,2579 6817,2579 6817,2503 6795,2503 "/>
  <polygon class="fil7" points="6759,2579 6781,2579 6781,2503 6759,2503 "/>
  <polygon class="fil7" points="6724,2579 6745,2579 6745,2503 6724,2503 "/>
  <polygon class="fil7" points="6688,2579 6710,2579 6710,2503 6688,2503 "/>
  <path class="fil9" d="M2806 2623c-50,0 -84,25 -84,64 0,83 125,54 125,105 0,18 -16,28 -43,28 -25,0 -55,-11 -79,-33l-17 33c24,22 59,37 95,37 51,0 87,-25 87,-67 0,-83 -124,-56 -124,-106 0,-16 14,-24 37,-24 18,0 43,6 68,21l16 -34c-21,-14 -51,-24 -81,-24z"/>
  <path id="1" class="fil9" d="M3143 2625l-39 0 0 135c0,39 -24,62 -61,62 -38,0 -62,-23 -62,-62l0 -135 -39 0 0 135c0,60 38,97 100,97 63,0 101,-37 101,-97l0 -135z"/>
  <path id="2" class="fil9" d="M3311 2624c-68,0 -121,50 -121,116 0,66 53,117 120,117 33,0 66,-14 90,-38l-23 -25c-18,17 -42,27 -65,27 -46,0 -82,-36 -82,-81 0,-46 36,-82 82,-82 24,0 48,12 65,30l22 -29c-22,-22 -55,-35 -88,-35z"/>
  <path id="3" class="fil9" d="M3547 2624c-68,0 -121,50 -121,116 0,66 52,117 120,117 33,0 66,-14 89,-38l-23 -25c-17,17 -41,27 -64,27 -46,0 -83,-36 -83,-81 0,-46 37,-82 83,-82 23,0 48,12 64,30l23 -29c-22,-22 -55,-35 -88,-35z"/>
  <polygon id="4" class="fil9" points="3851,2660 3851,2625 3686,2625 3686,2856 3855,2856 3855,2821 3725,2821 3725,2757 3838,2757 3838,2722 3725,2722 3725,2660 "/>
  <path id="5" class="fil9" d="M3989 2623c-50,0 -84,25 -84,64 0,83 125,54 125,105 0,18 -17,28 -44,28 -24,0 -54,-11 -78,-33l-17 33c24,22 58,37 95,37 50,0 87,-25 87,-67 0,-83 -125,-56 -125,-106 0,-16 15,-24 38,-24 17,0 43,6 68,21l16 -34c-22,-14 -51,-24 -81,-24z"/>
  <path id="6" class="fil9" d="M4205 2623c-50,0 -84,25 -84,64 0,83 125,54 125,105 0,18 -17,28 -44,28 -24,0 -54,-11 -78,-33l-17 33c24,22 58,37 95,37 51,0 87,-25 87,-67 0,-83 -125,-56 -125,-106 0,-16 15,-24 38,-24 18,0 43,6 68,21l16 -34c-22,-14 -51,-24 -81,-24z"/>
  <polygon id="7" class="fil9" points="4500,2660 4500,2625 4345,2625 4345,2856 4384,2856 4384,2761 4489,2761 4489,2726 4384,2726 4384,2660 "/>
  <path id="8" class="fil9" d="M4742 2625l-39 0 0 135c0,39 -23,62 -61,62 -38,0 -62,-23 -62,-62l0 -135 -39 0 0 135c0,60 38,97 101,97 62,0 100,-37 100,-97l0 -135z"/>
  <polygon id="9" class="fil9" points="4847,2820 4847,2625 4809,2625 4809,2856 4947,2856 4947,2820 "/>
  <path class="fil9" d="M7342 4791c-14,0 -23,7 -23,18 0,20 30,14 30,24 0,4 -3,5 -7,5 -6,0 -15,-3 -21,-8l-6 11c7,6 17,9 26,9 13,0 24,-6 24,-17 0,-21 -31,-15 -31,-25 0,-3 3,-5 6,-5 5,0 13,3 19,6l5 -11c-6,-4 -14,-7 -22,-7z"/>
  <path id="1" class="fil9" d="M7427 4792l-15 0 0 34c0,7 -4,12 -11,12 -7,0 -12,-5 -12,-12l0 -34 -15 0 0 34c0,15 10,25 27,25 16,0 26,-10 26,-25l0 -34z"/>
  <path id="2" class="fil9" d="M7467 4792c-18,0 -31,12 -31,29 0,17 13,30 31,30 8,0 17,-5 23,-11l-8 -9c-4,4 -10,7 -15,7 -9,0 -16,-8 -16,-17 0,-10 7,-17 16,-17 5,0 11,3 15,7l8 -10c-5,-6 -14,-9 -23,-9z"/>
  <path id="3" class="fil9" d="M7526 4792c-18,0 -31,12 -31,29 0,17 13,30 30,30 9,0 18,-5 24,-11l-9 -9c-4,4 -9,7 -14,7 -9,0 -16,-8 -16,-17 0,-10 7,-17 16,-17 5,0 11,3 14,7l9 -10c-6,-6 -15,-9 -23,-9z"/>
  <polygon id="4" class="fil9" points="7603,4804 7603,4792 7558,4792 7558,4850 7604,4850 7604,4838 7573,4838 7573,4827 7600,4827 7600,4815 7573,4815 7573,4804 "/>
  <path id="5" class="fil9" d="M7638 4791c-14,0 -23,7 -23,18 0,20 31,14 31,24 0,4 -3,5 -8,5 -6,0 -15,-3 -21,-8l-5 11c6,6 16,9 26,9 13,0 23,-6 23,-17 0,-21 -30,-15 -30,-25 0,-3 2,-5 6,-5 5,0 12,3 18,6l6 -11c-6,-4 -14,-7 -23,-7z"/>
  <path id="6" class="fil9" d="M7694 4791c-14,0 -23,7 -23,18 0,20 30,14 30,24 0,4 -3,5 -7,5 -6,0 -15,-3 -21,-8l-6 11c7,6 17,9 27,9 12,0 23,-6 23,-17 0,-21 -31,-15 -31,-25 0,-3 3,-5 7,-5 4,0 12,3 18,6l6 -11c-6,-4 -15,-7 -23,-7z"/>
  <polygon id="7" class="fil9" points="7770,4804 7770,4792 7727,4792 7727,4850 7742,4850 7742,4829 7768,4829 7768,4817 7742,4817 7742,4804 "/>
  <path id="8" class="fil9" d="M7831 4792l-14 0 0 34c0,7 -5,12 -12,12 -7,0 -12,-5 -12,-12l0 -34 -15 0 0 34c0,15 11,25 27,25 16,0 26,-10 26,-25l0 -34z"/>
  <polygon id="9" class="fil9" points="7859,4838 7859,4792 7844,4792 7844,4850 7884,4850 7884,4838 "/>
  <polygon class="fil5" points="7470,4017 7277,3812 7317,3774 7472,3939 7874,3533 7913,3571 "/>
 </g>
</svg>
