<?xml version="1.0" encoding="UTF-8"?>
<!DOCTYPE svg PUBLIC "-//W3C//DTD SVG 1.1//EN" "http://www.w3.org/Graphics/SVG/1.1/DTD/svg11.dtd">
<!-- Creator: CorelDRAW X7 -->
<svg xmlns="http://www.w3.org/2000/svg" xml:space="preserve" width="6.15893in" height="4.64309in" version="1.1" style="shape-rendering:geometricPrecision; text-rendering:geometricPrecision; image-rendering:optimizeQuality; fill-rule:evenodd; clip-rule:evenodd"
viewBox="0 0 6458 4868"
 xmlns:xlink="http://www.w3.org/1999/xlink">
 <defs>
  <style type="text/css">
   <![CDATA[
    .fil23 {fill:#655F58}
    .fil20 {fill:#FEFEFE;fill-rule:nonzero}
    .fil19 {fill:#FEF1EB;fill-rule:nonzero}
    .fil21 {fill:#FFCE33;fill-rule:nonzero}
    .fil12 {fill:#F8A886;fill-rule:nonzero}
    .fil22 {fill:#F6D8C9;fill-rule:nonzero}
    .fil16 {fill:#F5CBB7;fill-rule:nonzero}
    .fil0 {fill:#ECEDEE;fill-rule:nonzero}
    .fil10 {fill:#ECDDDE;fill-rule:nonzero}
    .fil11 {fill:#E37069;fill-rule:nonzero}
    .fil5 {fill:#DDDDDC;fill-rule:nonzero}
    .fil1 {fill:#D7D5D5;fill-rule:nonzero}
    .fil18 {fill:#8B8B8B;fill-rule:nonzero}
    .fil2 {fill:#655F58;fill-rule:nonzero}
    .fil17 {fill:#444444;fill-rule:nonzero}
    .fil6 {fill:#19B79B;fill-rule:nonzero}
    .fil7 {fill:#11967C;fill-rule:nonzero}
    .fil13 {fill:#323742;fill-rule:nonzero}
    .fil14 {fill:#31363F;fill-rule:nonzero}
    .fil9 {fill:#384155;fill-rule:nonzero}
    .fil15 {fill:#373D50;fill-rule:nonzero}
    .fil24 {fill:#29634F;fill-rule:nonzero}
    .fil4 {fill:#E6E6E6;fill-rule:nonzero}
    .fil3 {fill:#F7F7F7;fill-rule:nonzero}
    .fil8 {fill:white;fill-rule:nonzero}
   ]]>
  </style>
 </defs>
 <g id="Layer_x0020_1">
  <metadata id="CorelCorpID_0Corel-Layer"/>
  <g id="_1432511500128">
   <polygon class="fil0" points="0,3947 4977,3947 4354,2935 624,2935 "/>
   <polygon class="fil1" points="0,4054 4977,4054 4977,3947 0,3947 "/>
   <polygon class="fil2" points="624,2935 4354,2935 4354,805 624,805 "/>
   <polygon class="fil3" points="783,2775 4194,2775 4194,964 783,964 "/>
   <path class="fil4" d="M783 2775l3411 0c0,-603 0,-1207 0,-1811 -1104,915 -2248,1450 -3411,1811z"/>
   <polygon class="fil5" points="3075,3537 1902,3537 1817,3824 3160,3824 "/>
   <polygon class="fil2" points="3847,3134 4166,3134 4114,3047 3805,3047 "/>
   <polygon class="fil2" points="3341,3134 3660,3134 3624,3047 3314,3047 "/>
   <polygon class="fil2" points="2835,3134 3154,3134 3133,3047 2824,3047 "/>
   <polygon class="fil2" points="2329,3134 2648,3134 2643,3047 2334,3047 "/>
   <polygon class="fil2" points="1823,3134 2142,3134 2153,3047 1844,3047 "/>
   <polygon class="fil2" points="1317,3134 1636,3134 1663,3047 1354,3047 "/>
   <polygon class="fil2" points="812,3134 1130,3134 1172,3047 863,3047 "/>
   <polygon class="fil2" points="3915,3275 4250,3275 4193,3179 3869,3179 "/>
   <polygon class="fil2" points="3384,3275 3719,3275 3679,3179 3355,3179 "/>
   <polygon class="fil2" points="2852,3275 3187,3275 3165,3179 2841,3179 "/>
   <polygon class="fil2" points="2321,3275 2656,3275 2651,3179 2327,3179 "/>
   <polygon class="fil2" points="1790,3275 2125,3275 2137,3179 1812,3179 "/>
   <polygon class="fil2" points="1259,3275 1594,3275 1623,3179 1298,3179 "/>
   <polygon class="fil2" points="727,3275 1062,3275 1108,3179 784,3179 "/>
   <polygon class="fil2" points="3990,3430 4343,3430 4280,3325 3939,3325 "/>
   <polygon class="fil2" points="3431,3430 3784,3430 3739,3325 3399,3325 "/>
   <polygon class="fil2" points="2872,3430 3224,3430 3199,3325 2859,3325 "/>
   <polygon class="fil2" points="1753,3430 3224,3430 3199,3325 1778,3325 "/>
   <polygon class="fil2" points="1753,3430 2106,3430 2119,3325 1778,3325 "/>
   <polygon class="fil2" points="1194,3430 1546,3430 1578,3325 1238,3325 "/>
   <polygon class="fil2" points="634,3430 987,3430 1038,3325 697,3325 "/>
   <path class="fil6" d="M783 1254l3411 0 0 -102 -3411 0 0 102zm3411 -188l0 -102 -3411 0 0 102 3411 0z"/>
   <path class="fil7" d="M3827 1254l367 0 0 -7 0 -28 0 -28 0 -29 0 -10 -234 0c-45,35 -89,68 -133,102zm367 -290c-42,35 -83,69 -125,102l125 0 0 -17 0 -28 0 -28 0 -29 0 0z"/>
   <polygon class="fil8" points="783,1152 4194,1152 4194,1066 783,1066 "/>
   <path class="fil4" d="M3960 1152l234 0 0 -18 0 -28 0 -28 0 -12 -125 0c-36,29 -73,58 -109,86z"/>
   <g>
    <polygon class="fil9" points="1271,2561 1298,2561 1298,2367 1271,2367 "/>
    <polygon class="fil9" points="1309,2561 1350,2561 1350,2367 1309,2367 "/>
    <polygon class="fil9" points="1359,2561 1372,2561 1372,2367 1359,2367 "/>
    <polygon class="fil9" points="1386,2561 1399,2561 1399,2367 1386,2367 "/>
    <polygon class="fil9" points="1412,2561 1439,2561 1439,2367 1412,2367 "/>
    <polygon class="fil9" points="1450,2561 1492,2561 1492,2367 1450,2367 "/>
    <polygon class="fil9" points="1501,2561 1513,2561 1513,2367 1501,2367 "/>
    <polygon class="fil9" points="1528,2561 1540,2561 1540,2367 1528,2367 "/>
    <polygon class="fil9" points="1656,2561 1683,2561 1683,2367 1656,2367 "/>
    <polygon class="fil9" points="1604,2561 1646,2561 1646,2367 1604,2367 "/>
    <polygon class="fil9" points="1583,2561 1595,2561 1595,2367 1583,2367 "/>
    <polygon class="fil9" points="1556,2561 1568,2561 1568,2367 1556,2367 "/>
    <polygon class="fil9" points="1697,2561 1724,2561 1724,2367 1697,2367 "/>
    <polygon class="fil9" points="1735,2561 1777,2561 1777,2367 1735,2367 "/>
    <polygon class="fil9" points="1786,2561 1798,2561 1798,2367 1786,2367 "/>
    <polygon class="fil9" points="1813,2561 1825,2561 1825,2367 1813,2367 "/>
    <polygon class="fil9" points="1839,2561 1866,2561 1866,2367 1839,2367 "/>
    <polygon class="fil9" points="1877,2561 1918,2561 1918,2367 1877,2367 "/>
    <polygon class="fil9" points="1927,2561 1940,2561 1940,2367 1927,2367 "/>
    <polygon class="fil9" points="1954,2561 1967,2561 1967,2367 1954,2367 "/>
    <polygon class="fil9" points="2009,2561 2021,2561 2021,2367 2009,2367 "/>
    <polygon class="fil9" points="1982,2561 1994,2561 1994,2367 1982,2367 "/>
    <path class="fil10" d="M2054 1832c0,230 -186,417 -416,417 -230,0 -417,-187 -417,-417 0,-230 187,-416 417,-416 230,0 416,186 416,416z"/>
    <polygon class="fil11" points="1587,2124 1688,2124 1688,2023 1587,2023 "/>
    <path class="fil12" d="M1795 1789c0,0 17,-25 56,-13 38,13 14,136 -56,147l0 -134z"/>
    <path class="fil11" d="M1811 1821c0,0 9,-22 28,-22 19,1 12,56 -28,87l0 -65z"/>
    <path class="fil12" d="M1472 1789c0,0 -18,-25 -56,-13 -39,13 -15,136 56,147l0 -134z"/>
    <path class="fil11" d="M1456 1821c0,0 -9,-22 -28,-22 -19,1 -13,56 28,87l0 -65z"/>
    <path class="fil12" d="M1637 1527c-57,0 -109,26 -144,68 0,0 -29,193 -4,310 20,93 97,145 138,150 3,0 7,0 10,0 103,0 187,-84 187,-186l0 -156c0,-102 -84,-186 -187,-186z"/>
    <path class="fil11" d="M1451 1869c0,99 78,180 176,186 -41,-5 -118,-57 -138,-150 -25,-117 4,-310 4,-310 -26,32 -42,73 -42,118l0 156z"/>
    <path class="fil11" d="M1525 1642c0,0 133,89 250,20 0,0 -245,-86 -246,-56 -1,29 -4,36 -4,36z"/>
    <path class="fil6" d="M1475 2216c19,-18 32,-27 33,-27l-26 -37 -25 -36c-2,1 -29,20 -63,54 25,18 52,34 81,46z"/>
    <path class="fil6" d="M1881 2170c-34,-34 -60,-53 -63,-55l-25 37 -26 36c1,1 14,10 33,28 29,-12 56,-28 81,-46z"/>
    <path class="fil13" d="M1821 1630l-12 5c-17,-27 -62,-21 -62,-21 -5,35 39,64 39,64l3 69 35 55 0 -2 1 1c57,-134 -4,-171 -4,-171z"/>
    <path class="fil13" d="M1456 1630l12 5c17,-27 62,-21 62,-21 5,35 -39,64 -39,64l-3 69 -35 55 0 -2 -1 1c-57,-134 4,-171 4,-171z"/>
    <path class="fil9" d="M1491 1562c-4,12 5,24 18,23 9,-1 22,-1 37,2 37,8 82,66 195,47 34,-6 62,-20 85,-37 2,-44 -11,-119 -123,-134 -41,0 -87,2 -129,11 -1,1 -28,8 -61,24 0,2 0,3 0,5 -4,14 -15,39 -22,59z"/>
    <path class="fil13" d="M1741 1634c-113,19 -158,-39 -195,-47 -15,-3 -27,-3 -37,-2 -13,1 -22,-11 -18,-23 7,-20 18,-45 22,-59 0,-2 0,-3 0,-5 -7,4 -15,10 -23,15 -6,5 -11,9 -16,15 -15,15 -23,34 -23,59 1,126 23,40 77,33 0,0 72,69 201,49 35,-5 66,-20 92,-39 0,0 4,-14 5,-33 -23,17 -51,31 -85,37z"/>
    <path class="fil6" d="M1800 2110l-112 0c0,0 -7,31 -49,31 -43,0 -53,-31 -53,-31l-111 0c-19,0 -30,13 -30,30l0 62c58,30 123,47 193,47 69,0 135,-17 192,-47l0 -62c0,-17 -12,-30 -30,-30z"/>
    <path class="fil11" d="M1639 2141c42,0 49,-31 49,-31l-102 0c0,0 10,31 53,31z"/>
    <path class="fil14" d="M1429 1684c4,-31 18,-46 24,-52 1,7 2,12 3,15 -8,12 -17,25 -27,37z"/>
    <path class="fil15" d="M1497 1582c-3,-2 -5,-5 -6,-8 0,0 0,0 0,0l0 0c-1,-3 -1,-8 0,-12 7,-20 18,-44 22,-58 0,-1 0,-1 0,-1 0,-2 0,-3 0,-5l0 0c4,-2 8,-4 12,-6 0,1 0,3 0,4 -1,24 -11,54 -28,86z"/>
    <path class="fil14" d="M1456 1647c-1,-3 -2,-8 -3,-15 -1,-10 -2,-25 -2,-45 0,-25 8,-44 23,-59 5,-6 10,-10 16,-15 8,-5 16,-11 23,-15l0 0c0,2 0,3 0,5 0,0 0,0 0,1 -4,14 -15,38 -22,58 -1,4 -1,9 0,12l0 0c0,0 0,0 0,0 1,3 3,6 6,8 -11,21 -25,43 -41,65z"/>
    <rect class="fil9" x="2243" y="1443" width="1512.99" height="83.8187"/>
    <rect class="fil9" x="2243" y="1666" width="1157.77" height="39.2773"/>
    <rect class="fil9" x="2243" y="1829" width="1157.77" height="39.2773"/>
    <rect class="fil9" x="2243" y="1903" width="1157.77" height="39.2773"/>
    <rect class="fil9" x="2243" y="2037" width="1157.77" height="39.2773"/>
    <rect class="fil9" x="2243" y="2111" width="1157.77" height="39.2773"/>
    <rect class="fil9" x="2243" y="2185" width="1157.77" height="39.2773"/>
    <rect class="fil9" x="2243" y="2367" width="682.998" height="39.2773"/>
    <rect class="fil9" x="2243" y="2456" width="682.998" height="78.5619"/>
    <rect class="fil9" x="3073" y="2367" width="682.998" height="39.2773"/>
    <rect class="fil9" x="3073" y="2456" width="682.998" height="78.5619"/>
   </g>
  </g>
  <path class="fil16" d="M5596 2842l654 -9 181 361c42,84 34,186 -21,263l-343 474 0 675 -687 0 0 -744c-38,-75 -57,-217 -57,-301l0 -446c0,-151 122,-273 273,-273z"/>
  <path class="fil17" d="M6097 3678l-826 0c-36,0 -64,-27 -64,-60l0 -1662c0,-33 28,-59 64,-59l826 0c36,0 64,26 64,59l0 1662c0,33 -28,60 -64,60z"/>
  <polygon class="fil3" points="5251,3525 6117,3525 6117,2049 5251,2049 "/>
  <path class="fil18" d="M5748 1986l-128 0c-7,0 -12,-6 -12,-13 0,-7 5,-13 12,-13l128 0c7,0 12,6 12,13 0,7 -5,13 -12,13z"/>
  <path class="fil9" d="M5373 3300l234 0 0 20 -234 0 0 -20zm0 -24l234 0 0 10 -234 0 0 -10z"/>
  <path class="fil9" d="M5761 3300l234 0 0 20 -234 0 0 -20zm0 -24l234 0 0 10 -234 0 0 -10z"/>
  <path class="fil16" d="M6109 2704c71,-37 99,59 141,129l121 241c54,109 -36,234 -156,217l-149 -306c-60,-115 -53,-230 43,-281z"/>
  <path class="fil19" d="M6186 2709l71 136c9,18 2,39 -15,48l0 0c-43,23 -95,6 -118,-36l-16 -31c-24,-47 -6,-104 40,-128 14,-7 31,-2 38,11z"/>
  <polygon class="fil20" points="5304,4245 6163,4245 6163,4016 5304,4016 "/>
  <polygon class="fil17" points="6217,4158 5250,4158 5250,4868 6217,4868 "/>
  <path class="fil21" d="M5619 4474c48,0 86,-38 86,-86 0,-47 -38,-85 -86,-85 -47,0 -86,38 -86,85 0,48 39,86 86,86z"/>
  <path class="fil22" d="M5310 3346c47,32 56,99 20,147 -34,46 -98,55 -143,24l-85 -60c-46,-32 -61,-100 -28,-148 34,-48 103,-57 149,-25l87 62z"/>
  <path class="fil19" d="M5200 3491l-22 -15c-24,-17 -30,-50 -13,-74l30 -43c17,-24 50,-29 74,-13l21 15c36,25 45,75 20,110 -25,36 -75,45 -110,20z"/>
  <path class="fil22" d="M5363 2850c50,34 60,105 22,156 -37,49 -105,59 -152,25l-156 -109c-49,-34 -60,-103 -24,-153 35,-51 103,-64 152,-30l158 111z"/>
  <path class="fil19" d="M5246 3004l-23 -16c-25,-18 -31,-53 -14,-78l32 -46c18,-25 53,-31 78,-14l23 17c38,26 47,78 21,116 -27,38 -79,47 -117,21z"/>
  <path class="fil22" d="M5385 2600c47,33 56,102 18,152 -36,48 -101,59 -147,27l-148 -104c-47,-32 -56,-99 -21,-149l0 0c35,-50 101,-64 148,-32l150 106z"/>
  <path class="fil19" d="M5266 2750l-22 -16c-25,-17 -31,-52 -14,-77l32 -45c17,-25 52,-31 77,-14l22 16c38,26 47,78 21,116 -27,37 -78,46 -116,20z"/>
  <path class="fil22" d="M5371 3119c50,35 60,106 21,158 -37,49 -105,59 -153,26l-165 -116c-49,-34 -60,-103 -24,-154 36,-52 105,-65 153,-31l168 117z"/>
  <path class="fil19" d="M5251 3274l-23 -16c-25,-18 -32,-53 -14,-79l33 -46c18,-26 53,-32 79,-14l23 16c38,27 48,80 21,119l0 0c-27,38 -80,47 -119,20z"/>
  <g id="_1467781950624">
   <path class="fil6" d="M5251 2202l866 0 0 -53 -866 0 0 53zm866 -99l0 -54 -866 0 0 54 866 0z"/>
   <polygon class="fil8" points="5251,2149 6117,2149 6117,2103 5251,2103 "/>
  </g>
  <g id="_1467781950080">
   <path class="fil10" d="M5885 2500c0,111 -90,202 -201,202 -111,0 -201,-91 -201,-202 0,-111 90,-201 201,-201 111,0 201,90 201,201z"/>
   <polygon class="fil11" points="5659,2641 5708,2641 5708,2592 5659,2592 "/>
   <path class="fil12" d="M5760 2479c0,0 9,-12 27,-6 19,6 7,66 -27,71l0 -65z"/>
   <path class="fil11" d="M5768 2495c0,0 4,-11 13,-11 9,1 6,27 -13,42l0 -31z"/>
   <path class="fil12" d="M5604 2479c0,0 -9,-12 -27,-6 -19,6 -7,66 27,71l0 -65z"/>
   <path class="fil11" d="M5596 2495c0,0 -4,-11 -14,-11 -9,1 -6,27 14,42l0 -31z"/>
   <path class="fil12" d="M5684 2352c-28,0 -53,13 -70,33 0,0 -14,94 -2,150 10,45 47,70 67,73 2,0 3,0 5,0 50,0 90,-41 90,-90l0 -75c0,-50 -40,-91 -90,-91z"/>
   <path class="fil11" d="M5594 2518c0,48 38,87 85,90 -20,-3 -57,-28 -67,-73 -12,-56 2,-150 2,-150 -13,16 -20,36 -20,58l0 75z"/>
   <path class="fil11" d="M5630 2408c0,0 64,43 121,10 0,0 -119,-42 -120,-27 0,14 -1,17 -1,17z"/>
   <path class="fil6" d="M5605 2686c10,-9 16,-13 16,-14l-12 -17 -12 -18c-2,1 -14,10 -31,27 12,8 25,16 39,22z"/>
   <path class="fil6" d="M5802 2664c-17,-17 -29,-26 -31,-27l-12 18 -12 17c0,1 6,5 16,14 14,-6 27,-14 39,-22z"/>
   <path class="fil13" d="M5773 2402l-6 3c-8,-13 -30,-11 -30,-11 -2,18 19,32 19,32l1 33 17 26 0 0 0 0c28,-65 -1,-83 -1,-83z"/>
   <path class="fil13" d="M5596 2402l6 3c8,-13 30,-11 30,-11 2,18 -19,32 -19,32l-1 33 -17 26 0 0 -1 0c-27,-65 2,-83 2,-83z"/>
   <path class="fil9" d="M5613 2370c-2,5 3,11 9,11 4,-1 10,-1 17,0 19,4 40,33 95,23 17,-3 30,-9 41,-17 1,-22 -5,-58 -59,-65 -20,0 -42,1 -63,5 0,0 -13,4 -29,11 0,1 0,2 0,3 -2,7 -7,19 -11,29z"/>
   <path class="fil13" d="M5734 2404c-55,10 -76,-19 -95,-23 -7,-1 -13,-1 -17,0 -6,0 -11,-6 -9,-11 4,-10 9,-22 11,-29 0,-1 0,-2 0,-3 -4,2 -7,5 -11,8 -3,2 -6,4 -8,7 -7,7 -11,16 -11,29 0,60 11,19 37,15 0,0 35,34 97,24 17,-2 32,-9 45,-19 0,0 1,-6 2,-15 -11,8 -24,14 -41,17z"/>
   <path class="fil6" d="M5763 2635l-55 0c0,0 -3,15 -23,15 -21,0 -26,-15 -26,-15l-54 0c-9,0 -14,6 -14,14l0 30c28,14 59,23 93,23 34,0 65,-9 93,-23l0 -30c0,-8 -6,-14 -14,-14z"/>
   <path class="fil11" d="M5685 2650c20,0 23,-15 23,-15l-49 0c0,0 5,15 26,15z"/>
   <path class="fil14" d="M5583 2429c2,-15 9,-23 12,-26 0,4 1,6 1,8 -4,6 -8,12 -13,18z"/>
   <path class="fil15" d="M5616 2379c-1,-1 -2,-2 -3,-4 0,0 0,0 0,0l0 0c-1,-1 -1,-3 0,-5 4,-10 9,-22 11,-29 0,0 0,0 0,0 0,-1 0,-2 0,-3l0 0c2,-1 4,-1 6,-2 0,0 0,1 0,2 -1,11 -6,26 -14,41z"/>
   <path class="fil14" d="M5596 2411c0,-2 -1,-4 -1,-8 -1,-5 -1,-12 -1,-21 0,-13 4,-22 11,-29 2,-3 5,-5 8,-7 4,-3 7,-6 11,-8l0 0c0,1 0,2 0,3 0,0 0,0 0,0 -2,7 -7,19 -11,29 -1,2 -1,4 0,5l0 0c0,0 0,0 0,0 1,2 2,3 3,4 -5,10 -12,21 -20,32z"/>
  </g>
  <g id="_1467553646848">
   <polygon class="fil9" points="5561,3451 5570,3451 5570,3387 5561,3387 "/>
   <polygon class="fil9" points="5574,3451 5587,3451 5587,3387 5574,3387 "/>
   <polygon class="fil9" points="5590,3451 5594,3451 5594,3387 5590,3387 "/>
   <polygon class="fil9" points="5599,3451 5603,3451 5603,3387 5599,3387 "/>
   <polygon class="fil9" points="5607,3451 5616,3451 5616,3387 5607,3387 "/>
   <polygon class="fil9" points="5620,3451 5633,3451 5633,3387 5620,3387 "/>
   <polygon class="fil9" points="5636,3451 5640,3451 5640,3387 5636,3387 "/>
   <polygon class="fil9" points="5645,3451 5649,3451 5649,3387 5645,3387 "/>
   <polygon class="fil9" points="5687,3451 5696,3451 5696,3387 5687,3387 "/>
   <polygon class="fil9" points="5670,3451 5684,3451 5684,3387 5670,3387 "/>
   <polygon class="fil9" points="5663,3451 5667,3451 5667,3387 5663,3387 "/>
   <polygon class="fil9" points="5654,3451 5658,3451 5658,3387 5654,3387 "/>
   <polygon class="fil9" points="5701,3451 5710,3451 5710,3387 5701,3387 "/>
   <polygon class="fil9" points="5713,3451 5727,3451 5727,3387 5713,3387 "/>
   <polygon class="fil9" points="5730,3451 5734,3451 5734,3387 5730,3387 "/>
   <polygon class="fil9" points="5739,3451 5743,3451 5743,3387 5739,3387 "/>
   <polygon class="fil9" points="5747,3451 5756,3451 5756,3387 5747,3387 "/>
   <polygon class="fil9" points="5759,3451 5773,3451 5773,3387 5759,3387 "/>
   <polygon class="fil9" points="5776,3451 5780,3451 5780,3387 5776,3387 "/>
   <polygon class="fil9" points="5785,3451 5789,3451 5789,3387 5785,3387 "/>
   <polygon class="fil9" points="5803,3451 5807,3451 5807,3387 5803,3387 "/>
   <polygon class="fil9" points="5794,3451 5798,3451 5798,3387 5794,3387 "/>
  </g>
  <rect class="fil9" x="5373" y="2806" width="621.125" height="34.4101"/>
  <rect class="fil9" x="5446" y="2915" width="475.298" height="16.1245"/>
  <g id="_1432510905328">
   <rect class="fil9" x="5446" y="3005" width="475.298" height="16.1245"/>
   <rect class="fil9" x="5446" y="3035" width="475.298" height="16.1245"/>
  </g>
  <g id="_1432510906416">
   <rect class="fil9" x="5446" y="3125" width="475.298" height="16.1245"/>
   <rect class="fil9" x="5446" y="3156" width="475.298" height="16.1245"/>
   <rect class="fil9" x="5446" y="3186" width="475.298" height="16.1245"/>
  </g>
  <circle class="fil23" cx="4467" cy="595" r="595"/>
  <circle class="fil8" cx="4467" cy="595" r="511"/>
  <polygon class="fil24" points="4353,728 4228,624 4153,705 4368,903 4782,359 4692,286 "/>
 </g>
</svg>
