<svg width="57" height="56" viewBox="0 0 57 56" fill="none" xmlns="http://www.w3.org/2000/svg">
<path fill-rule="evenodd" clip-rule="evenodd" d="M50.0555 7.88558C49.898 7.75584 49.6986 7.68473 49.4955 7.68473C49.2247 7.68473 48.9712 7.80823 48.8001 8.02155L44.9943 12.8082L43.3781 11.1702C43.2095 10.9993 42.9855 10.9045 42.7467 10.9045C42.5079 10.9045 42.2839 10.9993 42.1153 11.1702C41.7682 11.522 41.7682 12.0971 42.1153 12.4489L44.4342 14.7991C44.6028 14.9701 44.8269 15.0636 45.0657 15.0636C45.0817 15.0636 45.0977 15.0636 45.1124 15.0624C45.366 15.0486 45.6011 14.9264 45.7599 14.7268L50.1897 9.15801C50.3399 8.96964 50.4088 8.73387 50.383 8.4931C50.3571 8.25358 50.2414 8.03777 50.0555 7.88558ZM57 11.1902L56.9705 11.3349C56.8572 11.8938 56.5901 12.404 56.1963 12.8131C55.9526 13.0976 55.7655 13.4207 55.6387 13.7737C55.571 14.1592 55.5722 14.5497 55.6448 14.9339C55.7765 15.4678 55.7581 16.0267 55.5931 16.5506L55.5464 16.6978L55.4442 16.8138C55.0737 17.2293 54.5986 17.5274 54.0681 17.6796C53.7087 17.8056 53.3801 17.9952 53.0896 18.2435C52.9936 18.3582 52.9074 18.4792 52.8299 18.6065C53.9549 21.6566 54.5445 24.9175 54.5445 28.272C54.5445 35.6322 51.716 42.552 46.5808 47.7565C41.4457 52.9623 34.6194 55.8278 27.3573 55.8278C20.0953 55.8278 13.2677 52.9623 8.13257 47.7565C2.99744 42.552 0.170166 35.6322 0.170166 28.272C0.170166 20.9106 2.99744 13.9908 8.13257 8.78626C13.2677 3.58175 20.0953 0.71502 27.3573 0.71502C31.6505 0.71502 35.7911 1.718 39.5206 3.61293C39.6006 3.46323 39.6696 3.30605 39.7262 3.14388C39.8751 2.60496 40.1705 2.12343 40.5816 1.74794L40.6949 1.6444L40.8413 1.59699C41.3583 1.42983 41.9097 1.41112 42.4365 1.5446C42.8156 1.6182 43.1997 1.6207 43.58 1.55084C43.9283 1.42235 44.2483 1.23273 44.529 0.984477C44.9315 0.586529 45.4349 0.315824 45.9863 0.201055L46.1291 0.172363L46.2719 0.201055C46.8233 0.315824 47.3279 0.587776 47.7304 0.985725C48.0111 1.23273 48.3299 1.42235 48.6794 1.55084C49.0585 1.6207 49.4438 1.61945 49.8229 1.5446C50.3497 1.41237 50.9011 1.42983 51.4181 1.59699L51.5633 1.6444L51.6778 1.74919C52.0877 2.12343 52.3831 2.60496 52.532 3.14263C52.6563 3.5069 52.8434 3.84122 53.0884 4.13563C53.3788 4.38388 53.7075 4.5735 54.0681 4.69949C54.5986 4.85044 55.075 5.15108 55.4442 5.5665L55.5464 5.68127L55.5931 5.82847C55.7593 6.35366 55.7765 6.91254 55.6448 7.44646C55.5722 7.83069 55.571 8.22115 55.6399 8.60538C55.7655 8.95966 55.9538 9.28276 56.1975 9.56719C56.5901 9.97512 56.8572 10.4866 56.9705 11.0455L57 11.1902ZM41.4285 49.7363C41.4272 49.7126 41.426 49.6914 41.426 49.6702C41.426 46.2757 40.0413 43.051 37.5254 40.591C35.0182 38.1384 31.6505 36.6976 28.0429 36.5354C27.8103 36.5516 27.5789 36.5591 27.3573 36.5591C27.1345 36.5591 26.9031 36.5516 26.6705 36.5354C23.0629 36.6976 19.6965 38.1384 17.188 40.591C14.6733 43.051 13.2874 46.2757 13.2874 49.6702C13.2874 49.6914 13.2862 49.7126 13.2849 49.7363C17.4637 52.5593 22.328 54.0526 27.3573 54.0526C32.3854 54.0526 37.2509 52.5593 41.4285 49.7363ZM26.7013 34.7564C26.9388 34.7477 27.1542 34.7427 27.3573 34.7427C27.5604 34.7427 27.7746 34.7477 28.0134 34.7564C30.0664 34.5918 31.973 33.6537 33.3836 32.1155C34.8028 30.5661 35.5844 28.5527 35.5844 26.4432C35.5844 21.845 31.8943 18.1037 27.3573 18.1037C22.8204 18.1037 19.129 21.845 19.129 26.4432C19.129 28.5527 19.9106 30.5661 21.3298 32.1155C22.7404 33.6537 24.6482 34.5918 26.7013 34.7564ZM52.7917 28.272C52.7917 25.6199 52.3929 23.0613 51.6544 20.6524L51.5633 20.7359L51.4181 20.7833C51.3996 20.7883 51.3812 20.7933 51.3627 20.7983V29.1702L46.1217 25.7596L40.8795 29.1702V20.7933C40.8672 20.7896 40.8524 20.7858 40.8389 20.7821L40.6949 20.7347L40.5816 20.6312C40.1718 20.2557 39.8764 19.7741 39.7262 19.2365C39.6019 18.8722 39.4148 18.5391 39.1698 18.2447C38.8794 17.9965 38.5507 17.8068 38.1913 17.6808C37.6596 17.5287 37.1845 17.2293 36.814 16.8138L36.7118 16.6978L36.665 16.5506C36.5001 16.0267 36.4816 15.4678 36.6133 14.9339C36.686 14.5484 36.6872 14.1592 36.6195 13.7737C36.4927 13.4194 36.3056 13.0963 36.0619 12.8119C35.6693 12.404 35.4022 11.8938 35.2889 11.3349L35.2594 11.1902L35.2889 11.0455C35.4022 10.4853 35.6693 9.97512 36.0619 9.56719C36.3056 9.28276 36.4927 8.95966 36.6195 8.60538C36.6884 8.2199 36.686 7.83069 36.6133 7.44521C36.4829 6.91129 36.5001 6.35366 36.6663 5.82847L36.7118 5.68127L36.8152 5.5665C37.1118 5.23217 37.4786 4.97519 37.8861 4.80678C34.676 3.32102 31.1102 2.49144 27.3573 2.49144C13.3317 2.49144 1.92167 14.0556 1.92167 28.272C1.92167 32.2989 2.81774 36.1586 4.58278 39.7439C6.24198 43.1146 8.66184 46.1348 11.5864 48.4838C12.0959 42.411 16.5406 37.1891 22.7194 35.3977C21.1661 34.5693 19.854 33.3393 18.9136 31.8311C17.908 30.2181 17.3775 28.3556 17.3775 26.4432C17.3775 20.8657 21.8542 16.3286 27.3573 16.3286C32.8605 16.3286 37.3371 20.8657 37.3371 26.4432C37.3371 28.3556 36.8054 30.2193 35.7998 31.8311C34.8594 33.3393 33.5473 34.5693 31.9952 35.3977C38.1741 37.1891 42.6187 42.411 43.1283 48.4838C46.0516 46.1348 48.4714 43.1146 50.1318 39.7439C51.8969 36.1586 52.7917 32.2989 52.7917 28.272ZM46.1217 23.8771L49.7995 26.271V20.8307C49.4278 20.7609 49.0512 20.7609 48.6794 20.8295C48.3299 20.958 48.0111 21.1476 47.7304 21.3946C47.3267 21.7926 46.8233 22.0633 46.2719 22.178L46.1291 22.208L45.9863 22.178C45.4349 22.0633 44.9315 21.7926 44.5278 21.3934C44.2422 21.1426 43.9172 20.9505 43.5615 20.822C43.4298 20.7896 43.2932 20.7746 43.1578 20.7759C42.919 20.7808 42.679 20.8021 42.4427 20.8357V26.271L46.1217 23.8771ZM55.1537 11.3748C55.0848 11.1478 54.9642 10.9419 54.798 10.7723L54.7709 10.7423C54.4029 10.3182 54.1247 9.8329 53.9438 9.29898L53.9278 9.25531L53.9192 9.20791C53.8096 8.64155 53.8096 8.06646 53.9192 7.49885L53.9278 7.46018C53.9832 7.24187 53.9881 7.01608 53.9426 6.79652C53.7752 6.64432 53.5758 6.53205 53.3567 6.47217L53.3173 6.4597C52.7819 6.27632 52.2944 5.99189 51.8686 5.61515L51.8329 5.58396L51.8021 5.54903C51.4316 5.11615 51.151 4.62215 50.97 4.07949L50.9577 4.04082C50.8987 3.81877 50.7891 3.61667 50.6377 3.44702C50.4223 3.40211 50.1983 3.4071 49.9829 3.46199L49.946 3.47072C49.3859 3.58424 48.8185 3.58424 48.2572 3.47072L48.2117 3.46199L48.1686 3.44702C47.6418 3.26364 47.163 2.9817 46.7457 2.60871L46.7162 2.58126C46.5488 2.41285 46.3445 2.28935 46.1217 2.21949C45.8977 2.28935 45.6946 2.4116 45.5272 2.58001L45.4977 2.60746C45.0792 2.98046 44.6004 3.26239 44.0736 3.44577L44.0305 3.46199L43.9849 3.47072C43.4249 3.58299 42.8575 3.58299 42.2962 3.47072L42.2593 3.46199C42.0439 3.40585 41.8211 3.40086 41.6045 3.44702C41.4543 3.61667 41.3435 3.81877 41.2844 4.04082L41.2721 4.08074C41.0912 4.6234 40.8106 5.1174 40.4401 5.54903L40.4093 5.58521L40.3736 5.6164C39.9477 5.99189 39.4603 6.27632 38.9249 6.4597L38.8855 6.47217C38.6676 6.5333 38.467 6.64432 38.3008 6.79652C38.2553 7.01483 38.2602 7.24187 38.3156 7.46018L38.3242 7.49885C38.4338 8.06646 38.4338 8.64155 38.3242 9.20791L38.3156 9.25531L38.2996 9.30022C38.1187 9.8329 37.8405 10.3182 37.4725 10.7423L37.4454 10.7723C37.2792 10.9419 37.1574 11.1478 37.0884 11.3748C37.1574 11.6006 37.2792 11.8077 37.4454 11.9773L37.4725 12.0073C37.8405 12.4302 38.1187 12.9167 38.2996 13.4494L38.3144 13.4943L38.323 13.5404C38.4338 14.108 38.4338 14.6831 38.323 15.2507L38.3144 15.2894C38.259 15.5077 38.2541 15.7335 38.2996 15.9518C38.467 16.1053 38.6676 16.2163 38.8867 16.2774L38.9249 16.2899C39.4603 16.4733 39.9477 16.7577 40.3736 17.1332L40.4093 17.1644L40.4401 17.2006C40.8118 17.6322 41.0912 18.1262 41.2734 18.6688L41.2844 18.7088C41.3447 18.9296 41.4543 19.1329 41.6057 19.3026C41.8211 19.3487 42.0451 19.3437 42.2605 19.2876L42.2937 19.2789L42.3282 19.2739C42.6298 19.2265 42.9375 19.199 43.244 19.1928H43.2501C43.2624 19.1928 43.2747 19.1928 43.2858 19.1928C43.5344 19.1928 43.7818 19.224 44.0219 19.2864L44.0748 19.3026C44.6004 19.486 45.0792 19.7679 45.4977 20.1409L45.526 20.1683C45.6946 20.3367 45.8977 20.4602 46.1217 20.5301C46.3445 20.4602 46.5488 20.3367 46.7162 20.1683L46.7445 20.1409C47.163 19.7691 47.6418 19.486 48.1686 19.3026L48.2129 19.2876L48.2585 19.2789C48.8185 19.1666 49.3859 19.1666 49.946 19.2789L49.9829 19.2876C50.1983 19.3425 50.4223 19.3475 50.6377 19.3026C50.7891 19.1329 50.8987 18.9296 50.959 18.7075L50.97 18.6688C51.1522 18.1262 51.4316 17.6322 51.8033 17.2006L51.8341 17.1644L51.8698 17.1332C52.2957 16.7565 52.7831 16.4733 53.3185 16.2886L53.3567 16.2774C53.5758 16.2163 53.7752 16.1053 53.9426 15.9518C53.9881 15.7335 53.9832 15.5077 53.9278 15.2894L53.9192 15.2507C53.8084 14.6831 53.8084 14.108 53.9192 13.5404L53.9278 13.4943L53.9426 13.4494C54.1247 12.9167 54.4029 12.4314 54.7697 12.0073L54.7968 11.9773C54.9629 11.8077 55.0848 11.6018 55.1537 11.3748Z" fill="url(#paint0_radial)"/>
<defs>
<radialGradient id="paint0_radial" cx="0" cy="0" r="1" gradientUnits="userSpaceOnUse" gradientTransform="translate(-13.6092 48.9817) rotate(-57.7511) scale(50.3699 50.8338)">
<stop stop-color="#50E3C2"/>
<stop offset="1" stop-color="#0045D8"/>
</radialGradient>
</defs>
</svg>
