<svg id="svg" version="1.1" xmlns="http://www.w3.org/2000/svg" xmlns:xlink="http://www.w3.org/1999/xlink" width="400" height="300" viewBox="0, 0, 400,300"><g id="svgg"><path id="path0" d="M59.391 46.189 L 58.512 47.068 58.588 150.292 L 58.665 253.515 59.392 254.289 L 60.120 255.064 198.361 255.064 L 336.603 255.064 337.394 254.441 L 338.186 253.819 338.110 162.543 L 338.035 71.268 314.053 71.118 C 289.779 70.966,288.623 70.908,290.454 69.927 C 291.061 69.602,291.073 69.395,291.073 58.804 L 291.073 48.012 313.575 48.012 L 336.077 48.012 336.155 58.890 L 336.234 69.767 337.209 69.861 L 338.185 69.956 338.185 58.254 L 338.185 46.552 337.313 45.932 C 336.420 45.296,282.831 44.936,274.194 45.508 L 271.268 45.702 271.305 47.682 C 271.326 48.771,271.429 50.608,271.535 51.763 L 271.728 53.863 271.965 52.445 C 272.165 51.252,272.757 50.136,272.773 50.920 C 272.776 51.054,272.982 52.108,273.230 53.263 C 273.571 54.850,273.673 57.214,273.646 62.935 L 273.611 70.507 274.554 71.449 C 275.072 71.967,275.452 72.435,275.399 72.488 C 275.346 72.541,274.928 72.779,274.469 73.017 L 273.636 73.449 273.577 83.060 L 273.518 92.670 274.569 92.836 C 275.146 92.927,276.745 93.094,278.122 93.208 C 281.819 93.513,282.728 96.011,279.299 96.446 C 276.784 96.765,274.779 97.504,275.165 97.970 C 275.818 98.757,275.658 158.760,275.002 159.127 C 274.531 159.391,274.643 159.490,275.786 159.832 C 277.914 160.469,277.869 160.514,277.869 157.711 C 277.869 154.507,278.378 153.919,280.872 154.239 C 282.791 154.485,282.960 154.747,282.966 157.484 C 282.973 160.628,283.143 160.840,285.662 160.840 C 288.877 160.840,289.272 161.084,289.272 163.073 C 289.272 165.124,288.944 165.341,285.852 165.341 C 283.097 165.341,282.971 165.497,282.971 168.886 C 282.971 171.603,282.852 171.778,280.823 172.042 C 278.504 172.344,277.869 171.613,277.869 168.638 C 277.869 165.929,277.822 165.865,276.115 166.298 C 274.910 166.604,274.872 166.648,275.344 167.170 C 275.647 167.504,275.761 167.930,275.636 168.256 C 275.523 168.551,275.239 169.790,275.006 171.010 C 274.004 176.248,270.855 179.286,265.650 180.039 C 262.167 180.543,248.593 180.433,248.057 179.897 C 247.659 179.499,247.587 179.548,247.417 180.324 C 247.104 181.747,243.661 181.926,243.661 180.519 C 243.661 180.296,243.464 179.734,243.223 179.270 L 242.785 178.426 238.497 178.500 L 234.209 178.575 233.415 179.535 L 232.622 180.495 224.113 180.332 C 214.995 180.157,215.002 180.158,210.953 178.322 L 209.302 177.574 210.447 177.051 L 211.591 176.528 206.246 176.178 C 198.761 175.688,198.293 175.620,197.604 174.931 C 197.002 174.330,196.998 173.983,196.849 109.894 L 196.699 45.461 128.485 45.386 L 60.270 45.310 59.391 46.189 M190.998 59.565 L 190.998 70.968 126.032 70.968 L 61.065 70.968 60.986 59.866 C 60.943 53.760,60.973 48.595,61.052 48.388 C 61.168 48.086,74.227 48.026,126.097 48.086 L 190.998 48.162 190.998 59.565 M68.335 55.445 C 65.297 58.502,65.296 58.704,68.314 61.663 C 71.341 64.633,71.717 64.647,74.486 61.899 L 76.519 59.881 78.552 61.899 C 81.302 64.627,81.848 64.633,84.438 61.965 C 85.480 60.893,86.404 60.015,86.493 60.015 C 86.581 60.015,87.527 60.893,88.595 61.965 C 91.273 64.657,91.754 64.639,94.701 61.740 C 97.718 58.773,97.717 58.349,94.694 55.336 C 92.173 52.822,91.079 52.484,89.809 53.824 L 89.145 54.525 89.911 55.191 C 90.332 55.558,90.864 55.786,91.092 55.698 C 93.252 54.869,95.054 58.382,93.447 60.292 C 91.427 62.692,87.657 60.457,88.767 57.518 C 88.952 57.027,89.032 56.511,88.945 56.370 C 88.679 55.940,87.314 56.086,87.130 56.564 C 86.832 57.342,86.327 57.066,84.381 55.061 C 81.797 52.399,81.201 52.399,78.642 55.064 C 76.740 57.045,76.121 57.373,75.810 56.564 C 75.643 56.128,74.398 55.934,74.044 56.289 C 73.948 56.385,74.067 56.935,74.308 57.512 C 75.199 59.644,72.990 61.928,70.781 61.158 C 67.960 60.174,68.615 55.858,71.609 55.702 C 72.082 55.678,72.793 55.429,73.189 55.150 L 73.910 54.643 73.189 53.883 C 71.883 52.507,70.962 52.803,68.335 55.445 M287.022 61.536 C 287.022 68.272,286.980 68.867,286.497 68.960 C 285.953 69.065,285.643 54.742,286.178 54.207 C 286.896 53.489,287.022 54.582,287.022 61.536 M82.656 55.939 C 85.847 57.272,84.396 61.566,80.870 61.227 C 78.200 60.970,78.167 56.244,80.832 55.721 C 81.183 55.652,81.508 55.577,81.555 55.555 C 81.602 55.532,82.097 55.705,82.656 55.939 M294.798 94.416 C 295.320 95.776,294.815 96.024,291.520 96.024 C 288.227 96.024,287.891 95.886,288.200 94.657 C 288.438 93.706,294.442 93.487,294.798 94.416 M308.627 94.974 L 308.627 95.874 305.480 95.874 C 302.683 95.874,302.322 95.814,302.229 95.331 C 301.978 94.028,302.299 93.898,305.546 93.988 L 308.627 94.074 308.627 94.974 M317.017 96.691 C 317.061 99.178,316.775 99.995,315.903 99.871 C 314.915 99.730,314.791 97.164,315.688 95.406 C 316.525 93.765,316.973 94.197,317.017 96.691 M231.083 102.579 C 230.816 103.077,230.559 103.187,229.995 103.046 C 229.336 102.881,229.257 102.955,229.257 103.745 C 229.257 104.401,229.060 104.720,228.496 104.977 C 227.593 105.388,227.731 105.780,229.450 107.695 C 230.620 108.998,231.449 109.248,231.904 108.435 C 232.091 108.100,232.432 107.990,232.969 108.093 C 233.586 108.211,233.758 108.125,233.758 107.701 C 233.758 107.258,233.470 107.142,232.183 107.067 C 230.653 106.979,230.608 106.951,230.608 106.077 C 230.608 105.013,233.596 104.456,233.912 105.461 C 234.394 106.992,234.420 106.999,234.987 105.776 C 235.723 104.188,235.699 103.611,234.885 103.352 C 234.514 103.235,234.042 102.922,233.835 102.657 C 233.494 102.221,233.415 102.232,232.993 102.776 C 232.532 103.371,232.524 103.370,231.980 102.652 L 231.431 101.928 231.083 102.579 M316.836 107.802 C 317.159 108.701,316.998 113.430,316.632 113.796 C 315.535 114.893,314.362 109.727,315.208 107.523 C 315.459 106.870,316.570 107.060,316.836 107.802 M316.914 121.905 C 316.944 122.474,316.931 125.411,316.890 127.307 C 316.882 127.688,316.632 127.832,315.979 127.832 L 315.079 127.832 315.079 124.731 C 315.079 121.382,315.126 121.230,316.179 121.230 C 316.695 121.230,316.888 121.408,316.914 121.905 M316.940 135.859 C 317.163 136.749,316.902 141.432,316.614 141.720 C 315.639 142.696,315.230 141.817,315.144 138.556 L 315.058 135.334 315.934 135.334 C 316.518 135.334,316.853 135.509,316.940 135.859 M316.828 149.812 C 317.514 151.795,316.868 156.122,315.905 155.985 C 315.239 155.890,314.696 150.869,315.208 149.534 C 315.459 148.879,316.571 149.070,316.828 149.812 M316.939 163.766 C 317.011 164.055,317.031 165.304,316.983 166.542 C 316.935 167.779,316.892 169.029,316.887 169.317 C 316.881 169.699,316.633 169.842,315.979 169.842 L 315.079 169.842 315.079 166.742 C 315.079 165.036,315.169 163.551,315.279 163.441 C 315.688 163.032,316.812 163.252,316.939 163.766 M287.172 168.474 C 287.172 168.712,287.031 168.994,286.859 169.100 C 286.471 169.340,285.617 168.674,285.842 168.308 C 286.111 167.873,287.172 168.006,287.172 168.474 M316.939 177.869 C 317.171 178.809,316.928 183.417,316.632 183.714 C 315.638 184.707,315.230 183.844,315.144 180.567 L 315.058 177.344 315.934 177.344 C 316.518 177.344,316.852 177.519,316.939 177.869 M293.116 185.511 C 293.242 186.177,291.848 186.566,291.215 186.040 C 290.865 185.749,290.843 185.573,291.118 185.241 C 291.592 184.670,292.992 184.859,293.116 185.511 M246.187 188.029 C 246.810 188.268,246.879 193.437,246.270 194.270 C 245.148 195.804,244.421 194.805,244.261 191.507 C 244.087 187.916,244.403 187.345,246.187 188.029 M316.841 191.823 C 317.092 192.509,317.010 196.972,316.733 197.695 C 316.650 197.913,316.277 198.048,315.905 197.996 C 315.239 197.901,314.696 192.879,315.208 191.544 C 315.458 190.892,316.570 191.081,316.841 191.823 M246.519 205.048 C 246.580 208.044,246.163 208.999,244.936 208.666 C 244.291 208.490,244.261 208.344,244.261 205.348 L 244.261 202.214 245.363 202.307 L 246.465 202.401 246.519 205.048 M316.939 205.776 C 317.011 206.065,317.031 207.314,316.983 208.552 C 316.935 209.790,316.892 211.039,316.887 211.328 C 316.881 211.709,316.633 211.853,315.979 211.853 L 315.079 211.853 315.079 208.752 C 315.079 207.047,315.169 205.561,315.279 205.451 C 315.688 205.042,316.812 205.262,316.939 205.776 M246.039 216.334 C 246.348 216.529,246.478 217.300,246.505 219.105 C 246.551 222.104,246.322 222.726,245.216 222.599 C 244.413 222.506,244.411 222.497,244.324 219.677 C 244.212 216.031,244.543 215.387,246.039 216.334 M316.939 219.880 C 317.171 220.819,316.928 225.427,316.632 225.724 C 315.638 226.717,315.230 225.855,315.144 222.577 L 315.058 219.355 315.934 219.355 C 316.518 219.355,316.852 219.529,316.939 219.880 M246.518 230.876 C 247.919 233.014,246.998 234.872,245.200 233.535 C 243.915 232.579,243.870 230.158,245.138 230.158 C 245.766 230.158,246.193 230.380,246.518 230.876 M261.198 232.651 C 261.610 233.825,261.127 234.048,258.164 234.054 C 254.748 234.060,254.255 233.769,255.080 232.227 C 255.653 231.157,260.799 231.513,261.198 232.651 M275.045 232.407 C 275.399 233.814,275.107 233.991,272.373 234.029 C 268.922 234.078,268.414 233.788,269.049 232.133 C 269.403 231.212,274.807 231.459,275.045 232.407 M288.912 232.018 C 289.453 232.559,289.351 233.697,288.747 233.860 C 285.667 234.691,282.472 233.690,283.088 232.086 C 283.301 231.529,288.364 231.470,288.912 232.018 M303.208 232.651 C 303.620 233.825,303.137 234.048,300.175 234.054 C 296.758 234.060,296.266 233.769,297.091 232.227 C 297.664 231.157,302.809 231.513,303.208 232.651 M315.014 232.179 C 317.096 233.511,316.743 234.003,313.678 234.037 C 310.968 234.068,310.459 233.698,311.060 232.133 C 311.317 231.462,313.942 231.493,315.014 232.179 " stroke="none" fill="#f3f5f5" fill-rule="evenodd"></path><path id="path1" d="M324.606 13.805 C 323.207 15.247,322.881 15.773,322.881 16.583 C 322.881 18.020,320.844 20.037,319.954 19.481 C 319.424 19.151,319.211 19.250,318.113 20.337 L 316.872 21.566 317.542 22.036 L 318.213 22.506 317.527 22.986 L 316.840 23.467 317.685 24.328 C 318.150 24.802,318.833 25.193,319.205 25.198 C 319.718 25.204,319.880 25.382,319.880 25.939 C 319.880 26.902,320.388 27.183,321.049 26.585 C 321.643 26.047,321.980 26.225,321.980 27.077 C 321.980 27.391,322.453 28.093,323.031 28.638 C 324.134 29.678,324.435 31.034,323.721 31.748 C 323.449 32.020,319.089 32.108,305.940 32.108 L 288.519 32.108 287.643 31.058 C 287.096 30.402,286.502 30.008,286.060 30.008 C 285.671 30.008,285.275 29.805,285.180 29.557 C 285.085 29.310,284.705 29.107,284.335 29.107 C 283.966 29.107,283.420 28.837,283.121 28.507 C 282.430 27.744,281.711 27.744,281.020 28.507 C 280.326 29.274,279.480 29.274,279.070 28.507 C 278.779 27.964,278.441 27.907,275.490 27.907 C 272.871 27.907,272.198 27.819,272.060 27.457 C 271.803 26.789,263.231 26.789,262.974 27.457 C 262.713 28.139,219.621 28.139,219.055 27.457 C 218.508 26.798,210.600 26.798,210.053 27.457 C 209.759 27.811,208.918 27.907,206.126 27.907 C 202.906 27.907,202.519 27.966,201.988 28.536 L 201.402 29.165 201.066 28.536 C 200.478 27.437,198.568 27.665,197.537 28.957 C 197.069 29.545,196.428 30.007,196.083 30.007 C 195.744 30.007,195.008 30.480,194.449 31.058 L 193.431 32.108 123.754 32.108 C 62.096 32.108,54.058 32.160,53.905 32.558 C 53.766 32.920,53.091 33.008,50.454 33.008 C 47.817 33.008,47.142 33.096,47.003 33.458 C 46.908 33.706,46.493 33.908,46.081 33.908 C 45.640 33.908,45.201 34.155,45.011 34.509 C 44.765 34.968,44.383 35.109,43.382 35.109 C 42.497 35.109,42.019 35.254,41.902 35.559 C 41.807 35.806,41.425 36.009,41.052 36.009 C 40.661 36.009,39.993 36.439,39.467 37.029 C 38.968 37.590,38.222 38.096,37.809 38.154 C 37.284 38.228,37.029 38.476,36.957 38.980 C 36.901 39.377,36.192 40.347,35.382 41.136 C 34.181 42.307,33.908 42.763,33.908 43.605 C 33.908 44.173,33.706 44.806,33.458 45.011 C 33.120 45.292,33.008 46.048,33.008 48.058 C 33.008 50.158,32.912 50.769,32.558 50.904 C 32.187 51.047,32.108 51.832,32.108 55.385 C 32.108 59.386,32.065 59.717,31.508 60.015 C 30.911 60.334,30.908 60.706,30.833 151.623 L 30.758 242.911 30.141 242.999 C 29.802 243.047,29.274 242.811,28.969 242.474 C 28.249 241.678,27.867 241.701,26.901 242.596 C 25.948 243.480,25.908 243.834,26.715 244.266 C 27.505 244.689,27.170 245.215,26.152 245.149 C 24.339 245.032,24.006 245.141,24.006 245.849 C 24.006 246.663,21.690 249.062,20.904 249.062 C 19.564 249.062,18.416 251.480,19.485 252.052 C 19.804 252.223,20.108 252.734,20.160 253.188 C 20.235 253.836,20.432 254.034,21.080 254.108 C 21.706 254.180,21.905 254.366,21.905 254.874 C 21.905 255.734,22.443 256.264,23.316 256.264 C 23.854 256.264,24.006 256.431,24.006 257.024 C 24.006 257.485,24.212 257.847,24.531 257.946 C 25.502 258.246,25.956 258.579,25.964 258.998 C 25.979 259.744,26.446 260.196,27.108 260.104 C 27.603 260.036,27.782 260.193,27.861 260.765 C 28.059 262.202,28.482 262.313,29.504 261.200 C 30.869 259.712,30.908 259.786,30.908 263.869 C 30.908 267.193,30.969 267.630,31.508 268.117 C 32.053 268.610,32.108 269.041,32.108 272.824 C 32.108 276.249,32.188 277.019,32.558 277.161 C 32.914 277.297,33.008 277.925,33.008 280.162 C 33.008 282.399,33.102 283.026,33.458 283.162 C 33.746 283.273,33.908 283.735,33.908 284.444 C 33.908 285.318,34.131 285.770,34.959 286.572 C 35.536 287.132,36.009 287.833,36.009 288.131 C 36.009 288.847,39.453 292.273,40.173 292.273 C 40.483 292.273,40.905 292.476,41.110 292.723 C 41.326 292.983,41.980 293.173,42.657 293.173 C 43.423 293.173,43.890 293.330,44.003 293.623 C 44.113 293.912,44.577 294.074,45.297 294.074 C 46.038 294.074,46.603 294.277,46.962 294.674 C 47.385 295.141,47.886 295.274,49.227 295.274 C 50.480 295.274,50.996 295.396,51.121 295.724 C 51.269 296.108,52.435 296.174,59.073 296.174 C 65.711 296.174,66.878 296.240,67.025 296.624 C 67.288 297.310,329.514 297.310,330.083 296.624 C 330.397 296.246,331.664 296.174,338.035 296.174 C 344.405 296.174,345.672 296.102,345.986 295.724 C 346.231 295.429,346.900 295.274,347.927 295.274 C 349.113 295.274,349.626 295.128,350.038 294.674 C 350.403 294.270,350.962 294.074,351.744 294.074 C 352.501 294.074,352.967 293.916,353.080 293.623 C 353.193 293.329,353.660 293.173,354.430 293.173 C 355.400 293.173,355.770 292.988,356.529 292.123 C 357.037 291.545,357.723 291.073,358.056 291.073 C 358.821 291.073,360.990 288.930,360.990 288.174 C 360.990 287.861,361.260 287.374,361.590 287.091 C 361.920 286.809,362.191 286.323,362.191 286.011 C 362.191 285.700,362.393 285.277,362.641 285.071 C 362.936 284.826,363.091 284.156,363.091 283.121 C 363.091 282.085,363.245 281.416,363.541 281.170 C 363.836 280.925,363.991 280.257,363.991 279.230 C 363.991 278.044,364.137 277.530,364.591 277.119 C 365.141 276.621,365.191 276.195,365.191 272.008 C 365.191 268.314,365.277 267.369,365.641 267.067 C 366.037 266.738,366.092 262.029,366.092 228.011 C 366.092 193.903,366.145 189.308,366.542 189.156 C 366.789 189.061,366.992 188.702,366.992 188.359 C 366.992 188.016,367.275 187.435,367.620 187.067 L 368.248 186.398 367.620 186.062 C 367.257 185.867,366.992 185.429,366.992 185.022 C 366.992 184.636,366.789 184.151,366.542 183.946 C 366.144 183.616,366.092 176.412,366.092 122.426 C 366.092 68.350,366.039 61.260,365.641 61.107 C 365.267 60.963,365.191 60.124,365.191 56.134 C 365.191 51.641,365.153 51.313,364.591 51.013 C 364.096 50.748,363.991 50.384,363.991 48.934 C 363.991 47.648,363.870 47.130,363.541 47.003 C 363.211 46.877,363.091 46.356,363.091 45.053 C 363.091 43.749,362.971 43.229,362.641 43.102 C 362.393 43.007,362.191 42.614,362.191 42.229 C 362.191 41.824,361.754 41.105,361.155 40.525 C 360.586 39.973,360.080 39.237,360.030 38.890 C 359.977 38.516,359.684 38.223,359.309 38.169 C 358.962 38.120,358.227 37.614,357.675 37.044 C 357.095 36.446,356.376 36.009,355.971 36.009 C 355.585 36.009,355.192 35.806,355.097 35.559 C 354.986 35.270,354.523 35.109,353.803 35.109 C 353.062 35.109,352.497 34.905,352.138 34.509 C 351.839 34.179,351.293 33.908,350.923 33.908 C 350.554 33.908,350.174 33.706,350.079 33.458 C 349.940 33.096,349.263 33.008,346.611 33.008 C 344.013 33.008,343.263 32.914,343.067 32.564 C 342.861 32.196,341.658 32.106,336.075 32.039 L 329.332 31.958 329.240 30.678 C 329.159 29.563,329.265 29.299,330.065 28.626 C 330.610 28.168,330.983 27.567,330.983 27.148 C 330.983 26.217,331.525 25.913,332.007 26.572 C 332.496 27.240,333.083 26.894,333.083 25.939 C 333.083 25.373,333.242 25.206,333.777 25.206 C 335.307 25.206,336.621 22.841,335.109 22.810 C 334.681 22.802,334.885 22.206,335.316 22.206 C 336.258 22.206,336.093 21.487,334.861 20.232 C 333.641 18.989,333.538 18.943,333.018 19.414 C 332.205 20.150,330.083 18.086,330.083 16.559 C 330.083 15.721,329.773 15.215,328.374 13.769 C 326.322 11.648,326.702 11.644,324.606 13.805 M353.188 15.436 C 353.188 15.674,353.309 15.943,353.457 16.035 C 353.766 16.225,354.138 15.454,353.868 15.183 C 353.546 14.861,353.188 14.994,353.188 15.436 M354.280 23.014 C 353.922 23.373,354.087 24.006,354.539 24.006 C 354.786 24.006,354.989 23.811,354.989 23.574 C 354.989 23.072,354.560 22.734,354.280 23.014 M269.104 34.701 C 270.277 35.015,270.730 36.423,271.016 40.651 C 271.162 42.802,271.315 44.671,271.356 44.806 C 271.397 44.941,286.110 45.076,304.051 45.106 L 336.670 45.161 337.502 45.993 L 338.335 46.825 338.420 58.253 C 338.482 66.576,338.411 69.795,338.158 70.099 C 337.900 70.410,337.898 70.622,338.149 70.925 C 338.399 71.226,338.468 95.184,338.411 162.441 L 338.335 253.550 337.503 254.382 L 336.671 255.214 199.272 255.290 C 55.897 255.370,59.997 255.406,58.991 254.058 L 58.365 253.219 58.371 150.390 C 58.376 70.034,58.457 47.378,58.744 46.722 C 59.541 44.897,54.861 45.011,129.023 45.011 L 196.849 45.011 196.849 40.727 C 196.849 36.149,197.061 35.369,198.457 34.806 C 199.178 34.515,268.028 34.413,269.104 34.701 " stroke="none" fill="#34c664" fill-rule="evenodd"></path><path id="path2" d="M0.000 150.038 L 0.000 300.075 200.000 300.075 L 400.000 300.075 400.000 150.038 L 400.000 0.000 200.000 0.000 L 0.000 0.000 0.000 150.038 M328.374 13.769 C 329.773 15.215,330.083 15.721,330.083 16.559 C 330.083 18.086,332.205 20.150,333.018 19.414 C 333.538 18.943,333.641 18.989,334.861 20.232 C 336.093 21.487,336.258 22.206,335.316 22.206 C 334.885 22.206,334.681 22.802,335.109 22.810 C 336.621 22.841,335.307 25.206,333.777 25.206 C 333.242 25.206,333.083 25.373,333.083 25.939 C 333.083 26.894,332.496 27.240,332.007 26.572 C 331.525 25.913,330.983 26.217,330.983 27.148 C 330.983 27.567,330.610 28.168,330.065 28.626 C 329.265 29.299,329.159 29.563,329.240 30.678 L 329.332 31.958 336.075 32.039 C 341.658 32.106,342.861 32.196,343.067 32.564 C 343.263 32.914,344.013 33.008,346.611 33.008 C 349.263 33.008,349.940 33.096,350.079 33.458 C 350.174 33.706,350.554 33.908,350.923 33.908 C 351.293 33.908,351.839 34.179,352.138 34.509 C 352.497 34.905,353.062 35.109,353.803 35.109 C 354.523 35.109,354.986 35.270,355.097 35.559 C 355.192 35.806,355.585 36.009,355.971 36.009 C 356.376 36.009,357.095 36.446,357.675 37.044 C 358.227 37.614,358.962 38.120,359.309 38.169 C 359.684 38.223,359.977 38.516,360.030 38.890 C 360.080 39.237,360.586 39.973,361.155 40.525 C 361.754 41.105,362.191 41.824,362.191 42.229 C 362.191 42.614,362.393 43.007,362.641 43.102 C 362.971 43.229,363.091 43.749,363.091 45.053 C 363.091 46.356,363.211 46.877,363.541 47.003 C 363.870 47.130,363.991 47.648,363.991 48.934 C 363.991 50.384,364.096 50.748,364.591 51.013 C 365.153 51.313,365.191 51.641,365.191 56.134 C 365.191 60.124,365.267 60.963,365.641 61.107 C 366.039 61.260,366.092 68.350,366.092 122.426 C 366.092 176.412,366.144 183.616,366.542 183.946 C 366.789 184.151,366.992 184.636,366.992 185.022 C 366.992 185.429,367.257 185.867,367.620 186.062 L 368.248 186.398 367.620 187.067 C 367.275 187.435,366.992 188.016,366.992 188.359 C 366.992 188.702,366.789 189.061,366.542 189.156 C 366.145 189.308,366.092 193.903,366.092 228.011 C 366.092 262.029,366.037 266.738,365.641 267.067 C 365.277 267.369,365.191 268.314,365.191 272.008 C 365.191 276.195,365.141 276.621,364.591 277.119 C 364.137 277.530,363.991 278.044,363.991 279.230 C 363.991 280.257,363.836 280.925,363.541 281.170 C 363.245 281.416,363.091 282.085,363.091 283.121 C 363.091 284.156,362.936 284.826,362.641 285.071 C 362.393 285.277,362.191 285.700,362.191 286.011 C 362.191 286.323,361.920 286.809,361.590 287.091 C 361.260 287.374,360.990 287.861,360.990 288.174 C 360.990 288.930,358.821 291.073,358.056 291.073 C 357.723 291.073,357.037 291.545,356.529 292.123 C 355.770 292.988,355.400 293.173,354.430 293.173 C 353.660 293.173,353.193 293.329,353.080 293.623 C 352.967 293.916,352.501 294.074,351.744 294.074 C 350.962 294.074,350.403 294.270,350.038 294.674 C 349.626 295.128,349.113 295.274,347.927 295.274 C 346.900 295.274,346.231 295.429,345.986 295.724 C 345.672 296.102,344.405 296.174,338.035 296.174 C 331.664 296.174,330.397 296.246,330.083 296.624 C 329.514 297.310,67.288 297.310,67.025 296.624 C 66.878 296.240,65.711 296.174,59.073 296.174 C 52.435 296.174,51.269 296.108,51.121 295.724 C 50.996 295.396,50.480 295.274,49.227 295.274 C 47.886 295.274,47.385 295.141,46.962 294.674 C 46.603 294.277,46.038 294.074,45.297 294.074 C 44.577 294.074,44.113 293.912,44.003 293.623 C 43.890 293.330,43.423 293.173,42.657 293.173 C 41.980 293.173,41.326 292.983,41.110 292.723 C 40.905 292.476,40.483 292.273,40.173 292.273 C 39.453 292.273,36.009 288.847,36.009 288.131 C 36.009 287.833,35.536 287.132,34.959 286.572 C 34.131 285.770,33.908 285.318,33.908 284.444 C 33.908 283.735,33.746 283.273,33.458 283.162 C 33.102 283.026,33.008 282.399,33.008 280.162 C 33.008 277.925,32.914 277.297,32.558 277.161 C 32.188 277.019,32.108 276.249,32.108 272.824 C 32.108 269.041,32.053 268.610,31.508 268.117 C 30.969 267.630,30.908 267.193,30.908 263.869 C 30.908 259.786,30.869 259.712,29.504 261.200 C 28.482 262.313,28.059 262.202,27.861 260.765 C 27.782 260.193,27.603 260.036,27.108 260.104 C 26.446 260.196,25.979 259.744,25.964 258.998 C 25.956 258.579,25.502 258.246,24.531 257.946 C 24.212 257.847,24.006 257.485,24.006 257.024 C 24.006 256.431,23.854 256.264,23.316 256.264 C 22.443 256.264,21.905 255.734,21.905 254.874 C 21.905 254.366,21.706 254.180,21.080 254.108 C 20.432 254.034,20.235 253.836,20.160 253.188 C 20.108 252.734,19.804 252.223,19.485 252.052 C 18.416 251.480,19.564 249.062,20.904 249.062 C 21.690 249.062,24.006 246.663,24.006 245.849 C 24.006 245.141,24.339 245.032,26.152 245.149 C 27.170 245.215,27.505 244.689,26.715 244.266 C 25.908 243.834,25.948 243.480,26.901 242.596 C 27.867 241.701,28.249 241.678,28.969 242.474 C 29.274 242.811,29.802 243.047,30.141 242.999 L 30.758 242.911 30.833 151.623 C 30.908 60.706,30.911 60.334,31.508 60.015 C 32.065 59.717,32.108 59.386,32.108 55.385 C 32.108 51.832,32.187 51.047,32.558 50.904 C 32.912 50.769,33.008 50.158,33.008 48.058 C 33.008 46.048,33.120 45.292,33.458 45.011 C 33.706 44.806,33.908 44.173,33.908 43.605 C 33.908 42.763,34.181 42.307,35.382 41.136 C 36.192 40.347,36.901 39.377,36.957 38.980 C 37.029 38.476,37.284 38.228,37.809 38.154 C 38.222 38.096,38.968 37.590,39.467 37.029 C 39.993 36.439,40.661 36.009,41.052 36.009 C 41.425 36.009,41.807 35.806,41.902 35.559 C 42.019 35.254,42.497 35.109,43.382 35.109 C 44.383 35.109,44.765 34.968,45.011 34.509 C 45.201 34.155,45.640 33.908,46.081 33.908 C 46.493 33.908,46.908 33.706,47.003 33.458 C 47.142 33.096,47.817 33.008,50.454 33.008 C 53.091 33.008,53.766 32.920,53.905 32.558 C 54.058 32.160,62.096 32.108,123.754 32.108 L 193.431 32.108 194.449 31.058 C 195.008 30.480,195.744 30.007,196.083 30.007 C 196.428 30.007,197.069 29.545,197.537 28.957 C 198.568 27.665,200.478 27.437,201.066 28.536 L 201.402 29.165 201.988 28.536 C 202.519 27.966,202.906 27.907,206.126 27.907 C 208.918 27.907,209.759 27.811,210.053 27.457 C 210.600 26.798,218.508 26.798,219.055 27.457 C 219.621 28.139,262.713 28.139,262.974 27.457 C 263.231 26.789,271.803 26.789,272.060 27.457 C 272.198 27.819,272.871 27.907,275.490 27.907 C 278.441 27.907,278.779 27.964,279.070 28.507 C 279.480 29.274,280.326 29.274,281.020 28.507 C 281.711 27.744,282.430 27.744,283.121 28.507 C 283.420 28.837,283.966 29.107,284.335 29.107 C 284.705 29.107,285.085 29.310,285.180 29.557 C 285.275 29.805,285.671 30.008,286.060 30.008 C 286.502 30.008,287.096 30.402,287.643 31.058 L 288.519 32.108 305.940 32.108 C 319.089 32.108,323.449 32.020,323.721 31.748 C 324.435 31.034,324.134 29.678,323.031 28.638 C 322.453 28.093,321.980 27.391,321.980 27.077 C 321.980 26.225,321.643 26.047,321.049 26.585 C 320.388 27.183,319.880 26.902,319.880 25.939 C 319.880 25.382,319.718 25.204,319.205 25.198 C 318.833 25.193,318.150 24.802,317.685 24.328 L 316.840 23.467 317.527 22.986 L 318.213 22.506 317.542 22.036 L 316.872 21.566 318.113 20.337 C 319.211 19.250,319.424 19.151,319.954 19.481 C 320.844 20.037,322.881 18.020,322.881 16.583 C 322.881 15.773,323.207 15.247,324.606 13.805 C 326.702 11.644,326.322 11.648,328.374 13.769 M353.868 15.183 C 354.138 15.454,353.766 16.225,353.457 16.035 C 353.309 15.943,353.188 15.674,353.188 15.436 C 353.188 14.994,353.546 14.861,353.868 15.183 M354.989 23.574 C 354.989 23.811,354.786 24.006,354.539 24.006 C 354.087 24.006,353.922 23.373,354.280 23.014 C 354.560 22.734,354.989 23.072,354.989 23.574 M198.457 34.804 C 197.070 35.368,196.849 36.161,196.849 40.577 C 196.849 43.133,196.964 44.711,197.149 44.711 C 197.348 44.711,197.449 66.371,197.449 109.090 C 197.449 172.994,197.454 173.473,198.048 174.111 L 198.646 174.753 233.382 174.879 C 257.720 174.966,268.364 174.907,268.942 174.681 L 269.766 174.359 269.842 109.760 L 269.917 45.161 270.594 44.865 C 271.661 44.397,271.157 36.904,269.948 35.250 C 269.480 34.609,200.001 34.176,198.457 34.804 M260.859 44.836 C 262.037 45.927,262.044 46.046,261.904 61.752 C 261.762 77.639,261.757 77.683,260.076 78.134 C 259.712 78.232,247.706 78.313,233.395 78.315 L 207.376 78.320 206.614 77.497 L 205.851 76.675 205.851 61.080 L 205.851 45.484 206.677 44.808 L 207.502 44.133 233.790 44.122 L 260.077 44.111 260.859 44.836 M61.515 59.565 L 61.515 70.818 126.032 70.818 L 190.548 70.818 190.548 59.565 L 190.548 48.312 126.032 48.312 L 61.515 48.312 61.515 59.565 M291.373 59.014 C 291.373 68.555,291.319 69.780,290.876 70.269 C 290.395 70.800,291.137 70.817,314.057 70.791 C 329.286 70.773,337.388 70.663,336.763 70.483 L 335.791 70.202 335.713 59.332 L 335.634 48.462 313.503 48.385 L 291.373 48.308 291.373 59.014 M210.935 49.278 C 210.234 49.537,210.163 50.576,210.827 50.831 C 211.088 50.931,221.553 51.013,234.083 51.013 L 256.864 51.013 256.864 50.116 L 256.864 49.220 234.190 49.141 C 221.720 49.098,211.255 49.159,210.935 49.278 M73.683 53.607 C 74.533 54.524,74.598 54.864,73.968 55.105 C 73.105 55.436,73.527 55.814,74.761 55.814 C 75.592 55.814,76.135 55.988,76.401 56.339 C 76.621 56.628,76.804 56.711,76.810 56.524 C 76.821 56.121,79.173 53.713,79.555 53.713 C 79.701 53.713,79.820 53.511,79.820 53.263 C 79.820 51.833,82.833 52.733,84.790 54.749 C 86.127 56.126,86.717 56.559,86.836 56.249 C 86.949 55.955,87.468 55.811,88.438 55.804 C 89.695 55.796,89.808 55.746,89.347 55.396 C 88.098 54.448,89.510 52.809,91.565 52.821 C 94.504 52.837,98.928 58.833,96.924 60.085 C 96.594 60.291,96.314 60.596,96.302 60.762 C 96.291 60.929,95.625 61.605,94.824 62.266 C 94.022 62.926,93.357 63.620,93.345 63.809 C 93.245 65.396,90.644 64.682,88.522 62.485 L 86.572 60.465 84.565 62.491 C 81.818 65.263,81.193 65.269,78.489 62.552 L 76.535 60.588 74.571 62.552 C 71.795 65.328,71.296 65.296,68.112 62.146 C 64.808 58.878,64.787 58.224,67.892 55.060 C 70.471 52.431,72.193 51.999,73.683 53.607 M211.025 54.777 C 210.198 55.356,210.150 56.358,210.935 56.649 C 212.377 57.183,256.816 56.735,256.933 56.185 C 257.294 54.506,258.826 54.614,234.648 54.614 C 222.468 54.614,212.321 54.544,212.100 54.459 C 211.879 54.375,211.396 54.517,211.025 54.777 M286.401 61.665 C 286.401 65.626,286.444 67.205,286.496 65.174 C 286.548 63.143,286.548 59.902,286.496 57.972 C 286.443 56.043,286.401 57.704,286.401 61.665 M210.935 60.380 C 210.185 60.658,210.184 61.704,210.933 62.105 C 211.865 62.604,232.597 62.523,233.288 62.018 C 233.881 61.584,233.714 60.318,233.063 60.311 C 221.505 60.184,211.380 60.216,210.935 60.380 M210.553 67.417 C 210.018 67.951,210.346 73.193,210.933 73.508 C 212.112 74.139,223.760 73.906,224.225 73.243 C 224.636 72.656,224.703 68.159,224.310 67.523 C 224.099 67.182,210.890 67.079,210.553 67.417 M260.832 82.754 L 261.515 83.438 261.515 94.108 L 261.515 104.778 260.673 105.502 L 259.831 106.227 248.622 106.227 L 237.413 106.227 237.296 104.351 C 237.231 103.320,237.227 102.374,237.287 102.251 C 237.346 102.127,240.729 102.023,244.804 102.021 C 248.879 102.018,252.404 101.895,252.638 101.747 C 253.083 101.465,253.226 99.788,252.838 99.400 C 252.587 99.148,212.477 98.973,211.178 99.217 C 210.460 99.352,209.875 101.355,210.428 101.784 C 210.469 101.816,214.216 101.917,218.755 102.009 C 227.705 102.190,227.834 102.221,226.383 103.846 C 226.152 104.104,225.877 104.751,225.770 105.283 L 225.576 106.251 216.472 106.164 C 207.454 106.077,207.361 106.070,206.685 105.393 C 205.628 104.337,205.441 84.047,206.477 82.943 C 207.350 82.014,205.542 82.071,234.425 82.071 L 260.148 82.071 260.832 82.754 M210.728 86.920 C 210.078 87.183,210.245 89.944,210.933 90.312 C 211.901 90.830,216.827 90.707,217.383 90.151 C 218.077 89.457,218.006 87.424,217.274 87.032 C 216.695 86.723,211.440 86.633,210.728 86.920 M219.730 86.920 C 219.244 87.116,219.232 89.780,219.715 90.263 C 220.291 90.838,222.585 90.720,222.905 90.098 C 224.093 87.794,222.217 85.917,219.730 86.920 M225.256 86.922 C 225.006 87.172,224.993 89.509,225.238 90.148 C 225.851 91.745,228.957 90.377,228.957 88.511 C 228.957 87.022,226.298 85.880,225.256 86.922 M210.728 93.822 C 210.521 93.905,210.353 94.436,210.353 95.001 L 210.353 96.028 233.683 95.951 L 257.014 95.874 257.112 95.182 C 257.343 93.556,258.340 93.621,233.797 93.647 C 221.315 93.660,210.934 93.739,210.728 93.822 M232.258 102.051 C 232.258 102.195,232.610 102.152,233.041 101.956 C 233.693 101.659,233.883 101.680,234.178 102.083 C 234.373 102.349,234.864 102.614,235.271 102.672 C 236.478 102.842,236.480 105.121,235.274 106.908 C 234.770 107.654,234.359 108.413,234.359 108.596 C 234.359 108.778,234.325 108.936,234.284 108.946 C 234.242 108.957,233.263 109.030,232.108 109.110 L 230.008 109.254 228.957 107.978 C 228.380 107.275,227.671 106.497,227.382 106.247 C 226.528 105.509,226.712 104.445,227.757 104.081 C 228.666 103.764,228.936 103.134,228.325 102.756 C 227.835 102.453,228.622 102.037,229.707 102.026 C 230.203 102.020,230.798 101.896,231.031 101.749 C 231.497 101.453,232.258 101.641,232.258 102.051 M227.907 110.641 C 229.882 111.443,234.110 111.502,235.664 110.749 C 237.658 109.784,259.139 109.783,260.494 110.748 L 261.365 111.369 261.364 116.375 C 261.363 127.032,261.032 132.640,260.370 133.257 C 259.796 133.792,258.734 133.812,233.720 133.749 L 207.668 133.683 207.024 133.039 C 206.397 132.412,206.376 132.128,206.222 121.884 L 206.064 111.372 207.083 110.751 C 208.480 109.899,225.854 109.808,227.907 110.641 M210.524 114.800 C 209.958 115.366,209.880 117.937,210.413 118.470 C 210.906 118.963,217.001 118.963,217.494 118.470 C 218.117 117.847,217.953 115.003,217.274 114.639 C 216.302 114.119,211.081 114.243,210.524 114.800 M219.955 114.547 C 219.021 114.903,218.637 117.692,219.415 118.470 C 220.105 119.160,222.936 118.925,223.214 118.155 C 224.181 115.466,222.482 113.585,219.955 114.547 M210.578 121.554 C 209.830 121.990,209.868 123.811,210.633 124.220 C 211.521 124.696,256.628 124.648,257.104 124.171 C 257.642 123.633,257.539 122.291,256.916 121.727 C 256.258 121.132,211.588 120.966,210.578 121.554 M248.973 125.921 C 248.194 126.699,249.652 128.419,251.097 128.427 C 251.708 128.430,252.149 128.258,252.258 127.973 C 252.413 127.569,252.477 127.573,252.794 128.006 C 253.468 128.928,254.314 128.411,254.314 127.078 L 254.314 125.881 251.749 125.796 C 250.338 125.748,249.089 125.805,248.973 125.921 M210.468 127.160 C 209.920 127.524,209.717 128.599,210.037 129.443 L 210.338 130.233 224.756 130.233 L 239.175 130.233 239.477 129.437 C 239.659 128.958,239.676 128.331,239.520 127.862 L 239.260 127.082 225.031 127.010 C 217.206 126.970,210.652 127.038,210.468 127.160 M232.258 139.535 C 232.258 139.926,231.482 140.098,231.031 139.807 C 230.667 139.573,230.667 139.497,231.031 139.263 C 231.482 138.972,232.258 139.144,232.258 139.535 M247.262 139.561 C 247.262 139.990,245.954 140.188,245.154 139.880 C 244.605 139.670,244.529 139.553,244.861 139.432 C 246.134 138.973,247.262 139.034,247.262 139.561 M213.184 139.503 C 213.385 139.829,212.663 140.135,211.696 140.135 C 210.964 140.135,210.525 139.763,210.861 139.427 C 211.151 139.136,212.995 139.197,213.184 139.503 M230.108 139.498 C 230.427 139.700,230.407 139.790,230.008 139.943 C 228.947 140.350,226.414 140.009,226.728 139.501 C 226.937 139.163,229.576 139.161,230.108 139.498 M236.290 139.503 C 236.508 139.856,235.683 140.164,235.111 139.944 C 234.526 139.720,234.833 139.235,235.559 139.235 C 235.869 139.235,236.198 139.356,236.290 139.503 M239.289 139.501 C 239.379 139.647,239.272 139.917,239.051 140.101 C 238.577 140.494,236.650 139.954,236.927 139.506 C 237.143 139.156,239.073 139.152,239.289 139.501 M242.291 139.503 C 242.509 139.856,241.685 140.164,241.112 139.944 C 240.528 139.720,240.834 139.235,241.560 139.235 C 241.871 139.235,242.200 139.356,242.291 139.503 M244.095 139.509 C 244.298 139.838,243.664 140.103,243.138 139.909 C 242.932 139.834,242.839 139.651,242.930 139.503 C 243.146 139.154,243.878 139.158,244.095 139.509 M254.294 139.503 C 254.512 139.856,253.688 140.164,253.115 139.944 C 252.531 139.720,252.837 139.235,253.563 139.235 C 253.874 139.235,254.203 139.356,254.294 139.503 M213.203 141.335 C 213.312 141.510,213.006 141.635,212.471 141.635 C 211.966 141.635,211.553 141.500,211.553 141.335 C 211.553 141.170,211.883 141.035,212.285 141.035 C 212.688 141.035,213.101 141.170,213.203 141.335 M215.154 141.335 C 215.491 141.553,215.341 141.626,214.554 141.626 C 213.766 141.626,213.616 141.553,213.953 141.335 C 214.201 141.175,214.471 141.044,214.554 141.044 C 214.636 141.044,214.906 141.175,215.154 141.335 M282.212 161.503 C 281.936 162.224,282.185 164.900,282.521 164.820 C 282.929 164.723,283.082 161.731,282.698 161.347 C 282.488 161.138,282.334 161.187,282.212 161.503 " stroke="none" fill="#236e4e" fill-rule="evenodd"></path><path id="path3" d="M206.677 44.808 L 205.851 45.484 205.851 61.080 L 205.851 76.675 206.614 77.497 L 207.376 78.320 233.395 78.315 C 247.706 78.313,259.712 78.232,260.076 78.134 C 261.757 77.683,261.762 77.639,261.904 61.752 C 262.044 46.046,262.037 45.927,260.859 44.836 L 260.077 44.111 233.790 44.122 L 207.502 44.133 206.677 44.808 M196.879 109.206 L 196.760 173.700 197.682 174.622 C 198.529 175.469,198.769 175.544,200.652 175.550 C 201.779 175.554,205.266 175.754,208.402 175.996 C 211.604 176.243,218.040 176.437,223.081 176.440 C 228.018 176.442,231.957 176.545,231.833 176.669 C 231.709 176.793,228.209 176.897,224.056 176.900 C 216.925 176.906,215.526 177.034,215.903 177.644 C 215.991 177.785,219.538 177.856,223.785 177.800 C 228.886 177.734,231.638 177.807,231.890 178.015 C 232.364 178.405,232.643 178.151,232.708 177.269 C 232.757 176.597,232.786 176.594,238.509 176.513 L 244.261 176.431 244.261 177.366 L 244.261 178.301 246.587 178.092 C 247.866 177.977,252.356 177.841,256.564 177.789 C 267.152 177.659,266.786 177.679,265.866 177.286 C 265.404 177.089,261.687 176.940,256.182 176.898 C 251.268 176.861,247.161 176.744,247.055 176.637 C 246.949 176.531,251.882 176.444,258.019 176.444 L 269.176 176.444 270.274 175.438 L 271.372 174.431 271.571 169.811 C 271.714 166.493,271.784 165.921,271.819 167.780 C 271.862 170.044,272.684 172.510,272.793 170.704 C 272.807 170.478,272.873 169.955,272.940 169.542 C 273.134 168.346,273.066 94.268,272.871 93.758 C 272.713 93.346,272.638 93.348,272.171 93.771 C 271.685 94.210,271.634 94.179,271.468 93.347 C 271.225 92.135,271.175 45.704,271.416 45.314 C 271.708 44.842,270.718 44.596,270.214 45.014 C 269.821 45.340,269.767 53.162,269.767 109.872 L 269.767 174.358 268.942 174.681 C 268.364 174.908,257.737 174.967,233.382 174.879 L 198.646 174.753 198.048 174.111 C 197.454 173.473,197.449 172.994,197.449 109.090 C 197.449 73.682,197.348 44.711,197.224 44.711 C 197.101 44.712,196.945 73.734,196.879 109.206 M61.352 48.388 C 61.273 48.595,61.245 53.760,61.290 59.866 L 61.373 70.968 61.444 59.640 L 61.515 48.312 126.028 48.312 L 190.540 48.312 190.624 59.490 L 190.708 70.668 190.703 59.415 L 190.698 48.162 126.097 48.086 C 74.467 48.026,61.468 48.086,61.352 48.388 M291.273 48.212 C 291.163 48.322,291.073 53.255,291.073 59.174 C 291.073 68.464,291.011 69.960,290.623 70.109 C 290.375 70.204,290.173 70.423,290.173 70.596 C 290.173 70.769,290.443 70.666,290.773 70.368 C 291.352 69.844,291.373 69.443,291.373 59.066 L 291.373 48.308 313.503 48.385 L 335.634 48.462 335.713 59.340 C 335.756 65.323,335.824 70.218,335.865 70.218 C 335.905 70.218,336.376 70.343,336.911 70.497 C 337.447 70.650,337.884 70.659,337.884 70.517 C 337.884 70.374,337.513 70.215,337.059 70.162 L 336.234 70.068 336.155 59.441 C 336.101 52.208,335.970 48.686,335.743 48.413 C 335.387 47.984,291.699 47.786,291.273 48.212 M256.864 50.116 L 256.864 51.013 234.083 51.013 C 210.381 51.013,210.353 51.012,210.353 50.071 C 210.353 49.083,210.939 49.060,234.190 49.141 L 256.864 49.220 256.864 50.116 M67.892 55.060 C 65.330 57.670,64.966 59.146,66.520 60.615 C 67.275 61.328,67.296 61.332,66.955 60.690 C 66.757 60.319,66.465 60.015,66.306 60.015 C 65.005 60.015,66.097 57.355,68.313 55.124 C 69.576 53.853,70.487 52.820,70.338 52.828 C 70.189 52.836,69.089 53.840,67.892 55.060 M73.345 53.689 C 73.855 54.221,74.094 54.710,73.955 54.936 C 73.808 55.174,73.849 55.230,74.072 55.092 C 74.643 54.740,73.506 52.813,72.726 52.813 C 72.605 52.813,72.883 53.207,73.345 53.689 M83.716 54.089 C 84.377 54.790,85.316 55.740,85.803 56.199 L 86.690 57.035 87.012 56.349 C 87.269 55.802,87.263 55.762,86.979 56.151 C 86.668 56.576,86.389 56.396,84.767 54.725 C 83.746 53.674,82.821 52.813,82.713 52.813 C 82.604 52.813,83.055 53.387,83.716 54.089 M89.497 53.536 C 89.126 53.928,88.822 54.433,88.822 54.659 C 88.822 54.885,89.126 55.256,89.497 55.484 C 90.154 55.888,90.158 55.883,89.647 55.308 C 88.960 54.534,88.978 54.419,89.916 53.549 C 90.353 53.144,90.589 52.816,90.441 52.818 C 90.294 52.821,89.869 53.144,89.497 53.536 M94.790 55.199 C 97.331 57.689,97.847 58.896,96.849 60.016 C 96.530 60.373,96.553 60.377,96.999 60.039 C 98.223 59.113,97.705 57.716,95.199 55.180 C 93.920 53.886,92.757 52.825,92.615 52.821 C 92.472 52.816,93.451 53.887,94.790 55.199 M77.935 54.994 C 76.365 56.654,76.703 56.702,78.394 55.059 C 79.156 54.319,79.619 53.731,79.424 53.753 C 79.229 53.775,78.559 54.334,77.935 54.994 M234.648 54.614 C 255.492 54.614,256.802 54.645,256.920 55.139 C 257.320 56.813,258.881 56.700,234.169 56.785 C 210.880 56.866,210.353 56.846,210.353 55.841 C 210.353 55.151,211.513 54.234,212.100 54.459 C 212.321 54.544,222.468 54.614,234.648 54.614 M286.106 54.695 C 285.819 55.443,286.116 68.717,286.422 68.793 C 286.614 68.840,286.751 66.252,286.802 61.590 C 286.876 54.865,286.702 53.142,286.106 54.695 M286.496 65.174 C 286.444 67.205,286.401 65.626,286.401 61.665 C 286.401 57.704,286.443 56.043,286.496 57.972 C 286.548 59.902,286.548 63.143,286.496 65.174 M233.063 60.311 C 233.714 60.318,233.881 61.584,233.288 62.018 C 232.597 62.523,211.865 62.604,210.933 62.105 C 210.184 61.704,210.185 60.658,210.935 60.380 C 211.380 60.216,221.505 60.184,233.063 60.311 M74.419 62.266 C 71.889 64.818,71.195 64.870,69.034 62.675 C 68.200 61.827,67.517 61.226,67.517 61.339 C 67.517 61.452,68.186 62.213,69.003 63.030 C 71.176 65.203,71.990 65.133,74.571 62.552 L 76.535 60.588 78.489 62.552 C 80.243 64.314,80.558 64.511,81.557 64.466 L 82.671 64.415 81.597 64.301 C 80.748 64.210,80.121 63.781,78.605 62.251 C 76.291 59.917,76.748 59.915,74.419 62.266 M86.722 60.568 C 86.722 60.866,88.482 62.566,88.613 62.394 C 88.666 62.323,88.262 61.831,87.715 61.299 C 87.169 60.767,86.722 60.438,86.722 60.568 M95.257 61.455 C 94.771 61.908,94.177 62.546,93.938 62.872 C 93.698 63.199,94.101 62.926,94.833 62.266 C 95.566 61.605,96.223 61.032,96.294 60.990 C 96.366 60.949,96.360 60.851,96.282 60.773 C 96.204 60.695,95.743 61.002,95.257 61.455 M84.302 62.351 C 83.713 62.964,83.119 63.668,82.981 63.916 C 82.842 64.164,83.357 63.722,84.125 62.935 C 85.339 61.692,85.729 61.187,85.446 61.225 C 85.405 61.231,84.890 61.737,84.302 62.351 M89.732 63.481 C 89.715 64.069,90.439 64.516,91.408 64.516 C 92.602 64.516,93.323 64.255,93.323 63.824 C 93.323 63.604,93.204 63.615,92.963 63.856 C 92.399 64.420,90.406 64.308,90.047 63.691 C 89.878 63.402,89.737 63.308,89.732 63.481 M224.310 67.523 C 224.703 68.159,224.636 72.656,224.225 73.243 C 223.760 73.906,212.112 74.139,210.933 73.508 C 210.346 73.193,210.018 67.951,210.553 67.417 C 210.890 67.079,224.099 67.182,224.310 67.523 M207.914 82.162 C 205.829 82.404,205.819 82.464,205.915 94.172 C 206.025 107.638,204.628 106.050,216.472 106.164 L 225.576 106.251 225.770 105.283 C 225.877 104.751,226.152 104.104,226.383 103.846 C 227.834 102.221,227.705 102.190,218.755 102.009 C 214.216 101.917,210.469 101.816,210.428 101.784 C 209.875 101.355,210.460 99.352,211.178 99.217 C 212.477 98.973,252.587 99.148,252.838 99.400 C 253.226 99.788,253.083 101.465,252.638 101.747 C 252.404 101.895,248.879 102.018,244.804 102.021 C 240.729 102.023,237.346 102.127,237.287 102.251 C 237.227 102.374,237.231 103.320,237.296 104.351 L 237.413 106.227 248.622 106.227 L 259.831 106.227 260.673 105.502 L 261.515 104.778 261.515 94.108 L 261.515 83.438 260.832 82.754 L 260.148 82.071 234.425 82.071 C 220.278 82.071,208.347 82.112,207.914 82.162 M217.274 87.032 C 218.006 87.424,218.077 89.457,217.383 90.151 C 216.827 90.707,211.901 90.830,210.933 90.312 C 210.245 89.944,210.078 87.183,210.728 86.920 C 211.440 86.633,216.695 86.723,217.274 87.032 M222.901 87.106 C 223.282 87.565,223.285 89.362,222.905 90.098 C 222.585 90.720,220.291 90.838,219.715 90.263 C 219.232 89.780,219.244 87.116,219.730 86.920 C 220.495 86.612,222.593 86.734,222.901 87.106 M228.377 87.032 C 230.042 87.924,228.795 90.623,226.717 90.623 C 225.245 90.623,225.056 90.370,225.056 88.398 C 225.056 86.687,226.569 86.065,228.377 87.032 M256.851 94.057 C 257.048 94.295,257.166 94.802,257.112 95.182 L 257.014 95.874 233.683 95.951 L 210.353 96.028 210.353 95.001 C 210.353 94.436,210.521 93.905,210.728 93.822 C 211.770 93.401,256.495 93.629,256.851 94.057 M271.793 130.158 C 271.748 136.553,271.711 131.320,271.711 118.530 C 271.711 105.739,271.748 100.506,271.793 106.902 C 271.838 113.297,271.838 123.762,271.793 130.158 M231.031 101.749 C 230.798 101.896,230.203 102.020,229.707 102.026 C 228.622 102.037,227.835 102.453,228.325 102.756 C 228.936 103.134,228.666 103.764,227.757 104.081 C 226.712 104.445,226.528 105.509,227.382 106.247 C 227.671 106.497,228.380 107.275,228.957 107.978 L 230.008 109.254 232.108 109.110 C 233.263 109.030,234.242 108.957,234.284 108.946 C 234.325 108.936,234.359 108.778,234.359 108.596 C 234.359 108.413,234.770 107.654,235.274 106.908 C 236.480 105.121,236.478 102.842,235.271 102.672 C 234.864 102.614,234.373 102.349,234.178 102.083 C 233.883 101.680,233.693 101.659,233.041 101.956 C 232.610 102.152,232.258 102.195,232.258 102.051 C 232.258 101.641,231.497 101.453,231.031 101.749 M233.008 102.626 C 233.385 102.313,233.565 102.324,233.989 102.689 C 234.275 102.934,234.745 103.218,235.034 103.321 C 235.894 103.626,235.229 106.816,234.304 106.825 C 234.191 106.826,234.056 106.456,234.003 106.003 C 233.907 105.169,232.647 104.851,230.983 105.243 C 229.290 105.642,230.653 107.164,232.482 106.919 C 233.793 106.743,234.117 106.987,233.863 107.958 C 233.724 108.492,233.608 108.538,233.144 108.249 C 232.705 107.974,232.476 108.008,232.026 108.415 C 231.147 109.211,230.647 109.042,229.148 107.440 C 227.583 105.767,227.509 105.534,228.355 104.942 C 228.684 104.711,229.038 104.097,229.142 103.578 C 229.300 102.787,229.439 102.660,229.992 102.799 C 230.398 102.900,230.805 102.781,231.048 102.487 C 231.409 102.052,231.492 102.054,231.995 102.509 C 232.449 102.920,232.629 102.940,233.008 102.626 M207.083 110.751 L 206.064 111.372 206.222 121.884 C 206.376 132.128,206.397 132.412,207.024 133.039 L 207.668 133.683 233.720 133.749 C 258.734 133.812,259.796 133.792,260.370 133.257 C 261.032 132.640,261.363 127.032,261.364 116.375 L 261.365 111.369 260.494 110.748 C 259.139 109.783,237.658 109.784,235.664 110.749 C 234.110 111.502,229.882 111.443,227.907 110.641 C 225.854 109.808,208.480 109.899,207.083 110.751 M217.274 114.639 C 217.953 115.003,218.117 117.847,217.494 118.470 C 217.001 118.963,210.906 118.963,210.413 118.470 C 209.880 117.937,209.958 115.366,210.524 114.800 C 211.081 114.243,216.302 114.119,217.274 114.639 M222.971 114.797 C 223.427 115.346,223.560 117.191,223.214 118.155 C 222.936 118.925,220.105 119.160,219.415 118.470 C 219.023 118.078,218.928 115.583,219.284 115.049 C 219.821 114.246,222.369 114.071,222.971 114.797 M256.916 121.727 C 257.539 122.291,257.642 123.633,257.104 124.171 C 256.628 124.648,211.521 124.696,210.633 124.220 C 209.868 123.811,209.830 121.990,210.578 121.554 C 211.588 120.966,256.258 121.132,256.916 121.727 M254.314 127.078 C 254.314 128.411,253.468 128.928,252.794 128.006 C 252.477 127.573,252.413 127.569,252.258 127.973 C 251.804 129.157,248.762 127.931,248.762 126.564 C 248.762 125.803,249.132 125.708,251.749 125.796 L 254.314 125.881 254.314 127.078 M239.520 127.862 C 239.676 128.331,239.659 128.958,239.477 129.437 L 239.175 130.233 224.756 130.233 L 210.338 130.233 210.037 129.443 C 209.717 128.599,209.920 127.524,210.468 127.160 C 210.652 127.038,217.206 126.970,225.031 127.010 L 239.260 127.082 239.520 127.862 M231.031 139.263 C 230.667 139.497,230.667 139.573,231.031 139.807 C 231.482 140.098,232.258 139.926,232.258 139.535 C 232.258 139.144,231.482 138.972,231.031 139.263 M245.911 139.158 C 245.581 139.219,245.109 139.343,244.861 139.432 C 244.165 139.684,245.751 140.203,246.580 139.995 C 247.816 139.685,247.203 138.916,245.911 139.158 M210.861 139.427 C 210.525 139.763,210.964 140.135,211.696 140.135 C 212.663 140.135,213.385 139.829,213.184 139.503 C 212.995 139.197,211.151 139.136,210.861 139.427 M226.728 139.501 C 226.414 140.009,228.947 140.350,230.008 139.943 C 230.407 139.790,230.427 139.700,230.108 139.498 C 229.576 139.161,226.937 139.163,226.728 139.501 M234.828 139.503 C 234.610 139.856,235.434 140.164,236.007 139.944 C 236.591 139.720,236.285 139.235,235.559 139.235 C 235.248 139.235,234.919 139.356,234.828 139.503 M236.927 139.506 C 236.650 139.954,238.577 140.494,239.051 140.101 C 239.272 139.917,239.379 139.647,239.289 139.501 C 239.073 139.152,237.143 139.156,236.927 139.506 M240.830 139.503 C 240.612 139.856,241.436 140.164,242.009 139.944 C 242.593 139.720,242.286 139.235,241.560 139.235 C 241.250 139.235,240.921 139.356,240.830 139.503 M242.930 139.503 C 242.839 139.651,242.932 139.834,243.138 139.909 C 243.664 140.103,244.298 139.838,244.095 139.509 C 243.878 139.158,243.146 139.154,242.930 139.503 M252.833 139.503 C 252.615 139.856,253.439 140.164,254.012 139.944 C 254.596 139.720,254.289 139.235,253.563 139.235 C 253.253 139.235,252.924 139.356,252.833 139.503 M211.553 141.335 C 211.553 141.500,211.966 141.635,212.471 141.635 C 213.006 141.635,213.312 141.510,213.203 141.335 C 213.101 141.170,212.688 141.035,212.285 141.035 C 211.883 141.035,211.553 141.170,211.553 141.335 M213.953 141.335 C 213.616 141.553,213.766 141.626,214.554 141.626 C 215.341 141.626,215.491 141.553,215.154 141.335 C 214.906 141.175,214.636 141.044,214.554 141.044 C 214.471 141.044,214.201 141.175,213.953 141.335 M271.792 154.896 C 271.741 157.093,271.699 155.379,271.699 151.088 C 271.698 146.797,271.740 145.000,271.792 147.094 C 271.843 149.189,271.844 152.699,271.792 154.896 M286.151 168.295 C 286.047 168.463,286.108 168.691,286.287 168.802 C 286.748 169.087,287.046 168.696,286.661 168.311 C 286.445 168.095,286.277 168.090,286.151 168.295 M291.281 185.338 C 290.941 185.678,291.388 186.047,292.141 186.047 C 292.592 186.047,292.873 185.874,292.873 185.596 C 292.873 185.147,291.667 184.952,291.281 185.338 " stroke="none" fill="#697377" fill-rule="evenodd"></path><path id="path4" d="M85.221 45.234 C 150.439 45.439,196.849 45.440,196.849 45.236 C 196.849 45.113,166.230 45.044,128.807 45.084 C 91.384 45.125,71.770 45.192,85.221 45.234 M272.768 45.333 L 271.118 45.514 273.143 45.562 C 274.257 45.589,275.169 45.558,275.169 45.493 C 275.169 45.220,274.315 45.163,272.768 45.333 M290.548 45.236 C 298.923 45.281,312.629 45.281,321.005 45.236 C 329.381 45.192,322.528 45.156,305.776 45.156 C 289.025 45.156,282.172 45.192,290.548 45.236 M196.992 69.767 C 196.992 82.806,197.029 88.096,197.074 81.523 C 197.119 74.950,197.119 64.283,197.074 57.817 C 197.029 51.352,196.992 56.729,196.992 69.767 M338.256 58.622 L 338.185 69.983 337.155 69.863 C 336.589 69.797,336.192 69.850,336.273 69.980 C 336.510 70.364,338.190 70.252,338.348 69.841 C 338.427 69.634,338.455 64.469,338.410 58.363 L 338.327 47.262 338.256 58.622 M61.052 48.388 C 60.973 48.595,60.943 53.760,60.986 59.866 L 61.065 70.968 126.032 70.968 L 190.998 70.968 191.076 59.734 C 191.120 53.555,191.052 48.396,190.926 48.271 C 190.801 48.145,190.735 53.166,190.780 59.430 L 190.862 70.818 126.032 70.818 L 61.201 70.818 61.283 59.415 C 61.328 53.143,61.327 48.012,61.281 48.012 C 61.234 48.012,61.131 48.181,61.052 48.388 M271.320 71.155 C 271.265 93.558,271.302 94.557,272.171 93.771 C 272.638 93.348,272.713 93.346,272.871 93.758 C 273.066 94.268,273.134 168.346,272.940 169.542 C 272.873 169.955,272.807 170.478,272.793 170.704 C 272.684 172.510,271.862 170.044,271.819 167.780 C 271.784 165.921,271.714 166.493,271.571 169.811 L 271.372 174.431 270.274 175.438 L 269.176 176.444 258.019 176.444 C 251.882 176.444,246.949 176.531,247.055 176.637 C 247.161 176.744,251.268 176.861,256.182 176.898 C 261.687 176.940,265.404 177.089,265.866 177.286 C 266.786 177.679,267.152 177.659,256.564 177.789 C 252.356 177.841,247.866 177.977,246.587 178.092 L 244.261 178.301 244.261 177.406 L 244.261 176.510 238.510 176.552 C 232.774 176.594,232.759 176.596,232.709 177.269 C 232.643 178.151,232.364 178.405,231.890 178.015 C 231.638 177.807,228.886 177.734,223.785 177.800 C 219.538 177.856,215.991 177.785,215.903 177.644 C 215.526 177.034,216.925 176.906,224.056 176.900 C 228.209 176.897,231.694 176.808,231.799 176.704 C 231.903 176.599,226.885 176.430,220.646 176.330 C 214.407 176.229,208.155 176.091,206.752 176.023 C 205.349 175.956,205.870 176.039,207.910 176.208 L 211.620 176.515 210.461 177.045 L 209.302 177.574 210.953 178.322 C 215.002 180.158,214.995 180.157,224.113 180.332 L 232.622 180.495 233.415 179.535 L 234.209 178.575 238.497 178.500 L 242.785 178.426 243.223 179.270 C 243.464 179.734,243.661 180.296,243.661 180.519 C 243.661 181.926,247.104 181.747,247.417 180.324 C 247.587 179.548,247.659 179.499,248.057 179.897 C 248.593 180.433,262.167 180.543,265.650 180.039 C 270.855 179.286,274.004 176.248,275.006 171.010 C 275.239 169.790,275.523 168.551,275.636 168.256 C 275.761 167.930,275.647 167.504,275.344 167.170 C 274.872 166.648,274.910 166.604,276.115 166.298 C 277.822 165.865,277.869 165.929,277.869 168.638 C 277.869 171.613,278.504 172.344,280.823 172.042 C 282.852 171.778,282.971 171.603,282.971 168.886 C 282.971 165.497,283.097 165.341,285.852 165.341 C 288.944 165.341,289.272 165.124,289.272 163.073 C 289.272 161.084,288.877 160.840,285.662 160.840 C 283.143 160.840,282.973 160.628,282.966 157.484 C 282.960 154.747,282.791 154.485,280.872 154.239 C 278.378 153.919,277.869 154.507,277.869 157.711 C 277.869 160.514,277.914 160.469,275.786 159.832 C 274.643 159.490,274.531 159.391,275.002 159.127 C 275.658 158.760,275.818 98.757,275.165 97.970 C 274.779 97.504,276.784 96.765,279.299 96.446 C 282.728 96.011,281.819 93.513,278.122 93.208 C 276.745 93.094,275.146 92.927,274.569 92.836 L 273.518 92.670 273.577 83.060 L 273.636 73.449 274.469 73.017 C 274.928 72.779,275.346 72.541,275.399 72.488 C 275.452 72.435,275.072 71.967,274.554 71.449 L 273.611 70.507 273.646 62.935 C 273.673 57.214,273.571 54.850,273.230 53.263 C 272.982 52.108,272.776 51.054,272.773 50.920 C 272.757 50.140,272.165 51.250,271.961 52.445 L 271.718 53.863 271.545 51.913 C 271.449 50.840,271.348 59.499,271.320 71.155 M68.846 54.582 C 67.867 55.554,66.802 56.668,66.478 57.057 C 66.154 57.446,66.968 56.718,68.285 55.439 C 70.993 52.810,71.898 52.523,73.189 53.883 L 73.910 54.643 73.189 55.150 C 72.793 55.429,72.082 55.678,71.609 55.702 C 68.615 55.858,67.960 60.174,70.781 61.158 C 72.990 61.928,75.199 59.644,74.308 57.512 C 74.067 56.935,73.948 56.385,74.044 56.289 C 74.398 55.934,75.643 56.128,75.810 56.564 C 75.905 56.812,76.125 57.014,76.298 57.014 C 76.471 57.014,76.361 56.736,76.053 56.396 C 75.665 55.967,75.198 55.804,74.522 55.862 C 73.297 55.968,72.941 55.634,73.690 55.083 C 74.251 54.671,74.242 54.630,73.387 53.736 C 71.981 52.264,70.993 52.448,68.846 54.582 M80.082 53.338 C 79.723 53.796,79.728 53.818,80.121 53.513 C 80.369 53.320,81.045 53.105,81.622 53.036 L 82.671 52.909 81.582 52.861 C 80.859 52.829,80.355 52.989,80.082 53.338 M90.998 53.020 C 91.287 53.096,91.759 53.096,92.048 53.020 C 92.337 52.945,92.101 52.883,91.523 52.883 C 90.945 52.883,90.709 52.945,90.998 53.020 M286.133 54.294 C 286.016 54.484,286.128 54.535,286.416 54.424 C 286.845 54.260,286.884 54.984,286.807 61.615 C 286.760 65.670,286.825 68.884,286.952 68.757 C 287.343 68.365,287.075 54.231,286.674 54.098 C 286.483 54.034,286.240 54.122,286.133 54.294 M89.544 55.171 C 90.166 55.871,90.078 55.918,88.327 55.824 C 87.808 55.796,87.308 55.893,87.218 56.039 C 87.127 56.186,87.435 56.249,87.902 56.181 C 88.966 56.025,89.196 56.380,88.767 57.518 C 87.657 60.457,91.427 62.692,93.447 60.292 C 95.134 58.287,93.379 55.085,90.943 55.722 C 90.602 55.811,90.323 55.766,90.323 55.621 C 90.323 55.476,90.019 55.172,89.647 54.943 C 88.975 54.530,88.974 54.531,89.544 55.171 M80.832 55.721 C 78.890 56.102,78.081 59.028,79.527 60.442 C 81.885 62.748,85.561 59.892,83.997 56.969 C 83.733 56.477,81.875 55.400,81.555 55.555 C 81.508 55.577,81.183 55.652,80.832 55.721 M96.880 58.292 C 96.957 59.094,96.855 59.631,96.586 59.842 C 96.359 60.020,95.977 60.435,95.735 60.765 C 95.494 61.095,95.730 60.969,96.261 60.484 C 97.201 59.624,97.651 57.613,96.994 57.207 C 96.867 57.129,96.816 57.617,96.880 58.292 M66.811 60.473 C 66.908 60.726,67.275 61.082,67.627 61.264 C 68.216 61.570,68.209 61.533,67.540 60.806 C 66.703 59.896,66.566 59.834,66.811 60.473 M74.419 61.965 C 72.340 64.063,71.278 64.426,70.166 63.419 C 69.496 62.813,69.431 63.087,70.089 63.745 C 71.117 64.772,72.318 64.350,74.486 62.199 L 76.519 60.181 78.552 62.199 C 80.857 64.485,82.443 64.951,83.127 63.541 C 83.422 62.932,83.413 62.917,83.029 63.391 C 82.107 64.531,80.718 64.083,78.620 61.965 C 77.556 60.893,76.611 60.015,76.519 60.015 C 76.427 60.015,75.482 60.893,74.419 61.965 M85.521 60.819 C 84.808 61.573,84.804 61.595,85.446 61.253 C 85.818 61.056,86.122 60.774,86.122 60.627 C 86.122 60.479,86.358 60.297,86.647 60.222 C 87.018 60.125,87.040 60.076,86.722 60.055 C 86.474 60.039,85.934 60.382,85.521 60.819 M58.300 61.965 C 58.303 62.791,58.361 63.093,58.430 62.637 C 58.499 62.180,58.497 61.505,58.426 61.136 C 58.355 60.767,58.298 61.140,58.300 61.965 M93.323 63.071 C 92.677 63.836,92.400 63.946,91.326 63.863 C 90.641 63.810,90.142 63.867,90.219 63.991 C 90.603 64.612,92.634 64.192,93.470 63.319 C 93.943 62.826,94.272 62.368,94.202 62.302 C 94.131 62.236,93.736 62.582,93.323 63.071 M58.311 65.416 C 58.311 66.489,58.365 66.928,58.432 66.392 C 58.498 65.855,58.498 64.977,58.432 64.441 C 58.365 63.905,58.311 64.344,58.311 65.416 M290.305 70.047 C 288.932 71.061,290.020 71.113,314.192 71.191 L 338.035 71.268 338.186 162.191 L 338.337 253.113 338.336 162.041 L 338.335 70.968 314.254 70.891 C 301.009 70.849,290.173 70.729,290.173 70.624 C 290.173 70.519,290.409 70.254,290.698 70.035 C 290.986 69.816,291.147 69.632,291.055 69.627 C 290.963 69.622,290.625 69.811,290.305 70.047 M58.296 71.418 C 58.296 72.161,58.355 72.464,58.426 72.093 C 58.498 71.722,58.498 71.114,58.426 70.743 C 58.355 70.371,58.296 70.675,58.296 71.418 M58.363 162.341 C 58.363 211.440,58.397 231.527,58.440 206.977 C 58.482 182.427,58.482 142.254,58.440 117.704 C 58.397 93.155,58.363 113.241,58.363 162.341 M288.200 94.657 C 287.891 95.886,288.227 96.024,291.520 96.024 C 294.815 96.024,295.320 95.776,294.798 94.416 C 294.442 93.487,288.438 93.706,288.200 94.657 M302.295 94.346 C 301.781 95.685,302.174 95.874,305.480 95.874 L 308.627 95.874 308.627 94.974 L 308.627 94.074 305.546 93.988 C 303.050 93.919,302.433 93.986,302.295 94.346 M315.688 95.406 C 314.791 97.164,314.915 99.730,315.903 99.871 C 316.775 99.995,317.061 99.178,317.017 96.691 C 316.973 94.197,316.525 93.765,315.688 95.406 M271.711 118.530 C 271.711 131.320,271.748 136.553,271.793 130.158 C 271.838 123.762,271.838 113.297,271.793 106.902 C 271.748 100.506,271.711 105.739,271.711 118.530 M232.707 107.037 C 233.202 107.116,233.718 107.338,233.855 107.529 C 234.023 107.764,234.065 107.731,233.983 107.427 C 233.909 107.150,233.467 106.960,232.835 106.934 C 231.894 106.896,231.883 106.904,232.707 107.037 M315.208 107.523 C 314.362 109.727,315.535 114.893,316.632 113.796 C 316.998 113.430,317.159 108.701,316.836 107.802 C 316.570 107.060,315.459 106.870,315.208 107.523 M315.279 121.430 C 315.169 121.540,315.079 123.026,315.079 124.731 L 315.079 127.832 315.979 127.832 C 316.632 127.832,316.882 127.688,316.890 127.307 C 317.016 121.396,316.996 121.230,316.179 121.230 C 315.794 121.230,315.389 121.320,315.279 121.430 M315.144 138.556 C 315.219 141.419,315.291 141.790,315.786 141.885 C 316.691 142.058,316.881 141.586,316.979 138.916 C 317.099 135.622,317.015 135.334,315.934 135.334 L 315.058 135.334 315.144 138.556 M271.699 151.088 C 271.699 155.379,271.741 157.093,271.792 154.896 C 271.844 152.699,271.843 149.189,271.792 147.094 C 271.740 145.000,271.698 146.797,271.699 151.088 M315.208 149.534 C 314.696 150.869,315.239 155.890,315.905 155.985 C 316.868 156.122,317.514 151.795,316.828 149.812 C 316.571 149.070,315.459 148.879,315.208 149.534 M282.971 163.091 C 282.971 164.624,282.875 165.041,282.521 165.041 C 282.167 165.041,282.071 164.624,282.071 163.091 C 282.071 161.557,282.167 161.140,282.521 161.140 C 282.875 161.140,282.971 161.557,282.971 163.091 M315.279 163.441 C 315.169 163.551,315.079 165.036,315.079 166.742 L 315.079 169.842 315.979 169.842 C 316.633 169.842,316.881 169.699,316.887 169.317 C 316.892 169.029,316.935 167.779,316.983 166.542 C 317.101 163.473,316.444 162.276,315.279 163.441 M285.842 168.308 C 285.617 168.674,286.471 169.340,286.859 169.100 C 287.253 168.857,287.270 168.042,286.881 168.042 C 286.721 168.042,286.675 168.263,286.779 168.533 C 286.910 168.873,286.838 168.977,286.544 168.871 C 286.312 168.786,286.155 168.565,286.197 168.380 C 286.286 167.977,286.074 167.934,285.842 168.308 M200.375 175.764 C 201.077 175.827,202.224 175.827,202.926 175.764 C 203.627 175.700,203.053 175.649,201.650 175.649 C 200.248 175.649,199.674 175.700,200.375 175.764 M315.144 180.567 C 315.219 183.429,315.291 183.801,315.786 183.896 C 316.704 184.072,316.917 183.547,316.994 180.910 C 317.091 177.619,317.010 177.344,315.934 177.344 L 315.058 177.344 315.144 180.567 M291.153 185.186 C 290.662 185.677,291.223 186.357,292.085 186.317 C 292.690 186.288,292.688 186.277,292.030 186.092 C 291.067 185.820,291.062 185.315,292.023 185.204 C 292.548 185.143,292.872 185.274,292.967 185.585 C 293.078 185.947,293.101 185.933,293.065 185.527 C 293.009 184.888,291.687 184.652,291.153 185.186 M244.396 188.131 C 243.697 188.826,244.354 194.591,245.144 194.702 C 246.332 194.870,246.662 194.059,246.662 190.973 C 246.662 188.731,246.572 188.177,246.187 188.029 C 245.493 187.763,244.722 187.806,244.396 188.131 M315.208 191.544 C 314.696 192.879,315.239 197.901,315.905 197.996 C 316.277 198.048,316.650 197.913,316.733 197.695 C 317.010 196.972,317.092 192.509,316.841 191.823 C 316.570 191.081,315.458 190.892,315.208 191.544 M244.261 205.348 C 244.261 208.344,244.291 208.490,244.936 208.666 C 246.163 208.999,246.580 208.044,246.519 205.048 L 246.465 202.401 245.363 202.307 L 244.261 202.214 244.261 205.348 M315.279 205.451 C 315.169 205.561,315.079 207.047,315.079 208.752 L 315.079 211.853 315.979 211.853 C 316.633 211.853,316.881 211.709,316.887 211.328 C 316.892 211.039,316.935 209.790,316.983 208.552 C 317.101 205.484,316.444 204.287,315.279 205.451 M244.390 216.452 C 243.813 217.955,244.425 222.507,245.216 222.599 C 246.322 222.726,246.551 222.104,246.505 219.105 C 246.478 217.300,246.348 216.529,246.039 216.334 C 245.410 215.936,244.565 215.996,244.390 216.452 M315.144 222.577 C 315.219 225.440,315.291 225.811,315.786 225.906 C 316.704 226.082,316.917 225.557,316.994 222.920 C 317.091 219.629,317.010 219.355,315.934 219.355 L 315.058 219.355 315.144 222.577 M244.320 231.553 C 244.428 233.202,245.497 234.278,246.660 233.909 C 248.088 233.456,246.750 230.158,245.138 230.158 C 244.242 230.158,244.230 230.179,244.320 231.553 M255.080 232.227 C 254.255 233.769,254.748 234.060,258.164 234.054 C 261.127 234.048,261.610 233.825,261.198 232.651 C 260.799 231.513,255.653 231.157,255.080 232.227 M269.049 232.133 C 268.414 233.788,268.922 234.078,272.373 234.029 C 275.107 233.991,275.399 233.814,275.045 232.407 C 274.807 231.459,269.403 231.212,269.049 232.133 M283.088 232.086 C 282.472 233.690,285.667 234.691,288.747 233.860 C 289.351 233.697,289.453 232.559,288.912 232.018 C 288.364 231.470,283.301 231.529,283.088 232.086 M297.091 232.227 C 296.266 233.769,296.758 234.060,300.175 234.054 C 303.137 234.048,303.620 233.825,303.208 232.651 C 302.809 231.513,297.664 231.157,297.091 232.227 M311.060 232.133 C 310.459 233.698,310.968 234.068,313.678 234.037 C 316.743 234.003,317.096 233.511,315.014 232.179 C 313.942 231.493,311.317 231.462,311.060 232.133 M129.882 255.289 C 167.731 255.331,229.577 255.331,267.316 255.289 C 305.056 255.247,274.089 255.213,198.500 255.213 C 122.911 255.213,92.033 255.247,129.882 255.289 " stroke="none" fill="#419ac6" fill-rule="evenodd"></path></g></svg>