<svg width="63" height="54" viewBox="0 0 63 54" fill="none" xmlns="http://www.w3.org/2000/svg">
<path id="Fill 29 Copy 5" fill-rule="evenodd" clip-rule="evenodd" d="M7.37713 6.59045C6.53169 6.59045 5.84381 5.95926 5.84381 5.18347C5.84381 4.40769 6.53169 3.77649 7.37713 3.77649C8.22257 3.77649 8.91035 4.40769 8.91035 5.18347C8.91035 5.95926 8.22257 6.59045 7.37713 6.59045ZM12.4224 6.59045C11.5769 6.59045 10.8891 5.95926 10.8891 5.18347C10.8891 4.40769 11.5769 3.77649 12.4224 3.77649C13.2679 3.77649 13.9557 4.40769 13.9557 5.18347C13.9557 5.95926 13.2679 6.59045 12.4224 6.59045ZM17.4677 6.59045C16.6223 6.59045 15.9344 5.95926 15.9344 5.18347C15.9344 4.40769 16.6223 3.77649 17.4677 3.77649C18.3131 3.77649 19.0009 4.40769 19.0009 5.18347C19.0009 5.95926 18.3131 6.59045 17.4677 6.59045ZM3.802 1.7373C2.74949 1.7373 1.89325 2.523 1.89325 3.48871V8.51709H60.8022V3.48871C60.8022 2.523 59.946 1.7373 58.8936 1.7373H3.802ZM1.89325 49.8461C1.89325 50.8118 2.74949 51.5975 3.802 51.5975H58.8936C59.946 51.5975 60.8022 50.8118 60.8022 49.8461V10.2545H1.89325V49.8461ZM3.80198 53.335C1.70551 53.335 0 51.7698 0 49.8462V3.48875C0 1.56504 1.70551 0 3.80198 0H58.8936C60.9899 0 62.6954 1.56504 62.6954 3.48875V49.8462C62.6954 51.7698 60.9899 53.335 58.8936 53.335H3.80198ZM36.5995 32.9846C36.5995 30.1546 33.5299 29.4774 31.0633 28.9335C28.465 28.3605 27.2411 27.9672 27.2411 26.8406C27.2411 26.2005 27.2416 24.703 30.695 24.6996C30.6987 24.6996 30.7019 24.7005 30.7057 24.7005C30.7094 24.7005 30.7122 24.6996 30.7154 24.6996C33.8512 24.7034 34.3202 26.271 34.3202 27.2065C34.3202 27.6723 34.7375 28.0504 35.2517 28.0504C35.7663 28.0504 36.1831 27.6723 36.1831 27.2065C36.1831 25.344 34.9634 23.3692 31.6371 23.0587V21.4283C31.6371 20.9624 31.2198 20.5844 30.7057 20.5844C30.191 20.5844 29.7742 20.9624 29.7742 21.4283V23.0502C25.9803 23.3536 25.3782 25.5132 25.3782 26.8406C25.3782 29.4166 28.2862 30.058 30.6228 30.5736C33.1824 31.1382 34.7366 31.5821 34.7366 32.9846C34.7366 33.8969 34.2611 35.4273 31.0783 35.4273C27.4688 35.4273 26.6561 33.1986 26.6561 32.4175C26.6561 31.9517 26.2393 31.5736 25.7247 31.5736C25.2105 31.5736 24.7932 31.9517 24.7932 32.4175C24.7932 34.0488 26.1769 36.532 29.7742 37.0227V38.6996C29.7742 39.1654 30.191 39.5435 30.7057 39.5435C31.2198 39.5435 31.6371 39.1654 31.6371 38.6996V37.0966C35.2787 36.9075 36.5995 34.8864 36.5995 32.9846ZM17.7094 29.9957C17.7094 36.5299 23.5024 41.8457 30.6226 41.8457C37.7432 41.8457 43.5357 36.5299 43.5357 29.9957C43.5357 23.4624 37.7446 18.1466 30.6258 18.1466C23.5024 18.1466 17.7094 23.4624 17.7094 29.9957ZM15.9385 30.0634C15.9385 22.5961 22.5592 16.5215 30.6963 16.5215C38.8358 16.5215 45.4542 22.5961 45.4542 30.0634C45.4542 37.5312 38.8339 43.6062 30.6963 43.6062C22.5592 43.6062 15.9385 37.5312 15.9385 30.0634Z" fill="url(#paint0_radial)"/>
<defs>
<radialGradient id="paint0_radial" cx="0" cy="0" r="1" gradientUnits="userSpaceOnUse" gradientTransform="translate(-15.2016 46.7744) rotate(-54.008) scale(50.4556 53.651)">
<stop stop-color="#50E3C2"/>
<stop offset="1" stop-color="#0045D8"/>
</radialGradient>
</defs>
</svg>
