<svg id="svg" version="1.1" xmlns="http://www.w3.org/2000/svg" xmlns:xlink="http://www.w3.org/1999/xlink" width="400" height="672.3076923076924" viewBox="0, 0, 400,672.3076923076924"><g id="svgg"><path id="path0" d="M21.718 11.851 C 21.996 12.130,29.671 12.062,29.955 11.778 C 30.053 11.680,28.183 11.600,25.800 11.600 C 23.417 11.600,21.580 11.713,21.718 11.851 M19.200 13.400 C 19.200 13.730,19.361 14.000,19.557 14.000 C 19.754 14.000,20.018 13.730,20.145 13.400 C 20.285 13.035,20.145 12.800,19.787 12.800 C 19.464 12.800,19.200 13.070,19.200 13.400 M17.671 19.820 L 17.743 24.200 17.982 20.200 C 18.114 18.000,18.082 16.029,17.911 15.820 C 17.740 15.611,17.632 17.411,17.671 19.820 M83.091 241.300 L 83.182 439.000 140.663 439.200 C 189.743 439.371,198.225 439.318,198.706 438.837 C 199.148 438.395,199.221 437.402,199.047 434.237 C 198.250 419.760,198.230 421.117,199.260 419.505 C 200.188 418.053,200.235 418.034,202.885 418.017 L 205.569 418.000 205.685 404.567 C 205.790 392.315,205.862 391.090,206.500 390.623 C 206.885 390.342,207.200 389.960,207.200 389.775 C 207.200 389.103,210.975 385.894,212.169 385.552 C 212.858 385.354,254.262 385.200,306.697 385.200 L 400.000 385.200 400.000 214.400 L 400.000 43.600 241.500 43.600 L 83.000 43.600 83.091 241.300 M124.259 114.095 C 124.427 114.368,124.511 118.451,124.445 123.170 C 124.312 132.674,124.186 133.171,121.700 134.019 C 120.985 134.263,120.400 134.637,120.400 134.851 C 120.400 135.066,119.815 135.491,119.100 135.797 C 117.611 136.433,113.692 138.879,112.800 139.727 C 112.470 140.042,111.795 140.424,111.300 140.576 C 109.716 141.065,109.381 142.322,110.685 142.884 C 111.298 143.149,112.430 143.844,113.200 144.429 C 113.970 145.014,115.050 145.634,115.600 145.805 C 116.150 145.977,117.359 146.676,118.286 147.358 C 119.214 148.041,120.467 148.960,121.072 149.400 C 121.676 149.840,122.702 150.391,123.351 150.624 L 124.531 151.048 124.566 160.720 C 124.593 168.333,124.489 170.434,124.078 170.592 C 123.086 170.972,119.838 169.273,116.000 166.367 C 115.230 165.784,114.150 165.170,113.600 165.004 C 113.050 164.837,112.309 164.408,111.953 164.050 C 111.403 163.496,110.020 162.566,107.200 160.850 C 106.870 160.650,106.150 160.287,105.600 160.045 C 104.488 159.556,100.950 157.144,99.966 156.205 C 99.618 155.872,99.059 155.600,98.724 155.600 C 98.389 155.600,97.324 154.996,96.358 154.258 C 95.391 153.521,94.193 152.788,93.696 152.630 C 92.384 152.214,91.499 150.317,92.001 148.996 C 92.520 147.634,92.520 135.168,92.002 133.805 C 91.586 132.710,93.001 130.800,94.228 130.800 C 94.509 130.800,95.273 130.350,95.927 129.800 C 96.581 129.250,97.226 128.800,97.362 128.800 C 97.497 128.800,98.505 128.170,99.600 127.400 C 100.695 126.630,101.853 126.000,102.172 126.000 C 102.492 126.000,102.867 125.815,103.007 125.589 C 103.359 125.019,109.300 121.202,109.838 121.201 C 110.079 121.200,110.602 120.840,111.000 120.400 C 111.398 119.960,111.883 119.600,112.078 119.600 C 112.445 119.600,114.570 118.179,115.518 117.300 C 115.814 117.025,116.269 116.800,116.529 116.799 C 116.788 116.799,117.990 116.092,119.200 115.229 C 121.456 113.619,123.659 113.125,124.259 114.095 M266.574 193.590 L 267.600 193.980 267.600 202.376 C 267.600 210.267,267.554 210.797,266.826 211.186 C 265.641 211.820,194.716 211.756,194.080 211.120 C 193.401 210.441,193.401 194.359,194.080 193.680 C 194.694 193.066,264.967 192.979,266.574 193.590 M183.900 194.193 C 184.512 194.416,184.631 210.210,184.023 210.586 C 183.237 211.071,152.767 210.870,152.171 210.376 C 151.330 209.678,151.330 194.591,152.171 194.120 C 152.754 193.793,182.993 193.863,183.900 194.193 M224.700 230.681 C 225.394 231.614,225.412 246.828,224.720 247.520 C 223.894 248.346,152.258 248.200,151.429 247.371 C 150.600 246.542,150.485 231.750,151.300 230.722 C 152.062 229.761,150.599 229.794,188.499 229.904 C 221.396 230.001,224.239 230.062,224.700 230.681 M257.253 230.873 C 257.751 231.657,257.689 247.098,257.187 247.408 C 256.637 247.748,234.979 247.758,234.430 247.418 C 233.542 246.870,233.870 230.822,234.775 230.487 C 236.265 229.935,256.883 230.289,257.253 230.873 M312.618 230.829 C 312.982 231.418,313.006 246.543,312.644 247.129 C 312.334 247.630,269.117 247.850,267.833 247.357 C 266.992 247.035,266.865 231.002,267.700 230.665 C 268.766 230.235,312.349 230.394,312.618 230.829 M266.826 266.414 C 267.907 266.992,268.040 284.145,266.967 284.557 C 265.806 285.003,152.412 284.834,151.574 284.386 C 150.474 283.797,150.373 267.934,151.462 266.731 C 152.242 265.869,265.227 265.558,266.826 266.414 M334.386 303.574 C 334.630 304.030,334.800 307.490,334.800 312.000 C 334.800 316.510,334.630 319.970,334.386 320.426 C 333.978 321.188,332.532 321.200,243.009 321.200 L 152.045 321.200 151.423 320.311 C 150.913 319.584,150.800 318.070,150.800 312.000 C 150.800 305.930,150.913 304.416,151.423 303.689 L 152.045 302.800 243.009 302.800 C 332.532 302.800,333.978 302.812,334.386 303.574 M174.265 340.500 C 174.824 341.397,174.504 356.487,173.917 356.860 C 173.144 357.350,153.301 357.282,152.374 356.786 C 151.427 356.279,151.159 341.401,152.080 340.480 C 152.783 339.777,173.826 339.796,174.265 340.500 M224.557 340.633 C 224.972 341.713,224.828 355.600,224.394 356.412 C 223.749 357.616,185.462 357.637,184.818 356.433 C 184.360 355.577,184.221 340.713,184.667 340.267 C 185.318 339.615,224.304 339.973,224.557 340.633 M215.916 393.318 C 212.854 395.138,212.520 396.700,212.777 408.000 L 213.000 417.800 215.717 417.919 C 218.158 418.025,218.480 418.137,218.881 419.019 C 219.127 419.558,219.508 420.000,219.727 420.000 C 219.989 420.000,220.014 422.836,219.800 428.300 C 219.346 439.848,219.303 439.053,220.400 439.209 C 220.730 439.256,261.275 439.273,310.500 439.247 L 400.000 439.200 400.000 415.800 L 400.000 392.400 308.700 392.418 L 217.400 392.435 215.916 393.318 M204.806 434.700 C 204.813 438.455,205.203 439.757,206.063 438.897 C 206.711 438.249,211.676 438.236,212.320 438.880 C 213.384 439.944,213.716 438.796,213.647 434.300 L 213.600 431.200 209.200 431.200 L 204.800 431.200 204.806 434.700 " stroke="none" fill="#838282" fill-rule="evenodd"></path><path id="path1" d="M2.000 0.600 C 2.000 0.930,2.180 1.200,2.400 1.200 C 2.620 1.200,2.800 0.930,2.800 0.600 C 2.800 0.270,2.620 0.000,2.400 0.000 C 2.180 0.000,2.000 0.270,2.000 0.600 M6.400 0.613 C 6.400 0.949,6.145 1.323,5.834 1.442 C 5.522 1.562,4.758 2.411,4.135 3.330 C 3.512 4.248,2.874 5.096,2.717 5.214 C 2.560 5.332,2.152 6.097,1.810 6.914 C 1.469 7.731,0.922 8.400,0.595 8.400 C 0.078 8.400,-0.000 10.681,-0.000 25.900 L -0.000 43.400 40.500 43.304 C 66.489 43.243,81.416 43.063,82.160 42.804 C 82.933 42.535,136.057 42.400,241.660 42.400 L 400.000 42.400 400.000 23.200 L 400.000 3.999 398.400 2.446 C 397.520 1.592,396.800 0.693,396.800 0.447 C 396.800 0.118,345.100 0.000,201.600 0.000 C 26.578 0.000,6.400 0.063,6.400 0.613 M31.495 11.229 C 32.228 11.873,32.984 12.400,33.176 12.400 C 33.606 12.400,35.599 15.744,35.602 16.471 C 35.604 16.762,35.871 17.510,36.197 18.134 C 36.719 19.136,36.719 19.338,36.194 19.863 C 35.850 20.208,35.600 21.193,35.600 22.209 C 35.600 24.145,33.778 27.363,32.440 27.787 C 32.036 27.916,31.384 28.376,30.991 28.810 C 30.019 29.884,20.676 30.022,20.088 28.971 C 19.894 28.624,19.305 28.127,18.779 27.864 C 16.064 26.511,14.016 17.403,15.925 15.170 C 16.193 14.857,17.035 13.761,17.796 12.737 C 20.227 9.466,28.455 8.560,31.495 11.229 M81.597 11.353 C 84.748 13.846,87.003 18.234,86.096 20.105 C 85.857 20.597,85.550 21.804,85.413 22.787 C 85.190 24.377,83.601 27.163,82.702 27.538 C 82.520 27.614,81.856 28.109,81.227 28.638 C 79.546 30.053,71.790 30.095,69.921 28.700 C 66.178 25.906,65.449 24.204,65.663 18.752 C 65.779 15.796,65.937 15.117,66.700 14.306 C 67.195 13.779,67.600 13.166,67.600 12.944 C 67.600 9.915,78.250 8.704,81.597 11.353 M55.420 10.832 C 55.567 11.070,56.203 11.579,56.834 11.962 C 59.383 13.512,61.716 18.527,60.618 20.096 C 60.278 20.581,60.000 21.748,60.000 22.689 C 60.000 24.371,59.747 24.847,57.785 26.855 C 54.454 30.264,48.900 30.837,44.787 28.196 C 40.058 25.161,39.532 16.839,43.765 12.056 C 45.159 10.481,54.591 9.491,55.420 10.832 M80.012 52.585 C 79.432 53.284,2.743 53.344,0.900 52.647 L 0.000 52.307 0.000 241.396 C -0.000 421.345,0.034 430.469,0.700 430.143 C 1.799 429.605,79.189 429.493,79.834 430.029 C 80.126 430.271,80.553 430.353,80.782 430.211 C 81.291 429.896,81.367 53.283,80.859 52.481 C 80.596 52.067,80.425 52.088,80.012 52.585 M67.179 84.779 C 67.837 85.195,68.250 89.544,67.839 91.731 C 67.406 94.039,67.875 94.000,40.610 94.000 L 15.658 94.000 14.792 92.900 C 13.773 91.606,13.744 86.273,14.749 85.061 C 15.375 84.307,66.002 84.034,67.179 84.779 M53.920 98.480 C 54.498 99.058,54.570 105.511,54.009 106.400 C 53.341 107.456,15.345 107.286,14.568 106.224 C 13.869 105.269,13.801 100.475,14.464 99.019 L 14.928 98.000 34.184 98.000 C 48.628 98.000,53.560 98.120,53.920 98.480 M32.642 112.208 C 33.321 113.244,33.325 118.827,32.647 119.924 C 32.434 120.268,29.944 120.400,23.641 120.400 L 14.928 120.400 14.464 119.381 C 13.856 118.046,13.889 113.177,14.513 112.365 C 15.308 111.329,15.849 111.265,24.091 111.232 L 31.982 111.200 32.642 112.208 M67.200 112.000 C 68.160 112.960,68.372 118.538,67.495 119.738 C 66.861 120.604,36.788 120.820,35.759 119.966 C 35.362 119.636,35.200 118.532,35.200 116.151 C 35.200 110.823,33.950 111.200,51.600 111.200 C 65.867 111.200,66.429 111.229,67.200 112.000 M44.000 148.400 C 45.059 149.459,45.187 155.556,44.171 156.571 C 43.194 157.549,15.562 157.518,14.749 156.539 C 13.744 155.327,13.773 149.994,14.792 148.700 L 15.658 147.600 29.429 147.600 C 42.667 147.600,43.231 147.631,44.000 148.400 M61.371 148.229 C 62.112 148.969,62.273 155.142,61.586 156.426 C 61.081 157.370,48.594 157.634,47.680 156.720 C 46.851 155.891,47.037 148.535,47.900 148.032 C 49.126 147.318,60.628 147.486,61.371 148.229 M67.200 161.592 C 68.001 162.098,68.069 169.291,67.280 170.080 C 66.754 170.606,17.787 171.118,15.751 170.619 C 14.023 170.195,13.281 163.631,14.759 161.849 C 15.386 161.094,66.019 160.845,67.200 161.592 M211.891 387.200 C 211.331 387.640,210.743 388.000,210.583 388.000 C 210.088 388.000,208.265 390.129,207.514 391.585 C 206.871 392.831,206.800 394.280,206.800 406.141 L 206.800 419.312 204.531 419.078 C 202.639 418.882,202.069 418.981,201.100 419.671 L 199.938 420.498 200.226 430.038 L 200.514 439.577 199.431 439.988 C 197.764 440.622,83.848 440.519,82.000 439.882 C 80.935 439.516,70.943 439.424,40.300 439.502 L 0.000 439.604 0.000 474.626 L 0.000 509.649 6.700 509.568 L 13.400 509.487 13.538 510.421 C 13.790 512.127,12.768 512.400,6.124 512.400 L 0.000 512.400 0.000 535.019 L 0.000 557.637 13.900 557.576 L 27.800 557.516 27.920 558.492 C 28.164 560.470,27.795 560.520,13.391 560.432 L 0.000 560.351 0.000 583.157 L 0.000 605.962 1.939 605.733 C 4.370 605.445,4.947 606.290,3.385 607.852 C 2.583 608.653,2.135 608.805,1.189 608.598 L 0.000 608.336 0.000 640.168 L 0.000 672.000 200.000 672.000 L 400.000 672.000 400.000 639.971 C 400.000 612.933,399.912 607.855,399.436 607.378 C 398.857 606.800,399.012 605.200,399.647 605.200 C 399.847 605.200,400.000 595.484,400.000 582.774 L 400.000 560.347 388.216 560.436 C 375.516 560.532,375.038 560.460,375.280 558.488 L 375.400 557.507 387.700 557.574 L 400.000 557.641 400.000 499.020 L 400.000 440.400 310.100 440.394 C 238.075 440.389,220.001 440.287,219.200 439.879 L 218.200 439.369 218.200 429.833 L 218.200 420.296 217.200 419.577 C 216.422 419.017,215.738 418.906,214.118 419.078 L 212.037 419.298 211.918 421.522 C 211.699 425.639,206.800 425.671,206.800 421.555 L 206.800 419.200 209.182 419.200 L 211.564 419.200 211.843 417.712 C 211.996 416.894,212.013 411.955,211.880 406.738 C 211.603 395.839,211.775 395.097,215.140 392.659 L 216.879 391.400 308.439 391.297 L 400.000 391.193 400.000 388.797 L 400.000 386.400 306.454 386.400 C 213.514 386.400,212.901 386.405,211.891 387.200 M214.540 430.446 C 215.114 430.707,215.593 431.327,215.700 431.946 C 216.009 433.743,215.736 439.224,215.316 439.644 C 214.878 440.082,204.917 440.218,203.610 439.803 C 202.315 439.392,202.382 431.538,203.689 430.623 C 204.766 429.868,212.979 429.734,214.540 430.446 M61.520 510.515 C 61.758 512.402,61.626 512.415,42.769 512.304 L 25.031 512.200 24.415 511.090 C 23.472 509.387,23.393 509.394,43.062 509.481 L 61.400 509.562 61.520 510.515 M109.948 509.815 C 110.075 509.942,109.907 510.530,109.574 511.123 L 108.969 512.200 91.231 512.304 C 78.467 512.379,73.339 512.281,72.946 511.955 C 72.439 511.535,72.187 509.947,72.567 509.567 C 72.824 509.309,109.687 509.554,109.948 509.815 M158.000 510.436 C 158.000 512.327,157.291 512.400,139.014 512.400 C 120.914 512.400,120.933 512.402,120.366 510.912 C 119.779 509.368,119.378 509.400,139.162 509.400 L 158.000 509.400 158.000 510.436 M205.927 510.585 C 206.141 512.306,205.140 512.401,186.874 512.387 C 169.079 512.374,168.910 512.358,168.274 510.664 C 167.800 509.403,167.880 509.398,187.062 509.485 L 205.800 509.570 205.927 510.585 M253.938 510.455 C 254.230 512.363,253.860 512.401,235.224 512.387 C 216.721 512.374,216.400 512.341,216.400 510.489 C 216.400 509.337,215.358 509.392,235.501 509.478 L 253.800 509.555 253.938 510.455 M302.295 509.762 C 302.393 509.859,302.229 510.448,301.931 511.070 L 301.389 512.200 283.995 512.311 C 274.428 512.372,266.216 512.329,265.747 512.215 C 264.994 512.033,264.205 510.239,264.599 509.602 C 264.751 509.355,302.046 509.513,302.295 509.762 M350.325 510.169 C 350.393 510.489,350.078 511.122,349.625 511.575 C 348.703 512.497,315.747 512.892,313.426 512.010 C 312.508 511.661,311.978 510.155,312.567 509.567 C 313.106 509.027,350.207 509.619,350.325 510.169 M398.327 510.585 C 398.541 512.305,397.539 512.400,379.174 512.400 C 362.533 512.400,361.975 512.375,361.200 511.600 C 360.456 510.856,360.176 509.957,360.567 509.567 C 360.658 509.475,369.163 509.438,379.467 509.485 L 398.200 509.570 398.327 510.585 M76.400 558.238 C 76.400 560.436,76.378 560.438,57.547 560.447 C 39.862 560.455,39.041 560.405,38.622 559.313 C 37.871 557.356,37.433 557.400,57.595 557.400 L 76.400 557.400 76.400 558.238 M124.400 558.238 C 124.400 560.443,124.393 560.443,105.400 560.443 C 89.464 560.443,87.844 560.383,87.156 559.760 C 86.466 559.136,86.155 557.978,86.567 557.567 C 86.658 557.475,95.209 557.400,105.567 557.400 L 124.400 557.400 124.400 558.238 M172.315 558.284 C 172.666 560.481,172.892 560.455,153.585 560.453 L 135.800 560.452 135.045 559.457 C 133.458 557.366,133.204 557.394,153.449 557.481 C 171.176 557.558,172.206 557.602,172.315 558.284 M220.315 558.284 C 220.665 560.477,220.884 560.452,201.659 560.452 C 188.577 560.452,183.795 560.327,183.372 559.977 C 182.845 559.539,182.578 557.955,182.967 557.567 C 183.626 556.908,220.208 557.610,220.315 558.284 M268.717 558.117 C 268.781 558.421,268.511 559.068,268.117 559.555 L 267.400 560.440 249.615 560.447 C 233.096 560.454,231.793 560.405,231.315 559.751 C 230.815 559.067,230.629 557.904,230.967 557.567 C 231.481 557.052,268.606 557.593,268.717 558.117 M316.725 558.356 C 317.037 560.350,316.245 560.437,297.606 560.448 C 278.828 560.460,278.800 560.457,278.800 558.238 L 278.800 557.400 297.700 557.481 C 316.206 557.561,316.603 557.580,316.725 558.356 M364.614 558.044 C 365.373 560.436,365.221 560.455,345.653 560.447 C 326.822 560.438,326.800 560.436,326.800 558.238 L 326.800 557.400 345.605 557.400 C 362.536 557.400,364.430 557.464,364.614 558.044 M51.980 605.963 C 52.289 606.540,52.218 606.936,51.691 607.587 C 50.718 608.789,16.464 608.944,15.148 607.753 C 12.988 605.798,13.067 605.790,32.178 605.932 C 44.108 606.021,50.193 605.926,50.678 605.644 C 51.605 605.105,51.508 605.081,51.980 605.963 M99.909 607.440 C 99.656 607.996,99.120 608.407,98.636 608.416 C 84.289 608.695,63.737 608.286,63.099 607.709 C 61.129 605.925,61.502 605.887,80.200 605.930 C 89.880 605.952,98.160 605.815,98.600 605.626 C 99.756 605.129,100.495 606.153,99.909 607.440 M130.400 605.853 C 149.229 605.909,149.224 605.909,147.860 607.684 C 147.396 608.288,127.130 608.704,112.164 608.416 C 111.108 608.396,110.326 606.832,110.879 605.845 C 111.151 605.358,111.476 605.243,111.936 605.471 C 112.301 605.652,120.610 605.824,130.400 605.853 M176.874 605.983 C 185.743 605.973,193.765 605.817,194.700 605.636 C 196.661 605.257,197.280 606.858,195.582 607.919 C 194.443 608.630,160.224 608.683,159.370 607.975 C 158.200 607.004,158.772 604.943,160.026 605.614 C 160.457 605.845,167.244 605.993,176.874 605.983 M226.849 605.909 C 235.732 605.849,243.270 605.710,243.600 605.600 C 244.417 605.328,244.635 607.307,243.859 607.951 C 242.912 608.737,208.180 608.637,207.389 607.846 C 205.938 606.395,206.634 605.279,208.749 605.664 C 209.821 605.858,217.966 605.969,226.849 605.909 M292.304 606.431 C 292.527 608.519,293.042 608.464,273.792 608.417 C 257.361 608.376,255.824 608.315,255.341 607.686 C 253.956 605.883,253.933 605.885,272.600 605.953 C 283.828 605.993,290.417 605.871,290.800 605.615 C 291.664 605.037,292.185 605.319,292.304 606.431 M322.916 605.974 C 333.438 605.931,340.212 606.052,340.448 606.288 C 342.366 608.206,330.133 608.932,304.596 608.416 C 303.467 608.393,302.662 607.005,303.198 606.003 C 303.548 605.349,303.786 605.290,304.691 605.635 C 305.376 605.895,312.015 606.019,322.916 605.974 M371.034 605.932 C 390.132 605.790,390.212 605.799,388.052 607.753 C 386.736 608.944,352.482 608.789,351.509 607.587 C 350.540 606.390,351.222 604.969,352.451 605.627 C 353.018 605.931,358.705 606.024,371.034 605.932 M42.703 654.309 C 42.771 654.512,42.505 655.072,42.113 655.552 L 41.400 656.426 23.665 656.433 C 10.683 656.438,5.779 656.314,5.365 655.971 C 4.834 655.530,4.597 654.336,4.967 653.967 C 5.320 653.613,42.584 653.951,42.703 654.309 M350.089 654.896 C 350.027 655.382,349.727 655.921,349.420 656.093 C 349.114 656.264,282.564 656.405,201.532 656.405 C 42.755 656.405,52.800 656.534,52.800 654.504 C 52.800 653.833,59.793 653.805,201.500 653.905 L 350.200 654.010 350.089 654.896 M398.312 654.496 C 398.715 656.373,388.723 656.897,361.909 656.405 C 361.464 656.397,360.305 654.478,360.527 654.118 C 360.890 653.531,398.184 653.904,398.312 654.496 " stroke="none" fill="#f2f3f3" fill-rule="evenodd"></path><path id="path2" d="M0.000 2.567 C 0.000 4.246,0.173 5.203,0.500 5.335 C 0.900 5.496,0.900 5.543,0.500 5.568 C -0.089 5.606,-0.186 6.800,0.400 6.800 C 0.620 6.800,0.800 6.634,0.800 6.431 C 0.800 6.228,1.225 5.553,1.745 4.931 C 3.221 3.165,3.427 2.087,2.317 1.930 C 1.722 1.846,1.355 1.484,1.272 0.900 C 0.964 -1.271,-0.000 -0.009,0.000 2.567 M3.600 0.833 C 3.600 1.808,4.535 1.670,4.729 0.667 C 4.806 0.272,4.602 0.000,4.229 0.000 C 3.858 0.000,3.600 0.342,3.600 0.833 M398.400 0.613 C 398.400 1.250,399.463 1.871,399.865 1.468 C 400.097 1.237,399.055 0.000,398.629 0.000 C 398.503 0.000,398.400 0.276,398.400 0.613 M21.715 11.126 C 20.667 11.275,18.618 13.207,17.402 15.192 C 15.739 17.906,17.548 27.200,19.738 27.200 C 20.034 27.200,20.602 27.560,21.000 28.000 C 21.635 28.701,22.232 28.800,25.848 28.800 C 29.562 28.800,30.014 28.721,30.400 28.000 C 30.635 27.560,31.052 27.200,31.325 27.200 C 32.681 27.200,34.726 23.443,34.633 21.125 C 34.592 20.094,34.707 19.342,34.888 19.455 C 35.070 19.567,35.095 18.881,34.944 17.929 C 34.698 16.379,32.796 13.255,31.850 12.850 C 31.658 12.768,31.175 12.375,30.778 11.978 C 30.082 11.282,24.383 10.746,21.715 11.126 M69.891 12.429 C 69.071 13.105,68.400 13.917,68.400 14.233 C 68.400 14.549,68.040 15.116,67.600 15.493 C 66.777 16.197,66.330 24.000,67.112 24.000 C 67.284 24.000,67.616 24.506,67.849 25.124 C 68.101 25.793,68.854 26.524,69.705 26.928 C 70.492 27.301,71.210 27.830,71.301 28.104 C 71.595 28.984,79.545 28.805,79.828 27.911 C 79.952 27.520,80.398 27.200,80.818 27.200 C 81.238 27.200,81.889 26.705,82.265 26.100 C 82.641 25.495,83.261 24.730,83.642 24.400 C 84.136 23.973,84.359 23.107,84.416 21.400 C 84.564 16.920,84.444 16.164,83.400 15.038 C 82.850 14.444,82.400 13.698,82.400 13.379 C 82.400 13.061,82.042 12.800,81.603 12.800 C 81.165 12.800,80.582 12.440,80.307 12.000 C 79.378 10.512,71.840 10.823,69.891 12.429 M29.955 11.778 C 29.671 12.062,21.996 12.130,21.718 11.851 C 21.580 11.713,23.417 11.600,25.800 11.600 C 28.183 11.600,30.053 11.680,29.955 11.778 M20.145 13.400 C 20.018 13.730,19.754 14.000,19.557 14.000 C 19.361 14.000,19.200 13.730,19.200 13.400 C 19.200 13.070,19.464 12.800,19.787 12.800 C 20.145 12.800,20.285 13.035,20.145 13.400 M17.982 20.200 L 17.743 24.200 17.671 19.820 C 17.632 17.411,17.740 15.611,17.911 15.820 C 18.082 16.029,18.114 18.000,17.982 20.200 M162.300 43.500 C 205.915 43.556,277.285 43.556,320.900 43.500 C 364.515 43.444,328.830 43.398,241.600 43.398 C 154.370 43.398,118.685 43.444,162.300 43.500 M82.600 241.200 C 82.600 372.604,82.734 439.099,83.000 439.294 C 83.220 439.456,109.140 439.546,140.600 439.496 L 197.800 439.404 140.482 439.202 L 83.164 439.000 83.143 246.200 C 83.131 140.160,83.004 51.150,82.861 48.400 C 82.717 45.650,82.600 132.410,82.600 241.200 M119.200 115.229 C 117.990 116.092,116.788 116.799,116.529 116.799 C 116.269 116.800,115.814 117.025,115.518 117.300 C 114.570 118.179,112.445 119.600,112.078 119.600 C 111.883 119.600,111.398 119.960,111.000 120.400 C 110.602 120.840,110.079 121.200,109.838 121.201 C 109.300 121.202,103.359 125.019,103.007 125.589 C 102.867 125.815,102.492 126.000,102.172 126.000 C 101.853 126.000,100.695 126.630,99.600 127.400 C 98.505 128.170,97.497 128.800,97.362 128.800 C 97.226 128.800,96.581 129.250,95.927 129.800 C 95.273 130.350,94.509 130.800,94.228 130.800 C 93.001 130.800,91.586 132.710,92.002 133.805 C 92.520 135.168,92.520 147.634,92.001 148.996 C 91.499 150.317,92.384 152.214,93.696 152.630 C 94.193 152.788,95.391 153.521,96.358 154.258 C 97.324 154.996,98.389 155.600,98.724 155.600 C 99.059 155.600,99.618 155.872,99.966 156.205 C 100.950 157.144,104.488 159.556,105.600 160.045 C 106.150 160.287,106.870 160.650,107.200 160.850 C 110.020 162.566,111.403 163.496,111.953 164.050 C 112.309 164.408,113.050 164.837,113.600 165.004 C 114.150 165.170,115.230 165.784,116.000 166.367 C 119.838 169.273,123.086 170.972,124.078 170.592 C 124.489 170.434,124.593 168.333,124.566 160.720 L 124.531 151.048 123.351 150.624 C 122.702 150.391,121.676 149.840,121.072 149.400 C 120.467 148.960,119.214 148.041,118.286 147.358 C 117.359 146.676,116.150 145.977,115.600 145.805 C 115.050 145.634,113.970 145.014,113.200 144.429 C 112.430 143.844,111.298 143.149,110.685 142.884 C 109.381 142.322,109.716 141.065,111.300 140.576 C 111.795 140.424,112.470 140.042,112.800 139.727 C 113.692 138.879,117.611 136.433,119.100 135.797 C 119.815 135.491,120.400 135.066,120.400 134.851 C 120.400 134.637,120.985 134.263,121.700 134.019 C 124.186 133.171,124.312 132.674,124.445 123.170 C 124.596 112.407,124.134 111.708,119.200 115.229 M123.508 122.971 C 123.620 132.092,123.334 133.600,121.488 133.600 C 121.283 133.600,120.581 134.050,119.927 134.600 C 119.273 135.150,118.496 135.600,118.200 135.600 C 117.904 135.600,116.836 136.230,115.827 137.000 C 114.818 137.770,113.827 138.400,113.625 138.400 C 113.423 138.400,112.955 138.702,112.585 139.072 C 112.216 139.441,111.348 140.026,110.657 140.372 C 109.190 141.105,108.737 142.660,109.872 143.061 C 110.272 143.202,111.140 143.716,111.800 144.201 C 112.460 144.687,113.810 145.497,114.800 146.000 C 115.790 146.503,117.140 147.326,117.800 147.828 C 118.460 148.329,120.080 149.390,121.400 150.184 L 123.800 151.629 123.657 159.422 C 123.558 164.800,123.654 167.383,123.964 167.757 C 124.211 168.055,124.301 168.591,124.164 168.949 C 123.690 170.184,121.902 169.646,118.328 167.194 C 116.399 165.871,114.381 164.621,113.843 164.416 C 113.306 164.212,111.636 163.169,110.133 162.100 C 108.630 161.030,107.064 160.027,106.653 159.872 C 105.959 159.609,104.001 158.375,95.838 153.059 L 92.677 151.000 92.638 141.745 L 92.600 132.490 94.400 131.427 C 96.754 130.036,103.163 126.031,106.200 124.054 C 107.520 123.195,109.353 122.066,110.273 121.546 C 111.193 121.026,112.993 119.917,114.273 119.082 C 124.348 112.508,123.374 112.097,123.508 122.971 M194.080 193.680 C 193.401 194.359,193.401 210.441,194.080 211.120 C 194.716 211.756,265.641 211.820,266.826 211.186 C 267.554 210.797,267.600 210.267,267.600 202.376 L 267.600 193.980 266.574 193.590 C 264.967 192.979,194.694 193.066,194.080 193.680 M152.171 194.120 C 151.330 194.591,151.330 209.678,152.171 210.376 C 152.767 210.870,183.237 211.071,184.023 210.586 C 184.631 210.210,184.512 194.416,183.900 194.193 C 182.993 193.863,152.754 193.793,152.171 194.120 M265.884 194.320 C 266.404 194.650,266.705 209.582,266.209 210.386 C 265.883 210.913,195.859 210.966,194.874 210.440 C 193.846 209.891,194.076 194.546,195.116 194.273 C 196.325 193.955,265.382 194.001,265.884 194.320 M152.299 229.946 C 150.962 230.337,150.800 231.323,150.800 239.048 C 150.800 245.510,150.901 246.844,151.429 247.371 C 152.258 248.200,223.894 248.346,224.720 247.520 C 225.412 246.828,225.394 231.614,224.700 230.681 C 224.239 230.061,154.333 229.351,152.299 229.946 M234.775 230.487 C 233.870 230.822,233.542 246.870,234.430 247.418 C 234.979 247.758,256.637 247.748,257.187 247.408 C 257.689 247.098,257.751 231.657,257.253 230.873 C 256.883 230.289,236.265 229.935,234.775 230.487 M267.700 230.665 C 266.865 231.002,266.992 247.035,267.833 247.357 C 269.117 247.850,312.334 247.630,312.644 247.129 C 313.006 246.543,312.982 231.418,312.618 230.829 C 312.349 230.394,268.766 230.235,267.700 230.665 M224.200 239.000 L 224.200 247.000 188.425 247.102 C 160.069 247.183,152.584 247.100,152.331 246.702 C 151.946 246.095,151.887 231.446,152.269 231.065 C 152.417 230.917,168.662 230.842,188.369 230.898 L 224.200 231.000 224.200 239.000 M236.778 232.226 C 236.486 232.578,236.372 234.933,236.440 239.174 C 236.497 242.703,236.421 245.712,236.272 245.862 C 236.122 246.011,236.000 242.779,236.000 238.679 C 236.000 232.162,236.077 231.255,236.610 231.459 C 237.069 231.635,237.111 231.826,236.778 232.226 M151.462 266.731 C 150.373 267.934,150.474 283.797,151.574 284.386 C 152.412 284.834,265.806 285.003,266.967 284.557 C 268.040 284.145,267.907 266.992,266.826 266.414 C 265.227 265.558,152.242 265.869,151.462 266.731 M266.595 267.452 C 267.308 268.165,267.374 283.163,266.667 283.868 C 266.154 284.379,153.333 284.499,152.381 283.990 C 151.427 283.479,151.152 268.208,152.080 267.280 C 152.929 266.431,265.744 266.601,266.595 267.452 M151.423 303.689 C 150.913 304.416,150.800 305.930,150.800 312.000 C 150.800 318.070,150.913 319.584,151.423 320.311 L 152.045 321.200 243.009 321.200 C 332.532 321.200,333.978 321.188,334.386 320.426 C 334.630 319.970,334.800 316.510,334.800 312.000 C 334.800 307.490,334.630 304.030,334.386 303.574 C 333.978 302.812,332.532 302.800,243.009 302.800 L 152.045 302.800 151.423 303.689 M333.586 304.374 C 334.102 305.339,334.145 319.463,333.632 319.780 C 333.149 320.079,152.855 320.081,152.372 319.782 C 151.966 319.532,151.859 305.965,152.252 304.500 L 152.493 303.600 242.833 303.600 C 331.739 303.600,333.178 303.612,333.586 304.374 M152.080 340.480 C 151.159 341.401,151.427 356.279,152.374 356.786 C 153.301 357.282,173.144 357.350,173.917 356.860 C 174.504 356.487,174.824 341.397,174.265 340.500 C 173.826 339.796,152.783 339.777,152.080 340.480 M184.667 340.267 C 184.221 340.713,184.360 355.577,184.818 356.433 C 185.462 357.637,223.749 357.616,224.394 356.412 C 224.828 355.600,224.972 341.713,224.557 340.633 C 224.304 339.973,185.318 339.615,184.667 340.267 M259.500 385.500 C 285.295 385.557,327.505 385.557,353.300 385.500 C 379.095 385.443,357.990 385.397,306.400 385.397 C 254.810 385.397,233.705 385.443,259.500 385.500 M210.629 386.229 C 209.477 387.380,210.490 387.084,212.367 385.721 C 212.458 385.654,212.246 385.600,211.895 385.600 C 211.544 385.600,210.974 385.883,210.629 386.229 M205.990 391.426 C 205.759 392.034,205.636 397.694,205.689 405.326 L 205.779 418.200 205.989 404.961 C 206.155 394.569,206.318 391.580,206.749 391.061 C 207.118 390.616,207.148 390.400,206.839 390.400 C 206.587 390.400,206.205 390.862,205.990 391.426 M263.100 392.300 C 288.235 392.357,329.365 392.357,354.500 392.300 C 379.635 392.243,359.070 392.197,308.800 392.197 C 258.530 392.197,237.965 392.243,263.100 392.300 M212.972 396.187 C 212.616 396.730,212.387 397.336,212.462 397.534 C 212.538 397.732,212.892 397.288,213.249 396.547 C 214.014 394.962,213.884 394.794,212.972 396.187 M212.520 401.600 C 212.520 402.810,212.595 403.305,212.687 402.700 C 212.778 402.095,212.778 401.105,212.687 400.500 C 212.595 399.895,212.520 400.390,212.520 401.600 M199.260 419.505 C 198.230 421.117,198.250 419.760,199.047 434.237 C 199.235 437.660,199.168 438.374,198.606 438.937 C 197.904 439.639,198.229 439.823,199.146 439.242 C 199.595 438.957,199.640 437.306,199.399 429.918 C 199.087 420.340,199.320 418.740,201.095 418.277 C 201.690 418.121,201.675 418.088,201.000 418.063 C 200.497 418.045,199.851 418.580,199.260 419.505 M217.474 418.403 C 219.109 419.061,219.247 419.970,219.170 429.569 C 219.095 438.974,219.171 439.633,220.324 439.554 C 220.936 439.512,220.938 439.491,220.341 439.332 C 219.388 439.079,219.297 438.307,219.641 433.400 C 220.061 427.407,220.074 420.000,219.664 420.000 C 219.480 420.000,219.123 419.550,218.873 419.000 C 218.574 418.345,218.104 418.009,217.509 418.025 L 216.600 418.051 217.474 418.403 M204.358 431.679 C 203.828 432.669,203.853 438.406,204.389 438.947 C 204.985 439.547,214.050 439.359,214.468 438.739 C 215.080 437.830,214.695 431.631,214.000 431.191 C 212.634 430.328,204.871 430.721,204.358 431.679 M213.647 434.300 C 213.716 438.796,213.384 439.944,212.320 438.880 C 211.676 438.236,206.711 438.249,206.063 438.897 C 205.203 439.757,204.813 438.455,204.806 434.700 L 204.800 431.200 209.200 431.200 L 213.600 431.200 213.647 434.300 M265.932 439.500 C 290.645 439.557,330.965 439.557,355.532 439.500 C 380.099 439.443,359.880 439.397,310.600 439.397 C 261.320 439.397,241.219 439.443,265.932 439.500 " stroke="none" fill="#949292" fill-rule="evenodd"></path><path id="path3" d="M3.254 0.513 C 3.183 1.442,2.029 1.874,1.529 1.158 C 1.204 0.694,1.166 0.701,1.301 1.200 C 1.390 1.530,1.861 1.859,2.349 1.930 C 3.685 2.126,3.254 3.177,0.394 6.683 C -0.114 7.306,-0.105 7.600,0.420 7.600 C 0.652 7.600,1.104 6.970,1.426 6.200 C 1.748 5.430,2.166 4.800,2.357 4.800 C 2.547 4.800,2.919 4.278,3.184 3.640 C 3.448 3.001,4.100 2.070,4.632 1.570 C 5.624 0.638,5.874 -0.000,5.247 0.000 C 5.052 0.000,4.799 0.360,4.684 0.800 C 4.403 1.874,3.697 1.816,3.482 0.700 C 3.362 0.078,3.292 0.020,3.254 0.513 M397.600 0.330 C 397.600 0.719,399.327 2.400,399.726 2.400 C 399.877 2.400,400.000 2.220,400.000 2.000 C 400.000 1.780,399.713 1.600,399.363 1.600 C 399.012 1.600,398.631 1.240,398.516 0.800 C 398.314 0.026,397.600 -0.340,397.600 0.330 M20.472 11.212 C 16.839 12.839,15.003 20.159,17.018 24.982 C 17.604 26.383,18.800 27.628,18.800 26.836 C 18.800 26.583,18.542 26.276,18.226 26.155 C 16.708 25.572,16.493 14.400,18.000 14.400 C 18.190 14.400,18.459 14.045,18.597 13.610 C 19.374 11.162,28.699 9.899,30.763 11.963 C 31.168 12.368,31.658 12.768,31.850 12.850 C 33.907 13.732,35.391 18.040,34.658 21.000 C 34.381 22.116,34.405 22.102,35.000 20.808 C 37.903 14.484,27.909 7.883,20.472 11.212 M70.600 11.183 C 69.596 11.601,68.656 12.577,67.390 14.518 C 65.326 17.682,66.531 27.200,68.996 27.200 C 69.306 27.200,70.044 27.650,70.638 28.200 C 72.268 29.711,78.881 29.711,80.638 28.200 C 81.277 27.651,82.013 27.201,82.273 27.200 C 82.533 27.200,82.853 26.864,82.983 26.453 C 83.114 26.042,83.576 25.384,84.010 24.991 C 84.602 24.456,84.800 23.759,84.800 22.218 C 84.800 21.086,85.011 19.949,85.269 19.691 C 85.628 19.332,85.628 18.980,85.269 18.192 C 85.011 17.626,84.800 16.836,84.800 16.436 C 84.800 15.529,82.805 12.984,81.118 11.739 C 79.773 10.747,72.564 10.366,70.600 11.183 M46.259 11.798 C 45.930 12.128,45.197 12.573,44.630 12.789 C 43.849 13.085,43.600 13.462,43.600 14.343 C 43.600 15.170,43.369 15.567,42.800 15.716 C 41.728 15.996,41.621 22.079,42.649 24.247 C 43.344 25.711,45.115 27.200,46.162 27.200 C 46.523 27.200,46.800 27.531,46.800 27.963 C 46.800 28.519,47.009 28.671,47.572 28.523 C 48.436 28.297,48.258 27.200,47.357 27.200 C 47.051 27.200,46.800 27.032,46.800 26.827 C 46.800 26.622,46.440 26.340,46.000 26.200 C 45.560 26.060,45.200 25.690,45.200 25.376 C 45.200 25.063,44.840 24.582,44.400 24.307 C 43.689 23.863,43.600 23.374,43.600 19.919 L 43.600 16.031 45.232 14.415 L 46.863 12.800 50.618 12.800 C 53.962 12.800,54.419 12.887,54.800 13.600 C 55.035 14.040,55.458 14.400,55.739 14.400 C 56.631 14.400,58.084 16.813,58.167 18.433 C 58.318 21.403,59.577 20.989,59.509 17.991 C 59.473 16.396,59.327 16.000,58.778 16.000 C 58.402 16.000,57.974 15.685,57.829 15.300 C 57.208 13.653,56.567 12.800,55.952 12.800 C 55.590 12.800,55.199 12.440,55.084 12.000 C 54.808 10.946,47.283 10.774,46.259 11.798 M80.307 12.000 C 80.582 12.440,81.165 12.800,81.603 12.800 C 82.042 12.800,82.400 13.061,82.400 13.379 C 82.400 13.698,82.850 14.444,83.400 15.038 C 84.444 16.164,84.564 16.920,84.416 21.400 C 84.359 23.107,84.136 23.973,83.642 24.400 C 83.261 24.730,82.641 25.495,82.265 26.100 C 81.889 26.705,81.238 27.200,80.818 27.200 C 80.398 27.200,79.952 27.520,79.828 27.911 C 79.545 28.805,71.595 28.984,71.301 28.104 C 71.210 27.830,70.492 27.301,69.705 26.928 C 68.854 26.524,68.101 25.793,67.849 25.124 C 67.616 24.506,67.284 24.000,67.112 24.000 C 66.330 24.000,66.777 16.197,67.600 15.493 C 68.040 15.116,68.400 14.549,68.400 14.233 C 68.400 11.605,78.838 9.647,80.307 12.000 M56.042 24.814 C 53.049 27.777,52.694 28.400,54.000 28.400 C 54.444 28.400,54.800 28.133,54.800 27.800 C 54.800 27.470,55.062 27.200,55.382 27.200 C 56.136 27.200,58.000 25.336,58.000 24.582 C 58.000 24.262,58.270 24.000,58.600 24.000 C 58.973 24.000,59.200 23.622,59.200 23.000 C 59.200 21.657,59.271 21.616,56.042 24.814 M33.831 24.456 C 32.766 26.258,31.906 27.200,31.325 27.200 C 31.052 27.200,30.635 27.560,30.400 28.000 C 30.014 28.721,29.562 28.800,25.848 28.800 C 22.232 28.800,21.635 28.701,21.000 28.000 C 20.602 27.560,19.999 27.200,19.660 27.200 C 19.303 27.200,19.614 27.620,20.400 28.200 C 22.407 29.681,29.084 29.705,30.827 28.238 C 31.456 27.709,32.112 27.214,32.285 27.138 C 32.874 26.880,34.859 23.978,34.724 23.573 C 34.651 23.352,34.248 23.749,33.831 24.456 M82.450 43.311 C 81.504 43.765,81.501 43.790,81.720 48.983 C 82.012 55.905,82.008 427.126,81.716 433.742 C 81.533 437.880,81.597 438.953,82.044 439.236 C 82.732 439.671,83.584 439.723,83.000 439.294 C 82.734 439.099,82.600 372.637,82.600 241.300 C 82.600 132.565,82.600 43.556,82.600 43.501 C 82.600 43.447,154.060 43.311,241.400 43.200 L 400.200 42.998 241.800 42.926 C 123.842 42.873,83.157 42.971,82.450 43.311 M119.400 115.785 C 117.860 116.763,115.553 118.246,114.273 119.082 C 112.993 119.917,111.193 121.026,110.273 121.546 C 109.353 122.066,107.520 123.195,106.200 124.054 C 103.163 126.031,96.754 130.036,94.400 131.427 L 92.600 132.490 92.638 141.745 L 92.677 151.000 95.838 153.059 C 104.001 158.375,105.959 159.609,106.653 159.872 C 107.064 160.027,108.630 161.030,110.133 162.100 C 111.636 163.169,113.306 164.212,113.843 164.416 C 114.381 164.621,116.399 165.871,118.328 167.194 C 121.902 169.646,123.690 170.184,124.164 168.949 C 124.301 168.591,124.211 168.055,123.964 167.757 C 123.654 167.383,123.558 164.800,123.657 159.422 L 123.800 151.629 121.400 150.184 C 120.080 149.390,118.460 148.329,117.800 147.828 C 117.140 147.326,115.790 146.503,114.800 146.000 C 113.810 145.497,112.460 144.687,111.800 144.201 C 111.140 143.716,110.272 143.202,109.872 143.061 C 108.737 142.660,109.190 141.105,110.657 140.372 C 111.348 140.026,112.216 139.441,112.585 139.072 C 112.955 138.702,113.423 138.400,113.625 138.400 C 113.827 138.400,114.818 137.770,115.827 137.000 C 116.836 136.230,117.904 135.600,118.200 135.600 C 118.496 135.600,119.273 135.150,119.927 134.600 C 120.581 134.050,121.283 133.600,121.488 133.600 C 123.334 133.600,123.620 132.092,123.508 122.971 C 123.382 112.770,123.586 113.126,119.400 115.785 M122.821 115.500 C 122.832 115.885,122.842 119.710,122.843 124.000 L 122.845 131.800 121.523 132.677 C 120.795 133.159,119.930 133.811,119.600 134.126 C 119.270 134.441,118.550 134.837,118.000 135.007 C 117.068 135.295,112.853 138.017,111.715 139.067 C 111.436 139.324,110.665 139.654,110.001 139.800 C 108.727 140.080,107.796 141.290,108.148 142.209 C 108.358 142.755,113.618 146.400,114.197 146.400 C 114.366 146.400,115.351 147.009,116.387 147.752 C 117.422 148.496,118.658 149.228,119.134 149.379 C 119.611 149.530,120.000 149.831,120.000 150.047 C 120.000 150.264,120.630 150.704,121.400 151.026 C 122.170 151.348,122.809 151.743,122.821 151.905 C 122.832 152.067,122.877 155.935,122.921 160.500 C 123.011 169.968,123.058 169.862,119.831 167.500 C 116.474 165.044,115.796 164.601,114.000 163.701 C 113.010 163.204,111.480 162.258,110.600 161.598 C 109.720 160.938,108.100 159.936,107.000 159.369 C 105.900 158.803,104.628 157.994,104.174 157.570 C 103.720 157.147,103.148 156.800,102.903 156.800 C 102.658 156.800,102.189 156.532,101.862 156.205 C 101.535 155.877,100.217 155.034,98.933 154.331 C 97.650 153.627,96.362 152.815,96.071 152.526 C 95.781 152.237,95.404 152.000,95.234 152.000 C 94.168 152.000,92.735 150.068,93.182 149.234 C 93.503 148.634,93.609 145.967,93.524 140.642 L 93.400 132.920 95.514 131.560 C 96.677 130.812,97.963 130.013,98.371 129.784 C 98.780 129.556,99.378 129.150,99.699 128.884 C 100.021 128.617,101.165 127.937,102.242 127.372 C 103.319 126.808,104.380 126.131,104.600 125.868 C 104.820 125.605,105.450 125.166,106.000 124.891 C 106.550 124.617,108.260 123.589,109.800 122.608 C 111.340 121.627,112.988 120.650,113.461 120.437 C 113.935 120.224,114.437 119.864,114.577 119.638 C 114.716 119.412,115.769 118.757,116.915 118.183 C 118.062 117.610,119.360 116.818,119.800 116.425 C 121.586 114.828,122.790 114.459,122.821 115.500 M195.116 194.273 C 194.076 194.546,193.846 209.891,194.874 210.440 C 195.859 210.966,265.883 210.913,266.209 210.386 C 266.705 209.582,266.404 194.650,265.884 194.320 C 265.382 194.001,196.325 193.955,195.116 194.273 M152.269 231.065 C 151.887 231.446,151.946 246.095,152.331 246.702 C 152.584 247.100,160.069 247.183,188.425 247.102 L 224.200 247.000 224.200 239.000 L 224.200 231.000 188.369 230.898 C 168.662 230.842,152.417 230.917,152.269 231.065 M236.000 238.679 C 236.000 242.779,236.122 246.011,236.272 245.862 C 236.421 245.712,236.497 242.703,236.440 239.174 C 236.372 234.933,236.486 232.578,236.778 232.226 C 237.111 231.826,237.069 231.635,236.610 231.459 C 236.077 231.255,236.000 232.162,236.000 238.679 M152.080 267.280 C 151.152 268.208,151.427 283.479,152.381 283.990 C 153.333 284.499,266.154 284.379,266.667 283.868 C 267.374 283.163,267.308 268.165,266.595 267.452 C 265.744 266.601,152.929 266.431,152.080 267.280 M266.088 275.151 C 266.065 283.625,265.973 284.122,264.532 283.574 C 263.882 283.327,243.176 283.193,208.053 283.209 L 152.600 283.234 152.492 275.418 L 152.383 267.603 208.892 267.501 C 239.971 267.446,265.559 267.523,265.754 267.674 C 265.948 267.824,266.099 271.189,266.088 275.151 M152.252 304.500 C 151.859 305.965,151.966 319.532,152.372 319.782 C 152.855 320.081,333.149 320.079,333.632 319.780 C 334.145 319.463,334.102 305.339,333.586 304.374 C 333.178 303.612,331.739 303.600,242.833 303.600 L 152.493 303.600 152.252 304.500 M211.200 386.445 C 209.539 387.444,206.882 389.998,208.265 389.267 C 208.741 389.015,209.191 388.666,209.265 388.490 C 209.339 388.315,210.030 387.728,210.800 387.186 L 212.200 386.200 306.200 385.998 L 400.200 385.797 306.400 385.700 L 212.600 385.603 211.200 386.445 M206.679 391.174 C 206.078 392.191,206.000 393.804,206.000 405.162 L 206.000 418.000 204.026 418.000 C 199.227 418.000,199.018 418.543,199.401 430.043 C 199.645 437.334,199.600 438.961,199.148 439.277 C 198.700 439.591,198.710 439.630,199.200 439.493 C 199.717 439.349,199.781 438.022,199.663 429.953 C 199.497 418.674,199.476 418.735,203.663 418.402 L 206.200 418.200 206.306 405.277 C 206.396 394.153,206.501 392.217,207.060 391.365 C 207.416 390.820,207.630 390.296,207.533 390.200 C 207.437 390.103,207.052 390.542,206.679 391.174 M215.797 392.737 C 214.638 393.443,212.400 396.023,212.400 396.652 C 212.400 396.820,212.960 396.196,213.644 395.266 C 214.329 394.335,215.544 393.228,216.344 392.805 C 217.145 392.381,217.620 392.028,217.400 392.019 C 217.180 392.010,216.459 392.333,215.797 392.737 M212.114 399.400 C 212.117 400.500,212.195 400.903,212.287 400.295 C 212.379 399.686,212.377 398.786,212.282 398.295 C 212.187 397.803,212.111 398.300,212.114 399.400 M212.562 409.800 C 212.562 413.320,212.624 414.706,212.698 412.881 C 212.772 411.056,212.772 408.176,212.697 406.481 C 212.622 404.786,212.561 406.280,212.562 409.800 M212.400 418.089 C 212.400 418.260,213.435 418.379,214.700 418.354 C 217.141 418.304,216.902 418.128,214.100 417.911 C 213.165 417.838,212.400 417.919,212.400 418.089 M217.984 419.275 C 218.745 420.092,218.806 420.719,218.891 428.575 L 218.983 437.000 219.100 428.642 C 219.218 420.164,218.956 418.400,217.575 418.400 C 217.352 418.400,217.536 418.794,217.984 419.275 M204.226 431.011 C 202.755 432.123,203.139 439.600,204.667 439.600 C 205.301 439.600,205.303 439.562,204.692 439.100 C 203.875 438.482,203.630 433.039,204.358 431.679 C 204.868 430.726,212.631 430.326,213.986 431.183 C 215.271 431.995,215.025 438.978,213.700 439.324 C 213.169 439.463,213.216 439.518,213.892 439.554 C 215.538 439.639,215.819 432.134,214.214 430.961 C 213.117 430.158,205.301 430.198,204.226 431.011 M207.500 439.493 C 208.435 439.577,209.965 439.577,210.900 439.493 C 211.835 439.409,211.070 439.340,209.200 439.340 C 207.330 439.340,206.565 439.409,207.500 439.493 " stroke="none" fill="#adacac" fill-rule="evenodd"></path><path id="path4" d="M1.206 0.300 C 1.209 0.465,1.371 0.851,1.566 1.158 C 2.034 1.898,3.213 1.418,3.154 0.513 C 3.110 -0.155,3.096 -0.156,2.924 0.500 C 2.701 1.355,2.000 1.431,2.000 0.600 C 2.000 0.270,1.820 0.000,1.600 0.000 C 1.380 0.000,1.203 0.135,1.206 0.300 M4.725 1.355 C 4.134 2.069,3.430 3.136,3.161 3.726 C 2.892 4.317,2.523 4.800,2.341 4.800 C 2.159 4.800,1.748 5.430,1.426 6.200 C 1.104 6.970,0.652 7.600,0.420 7.600 C 0.189 7.600,0.000 7.780,0.000 8.000 C 0.000 9.002,1.252 8.251,1.810 6.914 C 2.152 6.097,2.560 5.332,2.717 5.214 C 2.874 5.096,3.512 4.248,4.135 3.330 C 4.758 2.411,5.522 1.562,5.834 1.442 C 6.411 1.221,6.646 -0.024,6.100 0.029 C 5.935 0.045,5.316 0.642,4.725 1.355 M396.800 0.420 C 396.800 0.877,399.318 3.600,399.740 3.600 C 400.350 3.600,399.904 2.784,398.560 1.440 C 397.013 -0.107,396.800 -0.230,396.800 0.420 M20.782 10.337 C 19.674 10.708,18.755 11.447,17.796 12.737 C 17.035 13.761,16.193 14.857,15.925 15.170 C 14.016 17.403,16.064 26.511,18.779 27.864 C 19.305 28.127,19.894 28.624,20.088 28.971 C 20.676 30.022,30.019 29.884,30.991 28.810 C 31.384 28.376,32.036 27.916,32.440 27.787 C 33.778 27.363,35.600 24.145,35.600 22.209 C 35.600 21.193,35.850 20.208,36.194 19.863 C 36.719 19.338,36.719 19.136,36.197 18.134 C 35.871 17.510,35.604 16.762,35.602 16.471 C 35.599 15.744,33.606 12.400,33.176 12.400 C 32.984 12.400,32.228 11.873,31.495 11.229 C 29.901 9.830,23.808 9.322,20.782 10.337 M70.400 10.449 C 69.225 10.918,67.600 12.366,67.600 12.944 C 67.600 13.166,67.195 13.779,66.700 14.306 C 65.937 15.117,65.779 15.796,65.663 18.752 C 65.449 24.204,66.178 25.906,69.921 28.700 C 71.790 30.095,79.546 30.053,81.227 28.638 C 81.856 28.109,82.520 27.614,82.702 27.538 C 83.601 27.163,85.190 24.377,85.413 22.787 C 85.550 21.804,85.857 20.597,86.096 20.105 C 87.003 18.234,84.748 13.846,81.597 11.353 C 79.776 9.912,73.099 9.373,70.400 10.449 M31.548 12.007 C 35.042 14.814,35.722 16.832,34.981 22.189 C 34.736 23.958,33.229 26.724,32.285 27.138 C 32.112 27.214,31.456 27.709,30.827 28.238 C 28.813 29.933,22.596 29.674,19.736 27.775 C 14.623 24.381,15.101 13.617,20.472 11.212 C 23.270 9.960,29.563 10.411,31.548 12.007 M45.400 10.782 C 42.671 11.910,41.200 15.158,41.200 20.053 C 41.200 25.114,41.679 26.201,44.787 28.196 C 48.900 30.837,54.454 30.264,57.785 26.855 C 59.747 24.847,60.000 24.371,60.000 22.689 C 60.000 21.748,60.278 20.581,60.618 20.096 C 61.716 18.527,59.383 13.512,56.834 11.962 C 56.203 11.579,55.567 11.070,55.420 10.832 C 55.104 10.321,46.619 10.278,45.400 10.782 M81.118 11.739 C 82.805 12.984,84.800 15.529,84.800 16.436 C 84.800 16.836,85.011 17.626,85.269 18.192 C 85.628 18.980,85.628 19.332,85.269 19.691 C 85.011 19.949,84.800 21.086,84.800 22.218 C 84.800 23.759,84.602 24.456,84.010 24.991 C 83.576 25.384,83.114 26.042,82.983 26.453 C 82.853 26.864,82.533 27.200,82.273 27.200 C 82.013 27.201,81.277 27.651,80.638 28.200 C 78.881 29.711,72.268 29.711,70.638 28.200 C 70.044 27.650,69.306 27.200,68.996 27.200 C 66.531 27.200,65.326 17.682,67.390 14.518 C 69.631 11.083,70.131 10.858,75.622 10.825 C 79.447 10.802,79.964 10.888,81.118 11.739 M55.084 12.000 C 55.199 12.440,55.590 12.800,55.952 12.800 C 56.567 12.800,57.208 13.653,57.829 15.300 C 57.974 15.685,58.402 16.000,58.778 16.000 C 59.327 16.000,59.473 16.396,59.509 17.991 C 59.577 20.989,58.318 21.403,58.167 18.433 C 58.084 16.813,56.631 14.400,55.739 14.400 C 55.458 14.400,55.035 14.040,54.800 13.600 C 54.419 12.887,53.962 12.800,50.618 12.800 L 46.863 12.800 45.232 14.415 L 43.600 16.031 43.600 19.919 C 43.600 23.374,43.689 23.863,44.400 24.307 C 44.840 24.582,45.200 25.063,45.200 25.376 C 45.200 25.690,45.560 26.060,46.000 26.200 C 46.440 26.340,46.800 26.622,46.800 26.827 C 46.800 27.032,47.051 27.200,47.357 27.200 C 48.258 27.200,48.436 28.297,47.572 28.523 C 47.009 28.671,46.800 28.519,46.800 27.963 C 46.800 27.531,46.523 27.200,46.162 27.200 C 45.115 27.200,43.344 25.711,42.649 24.247 C 41.621 22.079,41.728 15.996,42.800 15.716 C 43.369 15.567,43.600 15.170,43.600 14.343 C 43.600 13.462,43.849 13.085,44.630 12.789 C 45.197 12.573,45.930 12.128,46.259 11.798 C 47.283 10.774,54.808 10.946,55.084 12.000 M59.200 23.000 C 59.200 23.622,58.973 24.000,58.600 24.000 C 58.270 24.000,58.000 24.262,58.000 24.582 C 58.000 25.336,56.136 27.200,55.382 27.200 C 55.062 27.200,54.800 27.470,54.800 27.800 C 54.800 28.133,54.444 28.400,54.000 28.400 C 52.694 28.400,53.049 27.777,56.042 24.814 C 59.271 21.616,59.200 21.657,59.200 23.000 M82.035 42.837 C 81.437 43.076,65.981 43.219,41.435 43.214 C 19.636 43.209,1.395 43.315,0.900 43.449 C 0.038 43.683,0.000 43.874,0.000 47.966 L 0.000 52.239 1.328 52.720 C 3.581 53.534,79.335 53.401,80.016 52.581 C 80.426 52.087,80.596 52.067,80.859 52.481 C 81.383 53.308,81.290 429.897,80.765 430.222 C 80.526 430.369,80.130 430.290,79.885 430.045 C 79.259 429.419,3.055 429.413,1.260 430.039 L 0.000 430.478 0.000 435.043 L 0.000 439.607 40.500 439.599 C 66.616 439.594,81.496 439.735,82.397 439.996 C 84.348 440.560,197.946 440.553,199.431 439.988 L 200.514 439.577 200.226 430.038 L 199.938 420.498 201.100 419.671 C 202.069 418.981,202.639 418.882,204.531 419.078 L 206.800 419.312 206.800 421.611 C 206.800 425.680,211.702 425.594,211.918 421.522 L 212.037 419.298 214.118 419.078 C 215.738 418.906,216.422 419.017,217.200 419.577 L 218.200 420.296 218.200 429.833 L 218.200 439.369 219.200 439.879 C 220.489 440.536,400.000 440.652,400.000 439.996 C 400.000 439.725,370.211 439.596,309.542 439.604 C 259.790 439.611,219.009 439.542,218.917 439.451 C 218.826 439.359,218.766 434.984,218.785 429.728 C 218.826 418.331,218.850 418.400,214.784 418.400 L 212.400 418.400 212.303 409.700 C 212.149 395.936,212.082 396.717,213.580 394.826 C 214.298 393.918,215.405 392.908,216.040 392.580 C 217.052 392.056,228.363 391.985,308.596 391.996 C 370.395 392.004,400.000 391.876,400.000 391.601 C 400.000 391.325,370.404 391.227,308.439 391.297 L 216.879 391.400 215.140 392.659 C 211.775 395.097,211.603 395.839,211.880 406.738 C 212.013 411.955,211.996 416.894,211.843 417.712 L 211.564 419.200 209.182 419.200 L 206.800 419.200 206.800 406.085 C 206.800 394.278,206.871 392.831,207.514 391.585 C 208.286 390.088,210.092 388.000,210.614 388.000 C 210.792 388.000,211.285 387.685,211.710 387.300 C 212.441 386.639,217.678 386.589,306.342 386.398 L 400.200 386.197 306.393 386.098 L 212.586 386.000 211.112 387.002 C 206.417 390.192,206.417 390.191,206.299 405.400 L 206.200 418.200 203.663 418.402 C 199.436 418.738,199.449 418.697,199.798 429.850 C 199.993 436.121,199.952 439.182,199.671 439.356 C 199.114 439.700,83.096 439.688,82.200 439.345 C 81.565 439.101,81.519 438.581,81.719 433.838 C 82.007 426.985,82.007 55.795,81.719 48.962 C 81.515 44.112,81.554 43.698,82.249 43.362 C 82.692 43.149,148.145 42.917,241.600 42.799 L 400.200 42.598 241.600 42.524 C 140.481 42.477,82.650 42.591,82.035 42.837 M14.749 85.061 C 13.744 86.273,13.773 91.606,14.792 92.900 L 15.658 94.000 40.610 94.000 C 67.875 94.000,67.406 94.039,67.839 91.731 C 68.250 89.544,67.837 85.195,67.179 84.779 C 66.002 84.034,15.375 84.307,14.749 85.061 M14.464 99.019 C 13.801 100.475,13.869 105.269,14.568 106.224 C 15.345 107.286,53.341 107.456,54.009 106.400 C 54.570 105.511,54.498 99.058,53.920 98.480 C 53.560 98.120,48.628 98.000,34.184 98.000 L 14.928 98.000 14.464 99.019 M15.600 111.496 C 14.045 112.101,13.349 116.934,14.464 119.381 L 14.928 120.400 23.641 120.400 C 29.944 120.400,32.434 120.268,32.647 119.924 C 33.325 118.827,33.321 113.244,32.642 112.208 L 31.982 111.200 24.091 111.232 C 19.751 111.249,15.930 111.368,15.600 111.496 M36.000 112.000 C 34.991 113.009,34.805 119.174,35.759 119.966 C 36.161 120.300,40.611 120.430,51.653 120.430 C 69.453 120.430,68.000 120.830,68.000 115.924 C 68.000 110.861,69.176 111.200,51.600 111.200 C 37.333 111.200,36.771 111.229,36.000 112.000 M121.400 115.267 C 120.960 115.510,120.240 116.031,119.800 116.425 C 119.360 116.818,118.062 117.610,116.915 118.183 C 115.769 118.757,114.716 119.412,114.577 119.638 C 114.437 119.864,113.935 120.224,113.461 120.437 C 112.988 120.650,111.340 121.627,109.800 122.608 C 108.260 123.589,106.550 124.617,106.000 124.891 C 105.450 125.166,104.820 125.605,104.600 125.868 C 104.380 126.131,103.319 126.808,102.242 127.372 C 101.165 127.937,100.021 128.617,99.699 128.884 C 99.378 129.150,98.780 129.556,98.371 129.784 C 97.963 130.013,96.677 130.812,95.514 131.560 L 93.400 132.920 93.524 140.642 C 93.609 145.967,93.503 148.634,93.182 149.234 C 92.735 150.068,94.168 152.000,95.234 152.000 C 95.404 152.000,95.781 152.237,96.071 152.526 C 96.362 152.815,97.650 153.627,98.933 154.331 C 100.217 155.034,101.535 155.877,101.862 156.205 C 102.189 156.532,102.658 156.800,102.903 156.800 C 103.148 156.800,103.720 157.147,104.174 157.570 C 104.628 157.994,105.900 158.803,107.000 159.369 C 108.100 159.936,109.720 160.938,110.600 161.598 C 111.480 162.258,113.010 163.204,114.000 163.701 C 115.796 164.601,116.474 165.044,119.831 167.500 C 123.058 169.862,123.011 169.968,122.921 160.500 C 122.877 155.935,122.832 152.067,122.821 151.905 C 122.809 151.743,122.170 151.348,121.400 151.026 C 120.630 150.704,120.000 150.264,120.000 150.047 C 120.000 149.831,119.611 149.530,119.134 149.379 C 118.658 149.228,117.422 148.496,116.387 147.752 C 115.351 147.009,114.366 146.400,114.197 146.400 C 113.618 146.400,108.358 142.755,108.148 142.209 C 107.796 141.290,108.727 140.080,110.001 139.800 C 110.665 139.654,111.436 139.324,111.715 139.067 C 112.853 138.017,117.068 135.295,118.000 135.007 C 118.550 134.837,119.270 134.441,119.600 134.126 C 119.930 133.811,120.795 133.159,121.523 132.677 L 122.845 131.800 122.843 124.000 C 122.841 114.312,122.859 114.798,122.500 114.812 C 122.335 114.819,121.840 115.023,121.400 115.267 M14.792 148.700 C 14.041 149.654,13.944 150.204,14.063 152.839 C 14.276 157.551,13.039 157.200,29.420 157.200 C 46.059 157.200,44.800 157.579,44.800 152.571 C 44.800 147.243,45.903 147.600,29.429 147.600 L 15.658 147.600 14.792 148.700 M47.900 148.032 C 47.037 148.535,46.851 155.891,47.680 156.720 C 48.594 157.634,61.081 157.370,61.586 156.426 C 62.273 155.142,62.112 148.969,61.371 148.229 C 60.628 147.486,49.126 147.318,47.900 148.032 M14.759 161.849 C 13.281 163.631,14.023 170.195,15.751 170.619 C 17.787 171.118,66.754 170.606,67.280 170.080 C 68.069 169.291,68.001 162.098,67.200 161.592 C 66.019 160.845,15.386 161.094,14.759 161.849 M208.892 267.501 L 152.383 267.603 152.492 275.418 L 152.600 283.234 208.053 283.209 C 243.176 283.193,263.882 283.327,264.532 283.574 C 265.398 283.903,265.597 283.839,265.813 283.159 C 266.207 281.917,266.154 267.983,265.754 267.674 C 265.559 267.523,239.971 267.446,208.892 267.501 M203.689 430.623 C 202.382 431.538,202.315 439.392,203.610 439.803 C 204.917 440.218,214.878 440.082,215.316 439.644 C 215.736 439.224,216.009 433.743,215.700 431.946 C 215.432 430.391,214.101 430.000,209.070 430.000 C 205.652 430.000,204.366 430.149,203.689 430.623 M214.214 430.961 C 215.033 431.560,215.564 436.494,215.036 438.599 L 214.785 439.600 209.382 439.600 C 203.055 439.600,203.326 439.822,203.404 434.698 C 203.467 430.584,203.676 430.429,209.224 430.413 C 212.231 430.404,213.668 430.561,214.214 430.961 M6.300 509.504 L 0.000 509.620 0.000 511.010 L 0.000 512.400 6.124 512.400 C 12.779 512.400,13.789 512.129,13.538 510.409 C 13.373 509.279,14.030 509.361,6.300 509.504 M24.262 509.690 C 23.923 509.903,23.964 510.275,24.415 511.090 L 25.031 512.200 42.769 512.304 C 61.626 512.415,61.758 512.402,61.520 510.515 L 61.400 509.562 43.062 509.481 C 32.976 509.436,24.516 509.530,24.262 509.690 M72.567 509.567 C 72.187 509.947,72.439 511.535,72.946 511.955 C 73.339 512.281,78.467 512.379,91.231 512.304 L 108.969 512.200 109.574 511.123 C 109.907 510.530,110.075 509.942,109.948 509.815 C 109.687 509.554,72.824 509.309,72.567 509.567 M120.159 509.666 C 119.858 510.153,120.728 511.887,121.402 512.145 C 121.767 512.285,129.692 512.400,139.014 512.400 C 157.291 512.400,158.000 512.327,158.000 510.436 L 158.000 509.400 139.162 509.400 C 128.801 509.400,120.249 509.520,120.159 509.666 M168.161 509.664 C 167.905 510.077,168.486 511.350,169.175 511.887 C 169.975 512.511,203.380 512.616,205.001 512.000 C 205.817 511.690,206.025 511.372,205.927 510.585 L 205.800 509.570 187.062 509.485 C 176.756 509.438,168.250 509.519,168.161 509.664 M216.801 509.533 C 216.580 509.607,216.400 510.037,216.400 510.489 C 216.400 512.341,216.721 512.374,235.224 512.387 C 253.860 512.401,254.230 512.363,253.938 510.455 L 253.800 509.555 235.501 509.478 C 225.436 509.435,217.021 509.460,216.801 509.533 M264.599 509.602 C 264.205 510.239,264.994 512.033,265.747 512.215 C 266.216 512.329,274.428 512.372,283.995 512.311 L 301.389 512.200 301.931 511.070 C 302.229 510.448,302.393 509.859,302.295 509.762 C 302.046 509.513,264.751 509.355,264.599 509.602 M312.567 509.567 C 311.978 510.155,312.508 511.661,313.426 512.010 C 315.747 512.892,348.703 512.497,349.625 511.575 C 351.608 509.592,351.624 509.593,331.467 509.493 C 321.163 509.442,312.658 509.475,312.567 509.567 M360.567 509.567 C 360.176 509.957,360.456 510.856,361.200 511.600 C 361.975 512.375,362.533 512.400,379.174 512.400 C 397.539 512.400,398.541 512.305,398.327 510.585 L 398.200 509.570 379.467 509.485 C 369.163 509.438,360.658 509.475,360.567 509.567 M13.300 557.497 L 0.000 557.611 0.000 558.980 L 0.000 560.349 12.900 560.483 C 27.072 560.630,27.800 560.538,27.800 558.600 C 27.800 557.816,27.596 557.406,27.200 557.397 C 26.870 557.389,20.615 557.434,13.300 557.497 M38.586 558.044 C 37.827 560.436,37.979 560.455,57.547 560.447 C 76.378 560.438,76.400 560.436,76.400 558.238 L 76.400 557.400 57.595 557.400 C 40.665 557.400,38.770 557.464,38.586 558.044 M86.567 557.567 C 86.155 557.978,86.466 559.136,87.156 559.760 C 87.844 560.383,89.464 560.443,105.400 560.443 C 124.393 560.443,124.400 560.443,124.400 558.238 L 124.400 557.400 105.567 557.400 C 95.209 557.400,86.658 557.475,86.567 557.567 M134.494 557.931 C 134.382 558.223,134.630 558.910,135.045 559.457 L 135.800 560.452 153.585 560.453 C 172.892 560.455,172.666 560.481,172.315 558.284 C 172.163 557.328,134.859 556.980,134.494 557.931 M182.967 557.567 C 182.578 557.955,182.845 559.539,183.372 559.977 C 184.448 560.870,219.240 560.633,219.902 559.729 C 221.510 557.529,221.838 557.570,201.667 557.481 C 191.473 557.437,183.058 557.475,182.967 557.567 M230.967 557.567 C 230.629 557.904,230.815 559.067,231.315 559.751 C 231.793 560.405,233.096 560.454,249.615 560.447 L 267.400 560.440 268.117 559.555 C 269.748 557.541,270.001 557.570,249.867 557.482 C 239.563 557.437,231.058 557.475,230.967 557.567 M278.800 558.238 C 278.800 560.457,278.828 560.460,297.606 560.448 C 316.245 560.437,317.037 560.350,316.725 558.356 C 316.603 557.580,316.206 557.561,297.700 557.481 L 278.800 557.400 278.800 558.238 M326.800 558.238 C 326.800 560.436,326.822 560.438,345.653 560.447 C 363.338 560.455,364.159 560.405,364.578 559.313 C 365.329 557.356,365.767 557.400,345.605 557.400 L 326.800 557.400 326.800 558.238 M375.371 557.731 C 374.352 560.386,375.614 560.647,388.700 560.484 L 400.000 560.344 400.000 558.972 L 400.000 557.600 388.700 557.595 C 382.485 557.592,376.997 557.481,376.505 557.349 C 375.901 557.187,375.532 557.311,375.371 557.731 M50.678 605.644 C 50.193 605.926,44.108 606.021,32.178 605.932 C 13.067 605.790,12.988 605.798,15.148 607.753 C 16.464 608.944,50.718 608.789,51.691 607.587 C 52.218 606.936,52.289 606.540,51.980 605.963 C 51.508 605.081,51.605 605.105,50.678 605.644 M98.600 605.626 C 98.160 605.815,89.880 605.952,80.200 605.930 C 61.502 605.887,61.129 605.925,63.099 607.709 C 63.737 608.286,84.289 608.695,98.636 608.416 C 99.728 608.395,100.542 606.728,99.873 605.881 C 99.543 605.462,99.159 605.385,98.600 605.626 M110.879 605.845 C 110.326 606.832,111.108 608.396,112.164 608.416 C 127.130 608.704,147.396 608.288,147.860 607.684 C 149.224 605.909,149.229 605.909,130.400 605.853 C 120.610 605.824,112.301 605.652,111.936 605.471 C 111.476 605.243,111.151 605.358,110.879 605.845 M159.053 605.481 C 158.593 605.941,158.791 607.494,159.370 607.975 C 160.224 608.683,194.443 608.630,195.582 607.919 C 197.280 606.858,196.661 605.257,194.700 605.636 C 192.263 606.108,160.911 606.088,160.026 605.614 C 159.630 605.402,159.192 605.342,159.053 605.481 M206.800 606.283 C 206.800 608.469,206.508 608.436,225.628 608.434 C 238.816 608.434,243.425 608.311,243.859 607.951 C 244.635 607.307,244.417 605.328,243.600 605.600 C 242.502 605.966,210.731 606.024,208.749 605.664 C 206.854 605.319,206.800 605.336,206.800 606.283 M290.800 605.615 C 290.417 605.871,283.828 605.993,272.600 605.953 C 253.933 605.885,253.956 605.883,255.341 607.686 C 256.050 608.609,291.465 608.844,292.061 607.930 C 292.950 606.568,291.995 604.815,290.800 605.615 M303.198 606.003 C 302.662 607.005,303.467 608.393,304.596 608.416 C 321.698 608.762,339.458 608.319,340.116 607.530 C 341.420 605.967,340.698 605.901,322.916 605.974 C 312.015 606.019,305.376 605.895,304.691 605.635 C 303.786 605.290,303.548 605.349,303.198 606.003 M351.223 605.958 C 350.911 606.541,350.980 606.933,351.509 607.587 C 352.482 608.789,386.736 608.944,388.052 607.753 C 390.212 605.799,390.132 605.790,371.034 605.932 C 358.705 606.024,353.018 605.931,352.451 605.627 C 351.782 605.269,351.559 605.329,351.223 605.958 M399.112 605.900 C 398.888 606.765,399.144 607.600,399.633 607.600 C 399.835 607.600,400.000 607.060,400.000 606.400 C 400.000 605.099,399.406 604.765,399.112 605.900 M0.700 605.876 C -0.466 606.180,-0.228 608.256,1.008 608.566 C 2.655 608.980,4.593 607.440,4.113 606.100 C 3.939 605.617,2.142 605.499,0.700 605.876 M4.967 653.967 C 4.597 654.336,4.834 655.530,5.365 655.971 C 5.779 656.314,10.683 656.438,23.665 656.433 L 41.400 656.426 42.113 655.552 C 42.505 655.072,42.771 654.512,42.703 654.309 C 42.584 653.951,5.320 653.613,4.967 653.967 M52.800 654.504 C 52.800 656.534,42.755 656.405,201.532 656.405 C 282.564 656.405,349.114 656.264,349.420 656.093 C 349.727 655.921,350.027 655.382,350.089 654.896 L 350.200 654.010 201.500 653.905 C 59.793 653.805,52.800 653.833,52.800 654.504 M360.527 654.118 C 360.305 654.478,361.464 656.397,361.909 656.405 C 388.723 656.897,398.715 656.373,398.312 654.496 C 398.184 653.904,360.890 653.531,360.527 654.118 " stroke="none" fill="#c4c3c3" fill-rule="evenodd"></path></g></svg>